<svg width="150" height="154" viewBox="0 0 150 154" fill="none" xmlns="http://www.w3.org/2000/svg">
<rect width="150" height="153.783" fill="#1A202C"/>
<g clip-path="url(#clip0_57_144)">
<path d="M96.5505 59.3737C96.6793 59.2862 96.8258 59.2281 96.9795 59.2034C97.1333 59.1787 97.2905 59.188 97.4403 59.2307C97.59 59.2733 97.7286 59.3483 97.8462 59.4503C97.9639 59.5523 98.0577 59.6788 98.1212 59.821L100.554 59.7567L100.954 61.2256L97.5167 61.2681C97.2707 61.3588 97.0001 61.3562 96.7559 61.2607C96.5118 61.1652 96.3112 60.9835 96.1921 60.75C96.073 60.5165 96.0437 60.2474 96.1098 59.9937C96.1758 59.7401 96.3326 59.5194 96.5505 59.3737Z" fill="#FFB8B8"/>
<path d="M99.2797 61.7218C99.128 61.5805 99.0359 61.3867 99.022 61.1799L98.9247 59.7198C98.9157 59.5862 98.9398 59.4524 98.995 59.3303C99.0502 59.2083 99.1347 59.1017 99.241 59.0203L103.163 56.0069L105.444 53.2395C105.675 52.9598 106.004 52.7786 106.364 52.7327C106.723 52.6868 107.087 52.7796 107.381 52.9924C107.534 53.1034 107.664 53.2437 107.762 53.4052C107.86 53.5666 107.925 53.746 107.953 53.9328C107.981 54.1196 107.972 54.3102 107.926 54.4935C107.88 54.6767 107.798 54.849 107.685 55.0002L105.029 58.5455L103.138 60.5477C102.537 61.1812 101.75 61.6069 100.89 61.7632L99.9782 61.927C99.8654 61.9472 99.7497 61.9434 99.6386 61.9159C99.5274 61.8883 99.4233 61.8377 99.333 61.7672C99.3145 61.7528 99.2968 61.7376 99.2797 61.7218Z" fill="#6C63FF"/>
<path d="M117.253 84.5798L115.993 84.8944L114.18 80.1855L116.039 79.7212L117.253 84.5798Z" fill="#FFB8B8"/>
<path d="M115.003 84.7591L117.433 84.1524L117.815 85.682L113.856 86.6707C113.805 86.4698 113.795 86.2611 113.826 86.0563C113.856 85.8515 113.927 85.6548 114.034 85.4772C114.14 85.2997 114.281 85.145 114.447 85.0217C114.613 84.8985 114.803 84.8093 115.003 84.7591Z" fill="#2F2E41"/>
<path d="M105.883 85.4651L104.584 85.465L103.967 80.457L105.883 80.4571L105.883 85.4651Z" fill="#FFB8B8"/>
<path d="M103.657 85.0942H106.161V86.6708H102.08C102.08 86.4638 102.121 86.2588 102.2 86.0675C102.279 85.8762 102.395 85.7024 102.542 85.556C102.688 85.4096 102.862 85.2935 103.053 85.2142C103.245 85.135 103.45 85.0942 103.657 85.0942Z" fill="#2F2E41"/>
<path d="M105.32 49.3181C106.861 49.3181 108.11 48.0692 108.11 46.5287C108.11 44.9881 106.861 43.7393 105.32 43.7393C103.779 43.7393 102.53 44.9881 102.53 46.5287C102.53 48.0692 103.779 49.3181 105.32 49.3181Z" fill="#FFB8B8"/>
<path d="M105.315 46.6276C105.32 46.2545 105.962 46.2077 106.162 46.5257C106.362 46.8437 106.234 47.2586 106.058 47.5897C105.874 47.9344 105.636 48.2825 105.673 48.674C105.686 48.7728 105.723 48.8669 105.782 48.9473C105.84 49.0278 105.919 49.0921 106.009 49.1343C106.099 49.1764 106.199 49.195 106.298 49.1884C106.397 49.1818 106.494 49.1501 106.577 49.0963C107.489 48.5353 108.258 47.7187 108.598 46.7235C108.956 45.6768 108.777 44.429 108.003 43.6248C107.229 42.8206 105.841 42.5931 104.922 43.236L103.354 42.1678C103.317 42.1418 103.273 42.1279 103.227 42.1279C103.182 42.128 103.138 42.142 103.101 42.168C103.064 42.1941 103.036 42.231 103.021 42.2735C103.006 42.3161 103.005 42.3623 103.017 42.4058L103.246 43.1511L102.454 42.9518C102.42 42.9424 102.384 42.9435 102.351 42.9548C102.318 42.9661 102.289 42.9872 102.268 43.0152C102.247 43.0433 102.235 43.077 102.233 43.1121C102.232 43.1471 102.241 43.1817 102.26 43.2115L102.532 43.634C102.169 43.3356 101.542 43.6757 101.49 44.1359C101.438 44.5961 101.812 45.0203 102.252 45.1936C102.692 45.367 103.183 45.3473 103.657 45.3248C103.606 45.554 103.628 45.7935 103.721 46.0091C103.814 46.2248 103.973 46.4056 104.175 46.5258C104.584 46.7633 105.15 46.7073 105.315 46.6276Z" fill="#2F2E41"/>
<path d="M105.918 83.3503C105.913 83.3503 105.908 83.3503 105.902 83.35L103.897 83.2875C103.828 83.2854 103.761 83.2697 103.7 83.2413C103.638 83.2129 103.582 83.1724 103.536 83.1222C103.49 83.0721 103.454 83.0132 103.431 82.9491C103.408 82.8849 103.398 82.8169 103.402 82.7488L104.405 64.3315L112.113 66.5171L117.167 82.2787C117.191 82.3543 117.198 82.4344 117.186 82.5128C117.173 82.5912 117.143 82.6658 117.097 82.7305C117.051 82.7952 116.991 82.8483 116.921 82.8857C116.851 82.923 116.773 82.9436 116.694 82.9457L114.384 83.007C114.28 83.0091 114.177 82.9796 114.09 82.9222C114.003 82.8649 113.935 82.7825 113.896 82.6859L108.697 69.6828C108.683 69.648 108.658 69.6188 108.626 69.5996C108.594 69.5805 108.556 69.5724 108.519 69.5768C108.482 69.5812 108.447 69.5977 108.42 69.6237C108.393 69.6498 108.376 69.684 108.37 69.7211L106.424 82.9138C106.406 83.0351 106.345 83.1459 106.252 83.226C106.159 83.3061 106.041 83.3503 105.918 83.3503Z" fill="#2F2E41"/>
<path d="M111.739 68.9521C111.192 68.9517 110.658 68.7784 110.215 68.4569L107.735 66.6668C107.191 66.2748 106.56 66.0193 105.897 65.9219L104.703 65.7479C104.52 65.7216 104.353 65.6281 104.235 65.4856C104.117 65.3432 104.056 65.1618 104.064 64.977L104.54 53.5916L104.257 51.9686C104.235 51.8363 104.25 51.7002 104.303 51.5765C104.355 51.4528 104.441 51.3466 104.552 51.2707L106.762 49.7584C106.937 49.6394 107.146 49.5835 107.357 49.6L107.437 49.6064C107.664 49.6241 107.879 49.7125 108.052 49.8592C108.225 50.0058 108.348 50.2033 108.403 50.4235L108.488 50.7625L109.958 53.3767C110.393 54.1493 110.72 54.9778 110.929 55.839L112.323 61.5675C112.445 62.0658 112.528 62.5725 112.574 63.0834L113.036 68.2348C113.047 68.3463 113.021 68.4581 112.962 68.5535C112.903 68.649 112.816 68.7228 112.711 68.7639C112.402 68.8879 112.072 68.9518 111.739 68.9521Z" fill="#6C63FF"/>
<path d="M107.113 64.8267C107.083 64.674 107.086 64.5165 107.123 64.3653C107.161 64.2141 107.23 64.0729 107.328 63.9516C107.426 63.8303 107.549 63.7318 107.688 63.6632C107.828 63.5946 107.981 63.5574 108.137 63.5543L109.025 61.2886L110.534 61.4924L109.234 64.6745C109.222 64.9363 109.114 65.1846 108.931 65.3723C108.748 65.5599 108.503 65.674 108.241 65.6927C107.98 65.7115 107.721 65.6337 107.513 65.4741C107.305 65.3145 107.163 65.0841 107.113 64.8267Z" fill="#FFB8B8"/>
<path d="M110.338 63.2274C110.149 63.3121 109.934 63.3215 109.738 63.2538L108.356 62.7748C108.229 62.7311 108.115 62.6568 108.024 62.5585C107.933 62.4601 107.868 62.3408 107.834 62.2112L106.586 57.4253L104.924 54.2478C104.757 53.926 104.718 53.5525 104.816 53.2032C104.913 52.8538 105.141 52.5548 105.451 52.367C105.613 52.2694 105.793 52.2049 105.979 52.1774C106.166 52.1498 106.357 52.1597 106.54 52.2064C106.723 52.2532 106.895 52.3359 107.046 52.4497C107.197 52.5635 107.324 52.7061 107.419 52.8694L109.651 56.6959L110.759 59.2169C111.108 60.0171 111.194 60.9079 111.003 61.7601L110.799 62.664C110.774 62.7757 110.725 62.8808 110.656 62.9725C110.588 63.0641 110.501 63.1403 110.401 63.196C110.38 63.2074 110.359 63.2179 110.338 63.2274Z" fill="#6C63FF"/>
<path d="M95.6051 72.7165H34.005C33.5081 72.7159 33.0317 72.5183 32.6804 72.167C32.3291 71.8157 32.1314 71.3394 32.1309 70.8426V36.1128H97.4792V70.8426C97.4787 71.3394 97.281 71.8157 96.9297 72.167C96.5784 72.5183 96.102 72.7159 95.6051 72.7165Z" fill="#E6E6E6"/>
<path d="M93.154 69.1291H36.4567C36.2007 69.1288 35.9553 69.027 35.7743 68.8461C35.5933 68.6651 35.4915 68.4197 35.4912 68.1638V40.6646C35.4915 40.4086 35.5933 40.1633 35.7743 39.9823C35.9553 39.8013 36.2007 39.6995 36.4567 39.6992H93.154C93.4099 39.6995 93.6553 39.8013 93.8363 39.9823C94.0173 40.1633 94.1191 40.4086 94.1194 40.6646V68.1638C94.1191 68.4197 94.0173 68.6651 93.8363 68.8461C93.6553 69.027 93.4099 69.1288 93.154 69.1291Z" fill="white"/>
<path d="M97.6106 37.3784H32V35.8739C32.0006 35.3771 32.1982 34.9008 32.5495 34.5495C32.9009 34.1982 33.3772 34.0006 33.8741 34H95.7365C96.2334 34.0006 96.7098 34.1982 97.0611 34.5495C97.4124 34.9008 97.6101 35.3771 97.6106 35.8739V37.3784Z" fill="#E11D48"/>
<path d="M50.8834 45.0967H40.7916C40.5356 45.0969 40.2902 45.1986 40.1091 45.3796C39.9281 45.5606 39.8263 45.8061 39.8262 46.062V52.6945C39.8263 52.9505 39.9281 53.1959 40.1091 53.3769C40.2902 53.558 40.5356 53.6597 40.7916 53.6599H50.8834C51.1393 53.6595 51.3847 53.5577 51.5657 53.3767C51.7467 53.1958 51.8485 52.9504 51.8489 52.6945V46.062C51.8485 45.8061 51.7467 45.5608 51.5657 45.3798C51.3847 45.1989 51.1393 45.097 50.8834 45.0967Z" fill="#E6E6E6"/>
<path d="M69.8512 45.0967H59.7594C59.5034 45.0969 59.2579 45.1986 59.0769 45.3796C58.8959 45.5606 58.7941 45.8061 58.7939 46.062V52.6945C58.7941 52.9505 58.8959 53.1959 59.0769 53.3769C59.2579 53.558 59.5034 53.6597 59.7594 53.6599H69.8512C70.1071 53.6595 70.3525 53.5577 70.5335 53.3767C70.7144 53.1958 70.8163 52.9504 70.8166 52.6945V46.062C70.8163 45.8061 70.7144 45.5608 70.5335 45.3798C70.3525 45.1989 70.1071 45.097 69.8512 45.0967Z" fill="#E6E6E6"/>
<path d="M88.8199 45.0967H78.7281C78.4721 45.0969 78.2267 45.1986 78.0457 45.3796C77.8646 45.5606 77.7629 45.8061 77.7627 46.062V52.6945C77.7629 52.9505 77.8646 53.1959 78.0457 53.3769C78.2267 53.558 78.4721 53.6597 78.7281 53.6599H88.8199C89.0759 53.6595 89.3212 53.5577 89.5022 53.3767C89.6832 53.1958 89.785 52.9504 89.7854 52.6945V46.062C89.785 45.8061 89.6832 45.5608 89.5022 45.3798C89.3212 45.1989 89.0759 45.097 88.8199 45.0967Z" fill="#E6E6E6"/>
<path d="M49.4556 56.7944H42.2193C42.077 56.7944 41.9405 56.851 41.8398 56.9516C41.7392 57.0522 41.6826 57.1887 41.6826 57.3311C41.6826 57.4734 41.7392 57.6099 41.8398 57.7105C41.9405 57.8111 42.077 57.8677 42.2193 57.8677H49.4556C49.5979 57.8677 49.7344 57.8111 49.8351 57.7105C49.9357 57.6099 49.9923 57.4734 49.9923 57.3311C49.9923 57.1887 49.9357 57.0522 49.8351 56.9516C49.7344 56.851 49.5979 56.7944 49.4556 56.7944Z" fill="#E6E6E6"/>
<path d="M49.4553 59.7266H42.2189C42.0961 59.7263 41.9769 59.7683 41.8813 59.8454C41.7857 59.9225 41.7194 60.0301 41.6936 60.1501C41.6678 60.2702 41.684 60.3955 41.7395 60.5051C41.795 60.6147 41.8864 60.7019 41.9985 60.7521C42.0677 60.7836 42.1429 60.7999 42.2189 60.7998H49.4553C49.5976 60.7998 49.7341 60.7433 49.8347 60.6426C49.9354 60.542 49.9919 60.4055 49.9919 60.2632C49.9919 60.1209 49.9354 59.9844 49.8347 59.8837C49.7341 59.7831 49.5976 59.7266 49.4553 59.7266Z" fill="#E6E6E6"/>
<path d="M49.4556 62.6592H42.2193C42.077 62.6592 41.9405 62.7157 41.8398 62.8164C41.7392 62.917 41.6826 63.0535 41.6826 63.1958C41.6826 63.3381 41.7392 63.4746 41.8398 63.5752C41.9405 63.6759 42.077 63.7324 42.2193 63.7324H49.4556C49.5979 63.7324 49.7344 63.6759 49.8351 63.5752C49.9357 63.4746 49.9923 63.3381 49.9923 63.1958C49.9923 63.0535 49.9357 62.917 49.8351 62.8164C49.7344 62.7157 49.5979 62.6592 49.4556 62.6592Z" fill="#E6E6E6"/>
<path d="M68.4234 56.7944H61.1871C61.0447 56.7944 60.9082 56.851 60.8076 56.9516C60.7069 57.0522 60.6504 57.1887 60.6504 57.3311C60.6504 57.4734 60.7069 57.6099 60.8076 57.7105C60.9082 57.8111 61.0447 57.8677 61.1871 57.8677H68.4234C68.5657 57.8677 68.7022 57.8111 68.8029 57.7105C68.9035 57.6099 68.9601 57.4734 68.9601 57.3311C68.9601 57.1887 68.9035 57.0522 68.8029 56.9516C68.7022 56.851 68.5657 56.7944 68.4234 56.7944Z" fill="#E6E6E6"/>
<path d="M68.4234 59.7266H61.1871C61.0447 59.7266 60.9082 59.7831 60.8076 59.8837C60.7069 59.9844 60.6504 60.1209 60.6504 60.2632C60.6504 60.4055 60.7069 60.542 60.8076 60.6426C60.9082 60.7433 61.0447 60.7998 61.1871 60.7998H68.4234C68.5657 60.7998 68.7022 60.7433 68.8029 60.6426C68.9035 60.542 68.9601 60.4055 68.9601 60.2632C68.9601 60.1209 68.9035 59.9844 68.8029 59.8837C68.7022 59.7831 68.5657 59.7266 68.4234 59.7266Z" fill="#E6E6E6"/>
<path d="M68.424 62.6592H61.1877C61.0601 62.659 60.9366 62.7043 60.8394 62.7869C60.7422 62.8696 60.6777 62.9841 60.6573 63.1101C60.6369 63.236 60.6621 63.365 60.7282 63.4741C60.7944 63.5832 60.8973 63.6651 61.0184 63.7052C61.073 63.7235 61.1301 63.7327 61.1877 63.7324H68.424C68.5663 63.7324 68.7028 63.6759 68.8035 63.5752C68.9041 63.4746 68.9607 63.3381 68.9607 63.1958C68.9607 63.0535 68.9041 62.917 68.8035 62.8164C68.7028 62.7157 68.5663 62.6592 68.424 62.6592Z" fill="#E6E6E6"/>
<path d="M87.3921 56.7944H80.1558C80.0135 56.7944 79.877 56.851 79.7763 56.9516C79.6757 57.0522 79.6191 57.1887 79.6191 57.3311C79.6191 57.4734 79.6757 57.6099 79.7763 57.7105C79.877 57.8111 80.0135 57.8677 80.1558 57.8677H87.3921C87.5345 57.8677 87.671 57.8111 87.7716 57.7105C87.8723 57.6099 87.9288 57.4734 87.9288 57.3311C87.9288 57.1887 87.8723 57.0522 87.7716 56.9516C87.671 56.851 87.5345 56.7944 87.3921 56.7944Z" fill="#E6E6E6"/>
<path d="M87.3918 59.7266H80.1555C80.0326 59.7263 79.9134 59.7683 79.8178 59.8454C79.7222 59.9225 79.6559 60.0301 79.6301 60.1501C79.6043 60.2702 79.6205 60.3955 79.676 60.5051C79.7315 60.6147 79.823 60.7019 79.9351 60.7521C80.0042 60.7836 80.0794 60.7999 80.1555 60.7998H87.3918C87.5341 60.7998 87.6706 60.7433 87.7713 60.6426C87.8719 60.542 87.9284 60.4055 87.9284 60.2632C87.9284 60.1209 87.8719 59.9844 87.7713 59.8837C87.6706 59.7831 87.5341 59.7266 87.3918 59.7266Z" fill="#E6E6E6"/>
<path d="M87.3921 62.6592H80.1558C80.0135 62.6592 79.877 62.7157 79.7763 62.8164C79.6757 62.917 79.6191 63.0535 79.6191 63.1958C79.6191 63.3381 79.6757 63.4746 79.7763 63.5752C79.877 63.6759 80.0135 63.7324 80.1558 63.7324H87.3921C87.5345 63.7324 87.671 63.6759 87.7716 63.5752C87.8723 63.4746 87.9288 63.3381 87.9288 63.1958C87.9288 63.0535 87.8723 62.917 87.7716 62.8164C87.671 62.7157 87.5345 62.6592 87.3921 62.6592Z" fill="#E6E6E6"/>
<path d="M34.1496 36.1956C34.4183 36.1956 34.6361 35.9778 34.6361 35.7091C34.6361 35.4405 34.4183 35.2227 34.1496 35.2227C33.8809 35.2227 33.6631 35.4405 33.6631 35.7091C33.6631 35.9778 33.8809 36.1956 34.1496 36.1956Z" fill="white"/>
<path d="M35.9963 36.1956C36.265 36.1956 36.4828 35.9778 36.4828 35.7091C36.4828 35.4405 36.265 35.2227 35.9963 35.2227C35.7276 35.2227 35.5098 35.4405 35.5098 35.7091C35.5098 35.9778 35.7276 36.1956 35.9963 36.1956Z" fill="white"/>
<path d="M37.843 36.1956C38.1117 36.1956 38.3295 35.9778 38.3295 35.7091C38.3295 35.4405 38.1117 35.2227 37.843 35.2227C37.5743 35.2227 37.3564 35.4405 37.3564 35.7091C37.3564 35.9778 37.5743 36.1956 37.843 36.1956Z" fill="white"/>
<path d="M47.3963 56.7944H42.2193C42.077 56.7944 41.9405 56.851 41.8398 56.9516C41.7392 57.0522 41.6826 57.1887 41.6826 57.3311C41.6826 57.4734 41.7392 57.6099 41.8398 57.7105C41.9405 57.8111 42.077 57.8677 42.2193 57.8677H47.2885C47.391 57.8257 47.4802 57.7565 47.5465 57.6677C47.6128 57.5789 47.6536 57.4737 47.6647 57.3634C47.6758 57.2532 47.6567 57.142 47.6094 57.0417C47.5621 56.9415 47.4885 56.856 47.3963 56.7944Z" fill="#E11D48"/>
<path d="M45.0051 59.7266H42.2189C42.0961 59.7263 41.9769 59.7683 41.8813 59.8454C41.7857 59.9225 41.7194 60.0301 41.6936 60.1501C41.6678 60.2702 41.684 60.3955 41.7395 60.5051C41.795 60.6147 41.8865 60.7019 41.9985 60.7521H44.5576C44.7196 60.752 44.875 60.6877 44.9896 60.5731C45.1042 60.4585 45.1686 60.3031 45.1686 60.1411C45.1695 59.987 45.1109 59.8385 45.0051 59.7266Z" fill="#E11D48"/>
<path d="M48.9149 62.6592H42.2193C42.077 62.6592 41.9405 62.7157 41.8398 62.8164C41.7392 62.917 41.6826 63.0535 41.6826 63.1958C41.6826 63.3381 41.7392 63.4746 41.8398 63.5752C41.9405 63.6759 42.077 63.7324 42.2193 63.7324H48.9581C49.053 63.6764 49.1309 63.5958 49.1837 63.499C49.2364 63.4022 49.2619 63.293 49.2575 63.1829C49.253 63.0728 49.2188 62.966 49.1585 62.8737C49.0982 62.7815 49.014 62.7074 48.9149 62.6592Z" fill="#E11D48"/>
<path d="M81.9376 56.7944H80.1555C80.0366 56.7943 79.9211 56.8336 79.827 56.9062C79.7329 56.9788 79.6656 57.0806 79.6356 57.1955C79.6055 57.3105 79.6145 57.4322 79.6612 57.5415C79.7078 57.6508 79.7893 57.7416 79.8931 57.7995H81.4719C81.6339 57.7995 81.7893 57.7351 81.9039 57.6205C82.0185 57.5059 82.0829 57.3506 82.0829 57.1885C82.0834 57.044 82.0318 56.9041 81.9376 56.7944Z" fill="#E11D48"/>
<path d="M83.2823 59.7266H80.1555C80.0326 59.7263 79.9134 59.7683 79.8178 59.8454C79.7222 59.9225 79.6559 60.0301 79.6301 60.1501C79.6043 60.2702 79.6205 60.3955 79.676 60.5051C79.7315 60.6147 79.823 60.7019 79.9351 60.7521H82.8348C82.9969 60.752 83.1523 60.6877 83.2669 60.5731C83.3815 60.4585 83.4458 60.3031 83.4459 60.1411C83.4468 59.987 83.3882 59.8385 83.2823 59.7266Z" fill="#E11D48"/>
<path d="M85.4885 62.6592H80.1558C80.0135 62.6592 79.877 62.7157 79.7763 62.8164C79.6757 62.917 79.6191 63.0535 79.6191 63.1958C79.6191 63.3381 79.6757 63.4746 79.7763 63.5752C79.877 63.6759 80.0135 63.7324 80.1558 63.7324H85.5316C85.6265 63.6764 85.7045 63.5958 85.7572 63.499C85.8099 63.4022 85.8354 63.293 85.831 63.1829C85.8266 63.0728 85.7924 62.966 85.7321 62.8737C85.6718 62.7815 85.5876 62.7074 85.4885 62.6592Z" fill="#E11D48"/>
<path d="M67.9202 59.7266H61.1871C61.0447 59.7266 60.9082 59.7831 60.8076 59.8837C60.7069 59.9844 60.6504 60.1209 60.6504 60.2632C60.6504 60.4055 60.7069 60.542 60.8076 60.6426C60.9082 60.7433 61.0447 60.7998 61.1871 60.7998H67.8895C67.9879 60.7504 68.0711 60.6753 68.1303 60.5824C68.1894 60.4896 68.2223 60.3824 68.2255 60.2723C68.2286 60.1623 68.2019 60.0534 68.1481 59.9573C68.0944 59.8612 68.0156 59.7815 67.9202 59.7266Z" fill="#E11D48"/>
<path d="M61.9101 62.6592H61.1877C61.0601 62.659 60.9366 62.7043 60.8394 62.7869C60.7422 62.8696 60.6777 62.9841 60.6573 63.1101C60.6369 63.236 60.6621 63.365 60.7282 63.4741C60.7944 63.5832 60.8973 63.6651 61.0184 63.7052H61.4818C61.6439 63.7051 61.7993 63.6407 61.9139 63.5261C62.0285 63.4116 62.0928 63.2562 62.0929 63.0942C62.0932 63.0131 62.0772 62.9328 62.0458 62.8581C62.0143 62.7833 61.9682 62.7157 61.9101 62.6592Z" fill="#E11D48"/>
<path d="M65.1147 56.7944H61.1871C61.0447 56.7944 60.9082 56.851 60.8076 56.9516C60.7069 57.0522 60.6504 57.1887 60.6504 57.3311C60.6504 57.4734 60.7069 57.6099 60.8076 57.7105C60.9082 57.8111 61.0447 57.8677 61.1871 57.8677H65.0068C65.1094 57.8257 65.1986 57.7565 65.2649 57.6677C65.3311 57.5789 65.372 57.4737 65.3831 57.3634C65.3942 57.2532 65.3751 57.142 65.3278 57.0417C65.2805 56.9415 65.2068 56.856 65.1147 56.7944Z" fill="#E11D48"/>
<path d="M120.887 86.7789H96.2396C96.2094 86.7789 96.1805 86.7669 96.1592 86.7456C96.1379 86.7243 96.126 86.6954 96.126 86.6653C96.126 86.6352 96.1379 86.6063 96.1592 86.585C96.1805 86.5637 96.2094 86.5518 96.2396 86.5518H120.887C120.917 86.5518 120.946 86.5637 120.967 86.585C120.988 86.6063 121 86.6352 121 86.6653C121 86.6954 120.988 86.7243 120.967 86.7456C120.946 86.7669 120.917 86.7789 120.887 86.7789Z" fill="#CCCCCC"/>
</g>
<path d="M36.0378 124H32.9778V115.384H36.0378C38.7738 115.384 40.4298 117.136 40.4298 119.644C40.4298 122.152 38.7138 124 36.0378 124ZM34.8018 116.956V122.428H35.9418C37.6578 122.428 38.5578 121.432 38.5578 119.644C38.5578 117.928 37.6578 116.956 35.9418 116.956H34.8018ZM45.0612 120.76V124H43.2372V120.76L40.1892 115.384H42.1572L44.2092 119.092L46.2972 115.384H48.1332L45.0612 120.76ZM54.7071 124L50.7591 117.988V124H49.0911V115.384H51.0591L54.8151 121.096V115.384H56.4951V124H54.7071ZM64.0269 124L63.3789 122.152H60.0309L59.3709 124H57.5349L60.7749 115.384H62.7669L65.9829 124H64.0269ZM61.7229 117.376L60.5469 120.7H62.8749L61.7229 117.376ZM70.9445 124L68.6885 118.276V124H67.0325V115.384H69.2165L71.7125 121.768L74.2205 115.384H76.4045V124H74.7485V118.228L72.4685 124H70.9445ZM79.9893 124H78.1653V115.384H79.9893V124ZM85.5673 124.18C83.1433 124.18 81.2473 122.212 81.2473 119.68C81.2473 117.16 83.1433 115.204 85.5673 115.204C87.8353 115.204 89.6113 116.716 89.9113 118.924H87.9793C87.7753 117.688 86.8153 116.836 85.5913 116.836C84.1153 116.836 83.1193 118 83.1193 119.68C83.1193 121.372 84.1153 122.548 85.5913 122.548C86.8153 122.548 87.7633 121.684 87.9793 120.448H89.9113C89.6113 122.68 87.8353 124.18 85.5673 124.18ZM100.233 124L98.6247 117.976L97.0167 124H95.1687L92.9607 115.384H94.7367L96.1287 121.228L97.7127 115.384H99.5727L101.109 121.252L102.513 115.384H104.301L102.081 124H100.233ZM111.125 122.416V124H105.329V115.384H111.041V116.968H107.153V118.78H110.681V120.352H107.153V122.416H111.125ZM118.98 121.468C118.98 123.064 117.804 124 115.908 124H112.536V115.384H115.776C117.588 115.384 118.704 116.2 118.704 117.676C118.704 118.468 118.26 119.104 117.492 119.5C118.452 119.836 118.98 120.52 118.98 121.468ZM115.632 116.824H114.192V118.828H115.632C116.52 118.828 116.976 118.444 116.976 117.82C116.976 117.208 116.52 116.824 115.632 116.824ZM115.764 120.28H114.192V122.56H115.764C116.748 122.56 117.264 122.128 117.264 121.396C117.264 120.712 116.748 120.28 115.764 120.28ZM33.3308 140H30.2708V131.384H33.3308C36.0668 131.384 37.7228 133.136 37.7228 135.644C37.7228 138.152 36.0068 140 33.3308 140ZM32.0948 132.956V138.428H33.2348C34.9508 138.428 35.8508 137.432 35.8508 135.644C35.8508 133.928 34.9508 132.956 33.2348 132.956H32.0948ZM44.7856 138.416V140H38.9896V131.384H44.7016V132.968H40.8136V134.78H44.3416V136.352H40.8136V138.416H44.7856ZM53.6126 131.384L50.4926 140H48.5006L45.4046 131.384H47.3726L49.5566 137.876L51.7886 131.384H53.6126ZM60.3949 138.416V140H54.5989V131.384H60.3109V132.968H56.4229V134.78H59.9509V136.352H56.4229V138.416H60.3949ZM67.374 140H61.806V131.384H63.63V138.356H67.374V140ZM71.8114 140.18C69.3274 140.18 67.4074 138.26 67.4074 135.68C67.4074 133.1 69.3274 131.204 71.8114 131.204C74.3074 131.204 76.2394 133.1 76.2394 135.68C76.2394 138.26 74.3074 140.18 71.8114 140.18ZM71.8114 138.548C73.3954 138.548 74.3554 137.264 74.3554 135.68C74.3554 134.096 73.3954 132.836 71.8114 132.836C70.2394 132.836 69.2794 134.096 69.2794 135.68C69.2794 137.264 70.2394 138.548 71.8114 138.548ZM80.6774 137.192H79.3214V140H77.4974V131.384H80.6774C82.7774 131.384 84.0854 132.38 84.0854 134.252C84.0854 136.124 82.7774 137.192 80.6774 137.192ZM80.6654 132.92H79.3214V135.656H80.6654C81.6974 135.656 82.2734 135.116 82.2734 134.264C82.2734 133.412 81.6974 132.92 80.6654 132.92ZM89.2375 140L86.9815 134.276V140H85.3255V131.384H87.5095L90.0055 137.768L92.5135 131.384H94.6975V140H93.0415V134.228L90.7615 140H89.2375ZM102.254 138.416V140H96.4583V131.384H102.17V132.968H98.2823V134.78H101.81V136.352H98.2823V138.416H102.254ZM109.281 140L105.333 133.988V140H103.665V131.384H105.633L109.389 137.096V131.384H111.069V140H109.281ZM116.693 140H114.869V133.028H112.157V131.384H119.417V133.028H116.693V140Z" fill="#94A3B8"/>
<defs>
<clipPath id="clip0_57_144">
<rect width="89" height="52.7791" fill="white" transform="translate(32 34)"/>
</clipPath>
</defs>
</svg>
