<svg width="685" height="1019" viewBox="0 0 685 1019" fill="none" xmlns="http://www.w3.org/2000/svg">
<g filter="url(#filter0_dii_1004_48)">
<path d="M109.113 710.116C109.113 632.137 172.328 568.922 250.307 568.922H391.5V710.116C391.5 788.095 328.286 851.309 250.307 851.309C172.328 851.309 109.113 788.095 109.113 710.116Z" fill="url(#paint0_linear_1004_48)"/>
</g>
<path opacity="0.4" d="M259.135 627.897H233.174C228.473 627.897 214.055 634.192 193.995 659.371C175.501 682.584 177.195 710.537 180.984 724.343C181.516 726.283 183.324 727.535 185.336 727.535H221.856C222.517 727.535 222.965 726.861 222.708 726.251L221.926 724.398C221.88 724.287 221.822 724.178 221.759 724.075C206.704 699.636 238.349 659.786 262.493 636.556C265.676 633.493 263.552 627.897 259.135 627.897Z" fill="url(#paint1_linear_1004_48)"/>
<path opacity="0.35" d="M336.696 600.52C334.444 623.762 334.763 632.867 318.418 648.584L301.824 640.773C317.744 626.237 325.816 623.18 325.7 595.344L336.696 600.52Z" fill="url(#paint2_linear_1004_48)"/>
<g filter="url(#filter1_di_1004_48)">
<path d="M391.5 427.729C391.5 349.75 454.714 286.536 532.693 286.536C610.672 286.536 673.887 349.75 673.887 427.729C673.887 505.708 610.672 568.922 532.693 568.922C454.714 568.922 391.5 505.708 391.5 427.729Z" fill="url(#paint3_linear_1004_48)"/>
</g>
<path opacity="0.4" d="M496.551 363.94C494.554 363.334 492.384 364.114 491.226 365.851C468.813 399.479 472.227 402.063 470.032 440.703C469.907 442.906 471.298 444.919 473.41 445.56L491.296 450.984C494.335 451.905 497.405 449.621 497.401 446.445C497.362 411.241 494.953 407.317 516.816 376.739C518.721 374.073 517.484 370.288 514.348 369.337L496.551 363.94Z" fill="url(#paint4_linear_1004_48)"/>
<path opacity="0.4" d="M555.147 361.392C563.873 350.139 583.029 334.294 603.92 333.781C604.603 333.764 605.289 333.916 605.904 334.214C628.908 345.366 634.923 371.156 639.207 386.827C640.029 389.832 637.904 392.928 634.795 393.128L578.403 396.758C576.454 396.883 574.623 395.793 573.785 394.03C562.862 371.045 563.121 374.269 555.626 367.132C554.023 365.605 553.79 363.142 555.147 361.392Z" fill="url(#paint5_linear_1004_48)"/>
<g filter="url(#filter2_di_1004_48)">
<path d="M391.498 4.14844H532.692C610.671 4.14844 673.885 67.3629 673.885 145.342C673.885 223.321 610.671 286.535 532.692 286.535H391.498V4.14844Z" fill="url(#paint6_linear_1004_48)"/>
<path d="M391.498 4.14844H532.692C610.671 4.14844 673.885 67.3629 673.885 145.342C673.885 223.321 610.671 286.535 532.692 286.535H391.498V4.14844Z" fill="url(#paint7_linear_1004_48)" fill-opacity="0.05"/>
</g>
<path opacity="0.3" d="M542.74 286.196L391.143 286.655V216.028H654.981C624.662 264.658 577.099 285.204 542.74 286.196Z" fill="url(#paint8_linear_1004_48)"/>
<g opacity="0.3" filter="url(#filter3_b_1004_48)">
<path d="M597.574 37.1942C579.153 37.3701 555.885 59.6452 539.419 75.5167C558.357 72.375 578.944 97.6397 586.871 110.665C613.487 94.7291 639.611 99.8989 655.291 102.098C644.52 78.8046 615.995 37.0183 597.574 37.1942Z" fill="url(#paint9_linear_1004_48)"/>
</g>
<g filter="url(#filter4_ii_1004_48)">
<path d="M109.113 145.343C109.113 67.3636 172.328 4.14917 250.307 4.14917H391.5C391.5 122.573 391.5 181.547 391.5 286.536H250.307C172.328 286.536 109.113 223.322 109.113 145.343Z" fill="url(#paint10_linear_1004_48)"/>
</g>
<path opacity="0.3" d="M240.328 286.236L391.856 286.654V222.21H213.709C177.393 222.21 160.05 261.508 193.526 275.588C209.947 282.494 226.247 285.864 240.328 286.236Z" fill="url(#paint11_linear_1004_48)"/>
<path opacity="0.3" d="M181.608 175.158C179.894 174.518 178.698 172.929 178.534 171.107C173.342 113.323 170.881 82.8325 206.797 42.4607C207.992 41.1167 209.872 40.5735 211.603 41.0642L240.264 49.1912C243.729 50.1739 244.875 54.5179 242.41 57.1446C210.222 91.445 199.87 115.755 211.236 178.404C211.902 182.074 208.332 185.144 204.839 183.838L181.608 175.158Z" fill="url(#paint12_linear_1004_48)"/>
<g filter="url(#filter5_ddi_1004_48)">
<path d="M109.113 427.61C109.113 349.631 172.328 286.417 250.307 286.417H391.5C397.564 404.007 397.564 465.836 391.5 568.803H250.307C172.328 568.803 109.113 505.589 109.113 427.61Z" fill="url(#paint13_linear_1004_48)"/>
</g>
<path opacity="0.3" d="M240.328 568.266L391.856 568.684V504.241H213.709C177.393 504.241 160.05 543.538 193.526 557.618C209.947 564.524 226.247 567.895 240.328 568.266Z" fill="url(#paint14_linear_1004_48)"/>
<path opacity="0.4" d="M200.505 338.087C199.4 337.7 198.154 338.103 197.457 339.044C171.711 373.811 171.234 375.493 169.409 416.61C169.356 417.787 170.08 418.889 171.192 419.279L191.565 426.413C193.4 427.055 195.283 425.583 195.109 423.646C191.543 384.139 192.68 381.513 222.054 349.596C223.355 348.183 222.792 345.892 220.98 345.257L200.505 338.087Z" fill="url(#paint15_linear_1004_48)"/>
<defs>
<filter id="filter0_dii_1004_48" x="0.274124" y="518.689" width="500.065" height="500.065" filterUnits="userSpaceOnUse" color-interpolation-filters="sRGB">
<feFlood flood-opacity="0" result="BackgroundImageFix"/>
<feColorMatrix in="SourceAlpha" type="matrix" values="0 0 0 0 0 0 0 0 0 0 0 0 0 0 0 0 0 0 127 0" result="hardAlpha"/>
<feOffset dy="58.6057"/>
<feGaussianBlur stdDeviation="54.4196"/>
<feColorMatrix type="matrix" values="0 0 0 0 0 0 0 0 0 0 0 0 0 0 0 0 0 0 0.25 0"/>
<feBlend mode="normal" in2="BackgroundImageFix" result="effect1_dropShadow_1004_48"/>
<feBlend mode="normal" in="SourceGraphic" in2="effect1_dropShadow_1004_48" result="shape"/>
<feColorMatrix in="SourceAlpha" type="matrix" values="0 0 0 0 0 0 0 0 0 0 0 0 0 0 0 0 0 0 127 0" result="hardAlpha"/>
<feOffset dx="14.268" dy="-23.7799"/>
<feGaussianBlur stdDeviation="17.835"/>
<feComposite in2="hardAlpha" operator="arithmetic" k2="-1" k3="1"/>
<feColorMatrix type="matrix" values="0 0 0 0 0.054902 0 0 0 0 0.717647 0 0 0 0 0.560784 0 0 0 1 0"/>
<feBlend mode="normal" in2="shape" result="effect2_innerShadow_1004_48"/>
<feColorMatrix in="SourceAlpha" type="matrix" values="0 0 0 0 0 0 0 0 0 0 0 0 0 0 0 0 0 0 127 0" result="hardAlpha"/>
<feOffset dx="7.84738" dy="8.08518"/>
<feGaussianBlur stdDeviation="13.5546"/>
<feComposite in2="hardAlpha" operator="arithmetic" k2="-1" k3="1"/>
<feColorMatrix type="matrix" values="0 0 0 0 0.0567361 0 0 0 0 0.716667 0 0 0 0 0.55954 0 0 0 1 0"/>
<feBlend mode="normal" in2="effect2_innerShadow_1004_48" result="effect3_innerShadow_1004_48"/>
</filter>
<filter id="filter1_di_1004_48" x="374.854" y="274.646" width="315.441" height="306.167" filterUnits="userSpaceOnUse" color-interpolation-filters="sRGB">
<feFlood flood-opacity="0" result="BackgroundImageFix"/>
<feColorMatrix in="SourceAlpha" type="matrix" values="0 0 0 0 0 0 0 0 0 0 0 0 0 0 0 0 0 0 127 0" result="hardAlpha"/>
<feOffset dx="-4.75599"/>
<feGaussianBlur stdDeviation="5.94499"/>
<feColorMatrix type="matrix" values="0 0 0 0 0.4 0 0 0 0 0.211765 0 0 0 0 0.34902 0 0 0 0.55 0"/>
<feBlend mode="normal" in2="BackgroundImageFix" result="effect1_dropShadow_1004_48"/>
<feBlend mode="normal" in="SourceGraphic" in2="effect1_dropShadow_1004_48" result="shape"/>
<feColorMatrix in="SourceAlpha" type="matrix" values="0 0 0 0 0 0 0 0 0 0 0 0 0 0 0 0 0 0 127 0" result="hardAlpha"/>
<feOffset dx="16.4082" dy="-7.13398"/>
<feGaussianBlur stdDeviation="13.079"/>
<feComposite in2="hardAlpha" operator="arithmetic" k2="-1" k3="1"/>
<feColorMatrix type="matrix" values="0 0 0 0 0.027451 0 0 0 0 0.333333 0 0 0 0 0.972549 0 0 0 0.7 0"/>
<feBlend mode="normal" in2="shape" result="effect2_innerShadow_1004_48"/>
</filter>
<filter id="filter2_di_1004_48" x="378.419" y="0.926254" width="306.167" height="306.167" filterUnits="userSpaceOnUse" color-interpolation-filters="sRGB">
<feFlood flood-opacity="0" result="BackgroundImageFix"/>
<feColorMatrix in="SourceAlpha" type="matrix" values="0 0 0 0 0 0 0 0 0 0 0 0 0 0 0 0 0 0 127 0" result="hardAlpha"/>
<feOffset dx="-1.189" dy="8.66779"/>
<feGaussianBlur stdDeviation="5.94499"/>
<feColorMatrix type="matrix" values="0 0 0 0 0.4 0 0 0 0 0.211765 0 0 0 0 0.34902 0 0 0 0.55 0"/>
<feBlend mode="normal" in2="BackgroundImageFix" result="effect1_dropShadow_1004_48"/>
<feBlend mode="normal" in="SourceGraphic" in2="effect1_dropShadow_1004_48" result="shape"/>
<feColorMatrix in="SourceAlpha" type="matrix" values="0 0 0 0 0 0 0 0 0 0 0 0 0 0 0 0 0 0 127 0" result="hardAlpha"/>
<feOffset dx="-9.51198" dy="9.51198"/>
<feGaussianBlur stdDeviation="10.701"/>
<feComposite in2="hardAlpha" operator="arithmetic" k2="-1" k3="1"/>
<feColorMatrix type="matrix" values="0 0 0 0 1 0 0 0 0 0.8 0 0 0 0 0.811765 0 0 0 1 0"/>
<feBlend mode="normal" in2="shape" result="effect2_innerShadow_1004_48"/>
</filter>
<filter id="filter3_b_1004_48" x="525.151" y="22.9256" width="144.407" height="102.007" filterUnits="userSpaceOnUse" color-interpolation-filters="sRGB">
<feFlood flood-opacity="0" result="BackgroundImageFix"/>
<feGaussianBlur in="BackgroundImageFix" stdDeviation="7.13398"/>
<feComposite in2="SourceAlpha" operator="in" result="effect1_backgroundBlur_1004_48"/>
<feBlend mode="normal" in="SourceGraphic" in2="effect1_backgroundBlur_1004_48" result="shape"/>
</filter>
<filter id="filter4_ii_1004_48" x="109.113" y="4.14917" width="306.167" height="283.338" filterUnits="userSpaceOnUse" color-interpolation-filters="sRGB">
<feFlood flood-opacity="0" result="BackgroundImageFix"/>
<feBlend mode="normal" in="SourceGraphic" in2="BackgroundImageFix" result="shape"/>
<feColorMatrix in="SourceAlpha" type="matrix" values="0 0 0 0 0 0 0 0 0 0 0 0 0 0 0 0 0 0 127 0" result="hardAlpha"/>
<feOffset dx="23.7799" dy="0.951198"/>
<feGaussianBlur stdDeviation="15.9326"/>
<feComposite in2="hardAlpha" operator="arithmetic" k2="-1" k3="1"/>
<feColorMatrix type="matrix" values="0 0 0 0 0.954167 0 0 0 0 0.440652 0 0 0 0 0.151076 0 0 0 1 0"/>
<feBlend mode="normal" in2="shape" result="effect1_innerShadow_1004_48"/>
<feColorMatrix in="SourceAlpha" type="matrix" values="0 0 0 0 0 0 0 0 0 0 0 0 0 0 0 0 0 0 127 0" result="hardAlpha"/>
<feOffset dy="11.89"/>
<feGaussianBlur stdDeviation="0.475599"/>
<feComposite in2="hardAlpha" operator="arithmetic" k2="-1" k3="1"/>
<feColorMatrix type="matrix" values="0 0 0 0 1 0 0 0 0 0.623446 0 0 0 0 0.225 0 0 0 0.5 0"/>
<feBlend mode="normal" in2="effect1_innerShadow_1004_48" result="effect2_innerShadow_1004_48"/>
</filter>
<filter id="filter5_ddi_1004_48" x="92.4673" y="265.015" width="320.227" height="324.346" filterUnits="userSpaceOnUse" color-interpolation-filters="sRGB">
<feFlood flood-opacity="0" result="BackgroundImageFix"/>
<feColorMatrix in="SourceAlpha" type="matrix" values="0 0 0 0 0 0 0 0 0 0 0 0 0 0 0 0 0 0 127 0" result="hardAlpha"/>
<feOffset dy="-4.75599"/>
<feGaussianBlur stdDeviation="8.32298"/>
<feColorMatrix type="matrix" values="0 0 0 0 0 0 0 0 0 0 0 0 0 0 0 0 0 0 0.25 0"/>
<feBlend mode="normal" in2="BackgroundImageFix" result="effect1_dropShadow_1004_48"/>
<feColorMatrix in="SourceAlpha" type="matrix" values="0 0 0 0 0 0 0 0 0 0 0 0 0 0 0 0 0 0 127 0" result="hardAlpha"/>
<feOffset dy="8.66779"/>
<feGaussianBlur stdDeviation="5.94499"/>
<feColorMatrix type="matrix" values="0 0 0 0 0.4 0 0 0 0 0.211765 0 0 0 0 0.34902 0 0 0 0.55 0"/>
<feBlend mode="normal" in2="effect1_dropShadow_1004_48" result="effect2_dropShadow_1004_48"/>
<feBlend mode="normal" in="SourceGraphic" in2="effect2_dropShadow_1004_48" result="shape"/>
<feColorMatrix in="SourceAlpha" type="matrix" values="0 0 0 0 0 0 0 0 0 0 0 0 0 0 0 0 0 0 127 0" result="hardAlpha"/>
<feOffset dx="11.6522" dy="-4.75599"/>
<feGaussianBlur stdDeviation="16.646"/>
<feComposite in2="hardAlpha" operator="arithmetic" k2="-1" k3="1"/>
<feColorMatrix type="matrix" values="0 0 0 0 0.329883 0 0 0 0 0.027451 0 0 0 0 0.972549 0 0 0 0.5 0"/>
<feBlend mode="normal" in2="shape" result="effect3_innerShadow_1004_48"/>
</filter>
<linearGradient id="paint0_linear_1004_48" x1="352.939" y1="568.922" x2="156.598" y2="819.418" gradientUnits="userSpaceOnUse">
<stop stop-color="#3CE4B8"/>
<stop offset="0.453874" stop-color="#0CE7A2"/>
<stop offset="1" stop-color="#15CA82"/>
</linearGradient>
<linearGradient id="paint1_linear_1004_48" x1="245.491" y1="632.772" x2="214.525" y2="731.113" gradientUnits="userSpaceOnUse">
<stop stop-color="white" stop-opacity="0.8"/>
<stop offset="0.0001" stop-color="white" stop-opacity="0.8"/>
<stop offset="1" stop-color="white" stop-opacity="0.4"/>
</linearGradient>
<linearGradient id="paint2_linear_1004_48" x1="303.841" y1="655.077" x2="299.405" y2="597.256" gradientUnits="userSpaceOnUse">
<stop stop-color="white"/>
<stop offset="1" stop-color="white" stop-opacity="0.8"/>
</linearGradient>
<linearGradient id="paint3_linear_1004_48" x1="620.976" y1="553.465" x2="461.651" y2="306.392" gradientUnits="userSpaceOnUse">
<stop stop-color="#10E0FC"/>
<stop offset="0.520833" stop-color="#40F2FF"/>
<stop offset="1" stop-color="#10E0FC"/>
</linearGradient>
<linearGradient id="paint4_linear_1004_48" x1="473.458" y1="464.039" x2="523.423" y2="379.657" gradientUnits="userSpaceOnUse">
<stop stop-color="white" stop-opacity="0.3"/>
<stop offset="1" stop-color="white"/>
</linearGradient>
<linearGradient id="paint5_linear_1004_48" x1="636.909" y1="339.921" x2="556.997" y2="330.375" gradientUnits="userSpaceOnUse">
<stop stop-color="white"/>
<stop offset="1" stop-color="white" stop-opacity="0.3"/>
</linearGradient>
<linearGradient id="paint6_linear_1004_48" x1="532.632" y1="4.14844" x2="532.692" y2="286.535" gradientUnits="userSpaceOnUse">
<stop stop-color="#FFC6C8"/>
<stop offset="0.0001" stop-color="#FFB9BC"/>
<stop offset="0.508975" stop-color="#FFAAAD"/>
<stop offset="1" stop-color="#FF98A4"/>
</linearGradient>
<linearGradient id="paint7_linear_1004_48" x1="520.157" y1="4.14844" x2="495.47" y2="284.518" gradientUnits="userSpaceOnUse">
<stop stop-color="#BE6B9B" stop-opacity="0"/>
<stop offset="1" stop-color="#BE6B9B"/>
</linearGradient>
<linearGradient id="paint8_linear_1004_48" x1="511.35" y1="216.028" x2="509.686" y2="286.655" gradientUnits="userSpaceOnUse">
<stop stop-color="#BE6B9B" stop-opacity="0"/>
<stop offset="1" stop-color="#BE6B9B"/>
</linearGradient>
<linearGradient id="paint9_linear_1004_48" x1="639.531" y1="62.5876" x2="543.665" y2="47.5822" gradientUnits="userSpaceOnUse">
<stop stop-color="white"/>
<stop offset="1" stop-color="white"/>
</linearGradient>
<linearGradient id="paint10_linear_1004_48" x1="288.533" y1="4.14894" x2="284.139" y2="286.586" gradientUnits="userSpaceOnUse">
<stop stop-color="#FE8906"/>
<stop offset="0.418177" stop-color="#FE8103"/>
<stop offset="0.760417" stop-color="#FB6D0E"/>
<stop offset="1" stop-color="#E03A1A"/>
</linearGradient>
<linearGradient id="paint11_linear_1004_48" x1="271.703" y1="222.21" x2="273.09" y2="286.66" gradientUnits="userSpaceOnUse">
<stop stop-color="#BD2D17" stop-opacity="0"/>
<stop offset="1" stop-color="#D5321A"/>
</linearGradient>
<linearGradient id="paint12_linear_1004_48" x1="241.489" y1="59.1997" x2="241.489" y2="190.584" gradientUnits="userSpaceOnUse">
<stop stop-color="white"/>
<stop offset="1" stop-color="white" stop-opacity="0.1"/>
</linearGradient>
<linearGradient id="paint13_linear_1004_48" x1="252.581" y1="286.417" x2="252.581" y2="568.803" gradientUnits="userSpaceOnUse">
<stop stop-color="#BF6FFB"/>
<stop offset="0.505208" stop-color="#B576FD"/>
<stop offset="1" stop-color="#9865F6"/>
</linearGradient>
<linearGradient id="paint14_linear_1004_48" x1="273.367" y1="504.241" x2="273.09" y2="568.683" gradientUnits="userSpaceOnUse">
<stop stop-color="#7D5BEF" stop-opacity="0"/>
<stop offset="1" stop-color="#0B0B38"/>
</linearGradient>
<linearGradient id="paint15_linear_1004_48" x1="180.081" y1="422.2" x2="223.138" y2="343.408" gradientUnits="userSpaceOnUse">
<stop stop-color="white" stop-opacity="0.1"/>
<stop offset="1" stop-color="white" stop-opacity="0.6"/>
</linearGradient>
</defs>
</svg>
