<svg width="150" height="154" viewBox="0 0 150 154" fill="none" xmlns="http://www.w3.org/2000/svg">
<rect width="150" height="153.783" fill="#1A202C"/>
<g clip-path="url(#clip0_57_8)">
<path d="M74.4956 79.0841V78.8705C74.9218 78.8705 75.3543 78.8616 75.7816 78.8446L75.7902 79.0583C75.36 79.0752 74.9246 79.084 74.4956 79.0841ZM73.2014 79.0594C72.7727 79.0428 72.3381 79.0167 71.9092 78.9835L71.926 78.7705C72.3522 78.8041 72.7841 78.8295 73.2098 78.846L73.2014 79.0594ZM77.0822 78.9807L77.0652 78.7677C77.4906 78.7339 77.921 78.6907 78.3446 78.6396L78.3704 78.8517C77.9439 78.9031 77.5106 78.9463 77.0822 78.9805V78.9807ZM70.621 78.8562C70.1936 78.8051 69.7623 78.745 69.3389 78.6773L69.3729 78.4663C69.7934 78.5336 70.2218 78.5933 70.6464 78.644L70.621 78.8562ZM79.6521 78.6715L79.6179 78.4606C80.0382 78.3928 80.4639 78.3154 80.8825 78.2305L80.9254 78.4397C80.5037 78.5252 80.0751 78.6033 79.6519 78.6715H79.6521ZM68.0652 78.4472C67.6433 78.3618 67.2185 78.2672 66.8017 78.1657L66.8527 77.9581C67.2665 78.0592 67.6887 78.1533 68.1076 78.2378L68.0652 78.4472ZM82.1888 78.157L82.1374 77.9497C82.5525 77.8479 82.9704 77.7361 83.3796 77.6186L83.4393 77.8239C83.0272 77.9428 82.6064 78.055 82.1888 78.1575V78.157ZM65.5507 77.8334C65.1375 77.7145 64.7214 77.5858 64.3144 77.4508L64.3821 77.2479C64.7865 77.382 65.1996 77.5099 65.6102 77.628L65.5507 77.8334ZM84.6751 77.4394L84.6072 77.2365C85.0118 77.1017 85.4192 76.9568 85.8183 76.8057L85.8945 77.0053C85.4927 77.1575 85.0824 77.3034 84.675 77.4391L84.6751 77.4394ZM63.0912 77.0173C62.6891 76.8654 62.284 76.7032 61.8873 76.5346L61.9713 76.3381C62.3654 76.5054 62.7678 76.6666 63.1673 76.8173L63.0912 77.0173ZM87.0919 76.5247L87.0078 76.3282C87.3996 76.1613 87.7931 75.9846 88.1771 75.8026L88.2691 75.9956C87.8825 76.1787 87.4868 76.3568 87.0919 76.5247ZM60.7044 76.0036C60.315 75.8193 59.9247 75.625 59.5442 75.4257L59.644 75.2366C60.0219 75.4345 60.4096 75.6276 60.7962 75.8106L60.7044 76.0036ZM89.4248 75.4188L89.3249 75.2298C89.7024 75.0318 90.0806 74.8239 90.4487 74.6115L90.5559 74.7962C90.1852 75.0099 89.8045 75.2194 89.4245 75.4187L89.4248 75.4188ZM58.4087 74.8016C58.0352 74.5864 57.6621 74.3613 57.2998 74.1325L57.4145 73.9522C57.7742 74.1793 58.1448 74.403 58.5159 74.6168L58.4087 74.8016ZM91.6618 74.1287L91.5471 73.9483C91.9064 73.7215 92.2668 73.4837 92.6181 73.2417L92.7399 73.4174C92.3863 73.6611 92.0235 73.9004 91.6618 74.1287ZM56.219 73.4197C55.8646 73.1757 55.511 72.9216 55.1682 72.6645L55.2968 72.4936C55.6374 72.749 55.9886 73.0014 56.3407 73.2438L56.219 73.4197ZM93.7893 72.6633L93.6607 72.4924C94.0005 72.2377 94.3408 71.9718 94.6721 71.7021L94.8078 71.8675C94.4743 72.139 94.1317 72.4067 93.7896 72.663L93.7893 72.6633ZM54.1492 71.868C53.8164 71.5971 53.4847 71.3156 53.1631 71.0315L53.3053 70.8713C53.6249 71.1535 53.9545 71.4331 54.2851 71.7022L54.1492 71.868ZM95.7928 71.0321L95.6507 70.8718C95.97 70.5898 96.288 70.2974 96.5957 70.003L96.7441 70.1571C96.4344 70.4534 96.1143 70.7476 95.7928 71.0316V71.0321ZM52.2111 70.1562C51.9019 69.8603 51.5939 69.5533 51.2955 69.2442L51.45 69.0961C51.7464 69.4033 52.0524 69.7081 52.3595 70.002L52.2111 70.1562ZM97.6598 69.2451L97.5054 69.0969C97.8008 68.7907 98.0948 68.4739 98.3781 68.1553L98.5388 68.2972C98.2533 68.6176 97.9577 68.9367 97.66 69.2451H97.6598ZM50.4171 68.2967C50.1313 67.9757 49.8491 67.6452 49.5778 67.315L49.7438 67.1797C50.0131 67.508 50.2935 67.8362 50.5774 68.1549L50.4171 68.2967ZM99.378 67.3147L99.212 67.1795C99.4828 66.8495 99.7501 66.5101 100.007 66.1708L100.178 66.299C99.92 66.6408 99.6508 66.9826 99.3782 67.3144L99.378 67.3147ZM48.7791 66.3009C48.5208 65.9592 48.2659 65.6077 48.0218 65.256L48.1981 65.1344C48.4406 65.4838 48.6937 65.8329 48.9503 66.1725L48.7791 66.3009ZM100.936 65.2524L100.76 65.131C101.003 64.7801 101.242 64.4203 101.471 64.0614L101.652 64.1757C101.422 64.5374 101.181 64.8995 100.936 65.2527L100.936 65.2524ZM47.3075 64.1822C47.0779 63.8213 46.8523 63.4507 46.6372 63.0807L46.8226 62.9739C47.0363 63.3414 47.2604 63.7096 47.4885 64.068L47.3075 64.1822ZM102.324 63.0714L102.139 62.9646C102.353 62.5951 102.563 62.217 102.762 61.8409L102.951 61.9404C102.752 62.319 102.541 62.6995 102.325 63.0716L102.324 63.0714ZM46.012 61.9532C45.8123 61.5753 45.6175 61.188 45.4333 60.8021L45.6268 60.7103C45.81 61.0937 46.0035 61.4783 46.2018 61.8537L46.012 61.9532ZM103.531 60.7845L103.338 60.6927C103.521 60.3082 103.7 59.9142 103.867 59.522L104.065 59.6059C103.896 60.0002 103.716 60.3972 103.531 60.7845ZM44.901 59.6294C44.7322 59.2359 44.5695 58.8346 44.4176 58.4363L44.6179 58.3604C44.7689 58.7556 44.9305 59.1546 45.0981 59.5453L44.901 59.6294ZM104.55 58.4061L104.349 58.3304C104.501 57.9308 104.647 57.5234 104.782 57.1199L104.986 57.1875C104.849 57.5939 104.703 58.0038 104.55 58.4061ZM43.9819 57.2213C43.8455 56.8154 43.7156 56.4008 43.5961 55.9898L43.802 55.9303C43.9208 56.3385 44.0499 56.7502 44.1854 57.1535L43.9819 57.2213ZM105.37 55.9554L105.164 55.8961C105.282 55.4886 105.394 55.072 105.496 54.658L105.704 54.709C105.601 55.1258 105.489 55.5452 105.37 55.9554ZM43.2602 54.7437C43.1572 54.3277 43.0615 53.9044 42.9755 53.4852L43.1856 53.4425C43.2713 53.859 43.366 54.2795 43.4682 54.6926L43.2602 54.7437ZM105.987 53.4503L105.777 53.4075C105.862 52.991 105.939 52.5673 106.007 52.1472L106.219 52.1812C106.15 52.6045 106.072 53.0315 105.987 53.4505V53.4503ZM42.7419 52.2161C42.6732 51.7944 42.6121 51.3646 42.5602 50.9388L42.773 50.9132C42.8244 51.3362 42.8852 51.763 42.9535 52.1819L42.7419 52.2161ZM106.399 50.9031L106.186 50.8777C106.237 50.4549 106.28 50.0258 106.314 49.6026L106.527 49.6195C106.493 50.0456 106.45 50.4775 106.399 50.9031ZM42.4311 49.6554C42.3965 49.2287 42.3701 48.7955 42.3527 48.3675L42.5671 48.3589C42.5845 48.7839 42.6106 49.2143 42.645 49.6382L42.4311 49.6554ZM106.605 48.332L106.391 48.3235C106.407 47.8979 106.416 47.4668 106.416 47.0418V46.971H106.63V47.0413C106.63 47.4695 106.622 47.9033 106.605 48.332H106.605ZM42.5395 47.0776H42.3252V47.0417C42.3252 46.6252 42.3333 46.203 42.3494 45.7879L42.5638 45.7962C42.5479 46.2085 42.5398 46.6278 42.5398 47.0422L42.5395 47.0776ZM106.387 45.6904C106.37 45.2663 106.343 44.836 106.308 44.4112L106.522 44.3938C106.557 44.821 106.584 45.2545 106.602 45.6815L106.387 45.6904ZM42.6387 44.5168L42.425 44.5002C42.4586 44.0729 42.5015 43.6405 42.5522 43.2162L42.765 43.2414C42.7147 43.6629 42.6722 44.0919 42.6387 44.5168ZM106.178 43.1363C106.126 42.7151 106.065 42.2883 105.996 41.8678L106.207 41.8333C106.277 42.2566 106.338 42.6863 106.39 43.1105L106.178 43.1363ZM42.9425 41.9721L42.7309 41.9384C42.7988 41.5154 42.8763 41.0883 42.9613 40.6689L43.1713 40.7116C43.0869 41.1282 43.0099 41.5525 42.9424 41.9727L42.9425 41.9721ZM105.763 40.6073C105.677 40.1899 105.581 39.7694 105.479 39.3576L105.687 39.3063C105.79 39.721 105.886 40.1444 105.973 40.5645L105.763 40.6073ZM43.4513 39.4603L43.243 39.4095C43.345 38.9937 43.4574 38.5743 43.5758 38.1626L43.7818 38.2216C43.6636 38.6309 43.5526 39.0476 43.4513 39.4605L43.4513 39.4603ZM105.144 38.1201C105.025 37.712 104.895 37.3006 104.759 36.8972L104.963 36.8292C105.1 37.2351 105.23 37.6495 105.35 38.0602L105.144 38.1201ZM44.1625 36.9979L43.9589 36.9305C44.0946 36.5238 44.2406 36.1137 44.3932 35.7115L44.5937 35.787C44.4423 36.1864 44.2972 36.5939 44.1625 36.9979ZM104.325 35.6909C104.172 35.2936 104.01 34.8951 103.843 34.5065L104.04 34.4223C104.208 34.8135 104.372 35.2147 104.525 35.6147L104.325 35.6909ZM45.0742 34.5948L44.8769 34.5112C45.0454 34.1165 45.2244 33.7197 45.4088 33.332L45.6025 33.4234C45.4193 33.8087 45.2415 34.2028 45.0742 34.5948ZM103.314 33.3422C103.131 32.9593 102.937 32.5747 102.738 32.1993L102.927 32.0996C103.128 32.4774 103.323 32.8645 103.507 33.25L103.314 33.3422ZM46.1779 32.2746L45.9881 32.1754C46.1879 31.7959 46.3984 31.415 46.6136 31.0432L46.7992 31.1501C46.5855 31.5195 46.3764 31.8978 46.178 32.2747L46.1779 32.2746ZM102.115 31.0804C101.901 30.7127 101.677 30.3448 101.448 29.9869L101.629 29.8723C101.859 30.2327 102.085 30.603 102.301 30.9732L102.115 31.0804ZM47.4654 30.0523L47.2843 29.9381C47.5143 29.5758 47.7547 29.2133 47.9989 28.8608L48.1754 28.9821C47.9328 29.3324 47.694 29.6925 47.4655 30.0524L47.4654 30.0523ZM100.737 28.9208C100.494 28.5716 100.241 28.2226 99.9841 27.8837L100.156 27.755C100.414 28.0968 100.669 28.4475 100.914 28.7991L100.737 28.9208ZM48.9276 27.9414L48.7561 27.8132C49.0144 27.4706 49.2831 27.1287 49.5548 26.7968L49.7209 26.9319C49.4511 27.2614 49.1841 27.6012 48.9278 27.9415L48.9276 27.9414ZM99.1893 26.8771C98.919 26.5484 98.638 26.2207 98.3546 25.903L98.5147 25.761C98.8002 26.0809 99.0828 26.4108 99.3551 26.7418L99.1893 26.8771ZM50.555 25.9549L50.3942 25.8133C50.6788 25.4929 50.974 25.1737 51.2716 24.8644L51.4263 25.0123C51.1306 25.3195 50.8368 25.6367 50.5546 25.9549H50.555ZM97.482 24.9624C97.1854 24.6557 96.879 24.3513 96.571 24.0574L96.7194 23.9032C97.0291 24.1991 97.3375 24.5055 97.636 24.8143L97.482 24.9624ZM52.3352 24.1053L52.1866 23.9514C52.4959 23.6548 52.8157 23.3602 53.137 23.0756L53.2794 23.2358C52.9596 23.5181 52.642 23.8107 52.3347 24.1054L52.3352 24.1053ZM95.625 23.1892C95.3048 22.907 94.9748 22.6278 94.6443 22.3593L94.7798 22.1938C95.1121 22.464 95.4443 22.7451 95.767 23.0292L95.625 23.1892ZM54.2569 22.4042L54.121 22.2389C54.4532 21.9674 54.7962 21.6995 55.1382 21.4423L55.2668 21.6132C54.9271 21.8683 54.5872 22.1346 54.2569 22.4042ZM93.6301 21.5693C93.2883 21.3135 92.9366 21.0615 92.5855 20.8201L92.7072 20.6443C93.0608 20.8873 93.4145 21.141 93.7589 21.3985L93.6301 21.5693ZM56.3085 20.8624L56.1864 20.6868C56.54 20.4428 56.9022 20.2031 57.2638 19.9742L57.3787 20.1545C57.0195 20.3818 56.6594 20.6199 56.3084 20.8623L56.3085 20.8624ZM91.5112 20.1132C91.1498 19.8857 90.779 19.6625 90.4089 19.4499L90.5161 19.2649C90.8885 19.4785 91.2618 19.7036 91.6258 19.9326L91.5112 20.1132ZM58.4764 19.4905L58.3692 19.3057C58.7398 19.0916 59.1203 18.8817 59.4999 18.6821L59.6 18.871C59.2224 19.0692 58.8445 19.2776 58.4764 19.4905ZM89.2805 18.8314C88.9019 18.6337 88.514 18.441 88.1275 18.2587L88.2191 18.0656C88.6083 18.2492 88.9988 18.4431 89.3798 18.6423L89.2805 18.8314ZM60.7464 18.2973L60.6542 18.1044C61.0406 17.9208 61.4365 17.7424 61.8308 17.574L61.9152 17.7704C61.5236 17.9375 61.1303 18.1148 60.7464 18.2973ZM86.9515 17.7328C86.5576 17.566 86.155 17.4053 85.755 17.2547L85.8308 17.0549C86.2335 17.2063 86.6388 17.3683 87.0353 17.5361L86.9515 17.7328ZM63.1042 17.2911L63.0279 17.0915C63.4289 16.9391 63.839 16.7924 64.2467 16.6565L64.3148 16.8594C63.9098 16.9943 63.5025 17.1398 63.1042 17.2911ZM84.5401 16.8254C84.1351 16.6916 83.7217 16.5642 83.3116 16.4468L83.3708 16.2415C83.7838 16.3597 84.1997 16.4879 84.6075 16.6227L84.5401 16.8254ZM65.5421 16.4764L65.4822 16.2713C65.8944 16.1518 66.315 16.039 66.7324 15.9362L66.7838 16.1435C66.3693 16.2455 65.9515 16.3575 65.5421 16.4764ZM82.0684 16.1184C81.6546 16.0178 81.2325 15.9242 80.8132 15.8401L80.8556 15.6307C81.2775 15.7153 81.7022 15.8096 82.1194 15.9108L82.0684 16.1184ZM68.0382 15.8612L67.9953 15.6519C68.4155 15.5665 68.8439 15.4878 69.2686 15.4188L69.3031 15.6296C68.881 15.6979 68.4555 15.7758 68.0381 15.861L68.0382 15.8612ZM79.5477 15.6128C79.1262 15.5458 78.6976 15.4864 78.2739 15.4365L78.2991 15.2244C78.7256 15.2747 79.1565 15.3344 79.5813 15.4019L79.5477 15.6128ZM70.576 15.449L70.55 15.237C70.9765 15.1853 71.4097 15.1409 71.838 15.1068L71.8553 15.3197C71.4298 15.3539 70.9994 15.3976 70.576 15.4488V15.449ZM76.9943 15.3112C76.5693 15.2782 76.1369 15.2533 75.7104 15.2372L75.7186 15.0236C76.1483 15.0398 76.583 15.0649 77.0109 15.0984L76.9943 15.3112ZM73.139 15.2413L73.1302 15.0277C73.5589 15.01 73.9942 15.0007 74.4244 15V15.2136C73.9973 15.2144 73.5647 15.2237 73.1388 15.2411L73.139 15.2413Z" fill="#CCCCCC"/>
<path d="M94.4411 86.9115H54.571C52.5783 86.9093 50.9553 85.3872 50.9531 83.5184V29.3409C50.9554 27.4719 52.5784 25.9498 54.571 25.9478H94.441C96.4338 25.9498 98.0568 27.4719 98.059 29.3409V83.5184C98.0567 85.3873 96.4337 86.9094 94.4411 86.9115Z" fill="#3F3D56"/>
<path d="M94.8368 83.6506H54.1746C53.5301 83.6499 53.0052 83.1855 53.0044 82.6154V30.6031C53.0052 30.0329 53.5301 29.5685 54.1746 29.5679H94.8368C95.4813 29.5685 96.0062 30.0329 96.007 30.6031V82.6153C96.0062 83.1855 95.4813 83.6499 94.8368 83.6506Z" fill="white"/>
<path d="M61.2676 50.587C61.2707 50.5502 61.2876 50.516 61.3149 50.491C61.3422 50.466 61.3779 50.4521 61.4149 50.4521C61.452 50.4521 61.4877 50.466 61.515 50.491C61.5423 50.516 61.5592 50.5502 61.5623 50.587V51.8965H61.2676V50.587Z" fill="white"/>
<path d="M61.8494 52.6161V50.5867C61.8494 50.4724 61.8038 50.3628 61.7227 50.282C61.6416 50.2012 61.5316 50.1558 61.4169 50.1558C61.3022 50.1558 61.1922 50.2012 61.1111 50.282C61.03 50.3628 60.9845 50.4724 60.9845 50.5867V52.6161C60.8139 52.7114 60.6798 52.8604 60.6032 53.0398C60.5267 53.2192 60.512 53.4188 60.5614 53.6073C60.6109 53.7959 60.7217 53.9629 60.8764 54.082C61.0312 54.2012 61.2213 54.2658 61.4169 54.2658C61.6125 54.2658 61.8026 54.2012 61.9574 54.082C62.1122 53.9629 62.223 53.7959 62.2724 53.6073C62.3218 53.4188 62.3071 53.2192 62.2306 53.0398C62.154 52.8604 62.02 52.7114 61.8494 52.6161Z" fill="#E11D48"/>
<path d="M74.5057 46.187C73.6616 46.1874 72.8257 46.0221 72.0457 45.7006C71.2658 45.379 70.557 44.9075 69.9598 44.313C69.3627 43.7184 68.8889 43.0125 68.5656 42.2355C68.2422 41.4585 68.0756 40.6256 68.0752 39.7844V39.7786C68.0752 39.7652 68.0752 39.7511 68.0759 39.7376C68.0841 38.4719 68.4681 37.237 69.1796 36.1885C69.8911 35.1401 70.8982 34.325 72.0739 33.8463C73.2496 33.3675 74.5413 33.2464 75.7859 33.4983C77.0306 33.7502 78.1726 34.3637 79.0678 35.2615C79.963 36.1594 80.5714 37.3013 80.8162 38.5433C81.061 39.7853 80.9313 41.0717 80.4434 42.2403C79.9555 43.4089 79.1313 44.4073 78.0747 45.1097C77.0181 45.8121 75.7765 46.1869 74.5064 46.1869H74.5057V46.187ZM74.5057 33.505C72.8438 33.5088 71.2504 34.1659 70.0719 35.3337C68.8934 36.5015 68.2249 38.0856 68.2117 39.7418C68.211 39.7561 68.211 39.7679 68.211 39.7785C68.2109 41.0194 68.58 42.2324 69.2717 43.2642C69.9634 44.296 70.9466 45.1002 72.0969 45.5752C73.2473 46.0501 74.5131 46.1744 75.7343 45.9324C76.9556 45.6904 78.0774 45.093 78.9579 44.2156C79.8384 43.3382 80.4381 42.2204 80.681 41.0034C80.924 39.7864 80.7995 38.5249 80.323 37.3784C79.8466 36.232 79.0398 35.2521 78.0045 34.5626C76.9693 33.8731 75.7521 33.5051 74.507 33.505H74.5057Z" fill="#E4E4E4"/>
<path opacity="0.999" d="M89.4143 52.0679H65.1846V52.353H89.4143V52.0679Z" fill="#E6E6E6"/>
<path d="M73.1271 52.8868C73.5018 52.8868 73.8056 52.5841 73.8056 52.2108C73.8056 51.8374 73.5018 51.5347 73.1271 51.5347C72.7525 51.5347 72.4487 51.8374 72.4487 52.2108C72.4487 52.5841 72.7525 52.8868 73.1271 52.8868Z" fill="#E11D48"/>
<path d="M73.1273 52.0679H65.1846V52.353H73.1273V52.0679Z" fill="#E11D48"/>
<path d="M89.4143 60.0786H65.1846V60.3638H89.4143V60.0786Z" fill="#E6E6E6"/>
<path d="M79.1291 60.8981C79.5038 60.8981 79.8075 60.5954 79.8075 60.222C79.8075 59.8486 79.5038 59.5459 79.1291 59.5459C78.7544 59.5459 78.4507 59.8486 78.4507 60.222C78.4507 60.5954 78.7544 60.8981 79.1291 60.8981Z" fill="#E11D48"/>
<path d="M79.1945 60.0786H65.1846V60.3638H79.1945V60.0786Z" fill="#E11D48"/>
<path d="M89.4143 67.5566H65.1846V67.8418H89.4143V67.5566Z" fill="#E6E6E6"/>
<path d="M85.7736 68.3751C86.1483 68.3751 86.452 68.0724 86.452 67.699C86.452 67.3256 86.1483 67.0229 85.7736 67.0229C85.3989 67.0229 85.0952 67.3256 85.0952 67.699C85.0952 68.0724 85.3989 68.3751 85.7736 68.3751Z" fill="#E11D48"/>
<path d="M85.8393 67.5566H65.1846V67.8418H85.8393V67.5566Z" fill="#E11D48"/>
<path d="M89.4143 74.9937H65.1846V75.2788H89.4143V74.9937Z" fill="#E6E6E6"/>
<path d="M73.1271 75.8117C73.5018 75.8117 73.8056 75.509 73.8056 75.1356C73.8056 74.7622 73.5018 74.4595 73.1271 74.4595C72.7525 74.4595 72.4487 74.7622 72.4487 75.1356C72.4487 75.509 72.7525 75.8117 73.1271 75.8117Z" fill="#E11D48"/>
<path d="M73.1273 74.9937H65.1846V75.2788H73.1273V74.9937Z" fill="#E11D48"/>
<path d="M113.389 70.4813C113.29 70.552 113.177 70.6001 113.057 70.622C112.938 70.6439 112.815 70.6392 112.697 70.6081C112.593 70.5804 112.495 70.5325 112.409 70.4672C112.323 70.4018 112.251 70.3202 112.197 70.227C112.142 70.1338 112.107 70.031 112.093 69.9242C112.079 69.8175 112.085 69.709 112.113 69.6049C112.116 69.5941 112.119 69.5834 112.122 69.5727C112.135 69.5342 112.15 69.4966 112.168 69.4604L110.55 62.2225C110.526 62.1396 110.518 62.0528 110.527 61.967C110.537 61.8811 110.563 61.798 110.605 61.7223C110.646 61.6466 110.702 61.5798 110.77 61.5258C110.838 61.4717 110.915 61.4315 110.998 61.4074C111.082 61.3833 111.169 61.3758 111.255 61.3853C111.341 61.3949 111.424 61.4212 111.5 61.4629C111.576 61.5045 111.643 61.5607 111.697 61.6282C111.751 61.6957 111.791 61.7731 111.815 61.856L111.817 61.8603L113.344 69.1204C113.458 69.1915 113.554 69.2897 113.621 69.4063C113.689 69.5229 113.726 69.6543 113.731 69.7889C113.735 69.9235 113.707 70.0571 113.647 70.1779C113.587 70.2986 113.499 70.4029 113.389 70.4814L113.389 70.4813Z" fill="#FEB8B8"/>
<path d="M115.537 86.0105H114.66L114.242 82.6377H115.537L115.537 86.0105Z" fill="#A0616A"/>
<path d="M115.761 86.8587H112.931V86.823C112.931 86.532 113.047 86.2529 113.254 86.0471C113.46 85.8413 113.74 85.7256 114.032 85.7256H115.76L115.761 86.8587Z" fill="#A0616A"/>
<path d="M115.537 86.0105H114.66L114.242 82.6377H115.537L115.537 86.0105Z" fill="#FEB8B8"/>
<path d="M115.761 86.8587H112.931V86.823C112.931 86.532 113.047 86.2529 113.254 86.0471C113.46 85.8413 113.74 85.7256 114.032 85.7256H115.76L115.761 86.8587Z" fill="#2F2E41"/>
<path d="M106.74 85.9833L105.905 85.714L106.55 82.377L107.782 82.7742L106.74 85.9833Z" fill="#A0616A"/>
<path d="M106.691 86.8582L104 85.9904L104.01 85.9564C104.1 85.6795 104.297 85.4495 104.557 85.3171C104.817 85.1846 105.119 85.1605 105.397 85.25L107.041 85.7801L106.691 86.8582Z" fill="#A0616A"/>
<path d="M106.74 85.9833L105.905 85.714L106.55 82.377L107.782 82.7742L106.74 85.9833Z" fill="#FEB8B8"/>
<path d="M106.691 86.8582L104 85.9904L104.01 85.9564C104.1 85.6795 104.297 85.4495 104.557 85.3171C104.817 85.1846 105.119 85.1605 105.397 85.25L107.041 85.7801L106.691 86.8582Z" fill="#2F2E41"/>
<path d="M110.544 60.2688C111.362 60.2688 112.025 59.6083 112.025 58.7936C112.025 57.9788 111.362 57.3184 110.544 57.3184C109.727 57.3184 109.064 57.9788 109.064 58.7936C109.064 59.6083 109.727 60.2688 110.544 60.2688Z" fill="#FEB8B8"/>
<path d="M112.667 64.5287C112.873 63.7668 111.93 61.377 111.853 61.0738C111.485 60.9894 110.634 61.1514 110.11 61.0439C109.366 61.6634 108.774 62.5491 108.365 62.969C107.939 63.4059 107.665 63.7019 108.104 64.7243C108.429 65.5292 108.57 66.3958 108.519 67.2617L108.874 70.3892C108.874 70.3892 107.394 74.5199 107.512 77.2934L106.15 84.0796C106.276 84.2821 106.473 84.4306 106.703 84.4961C106.933 84.5616 107.179 84.5393 107.394 84.4337C107.394 84.4337 109.348 80.9518 109.17 78.4147L111.302 73.6938C111.302 73.6938 112.782 78.1785 113.197 78.5917L114.262 84.9647C114.262 84.9647 115.269 85.2597 115.743 84.9647C115.743 84.9647 115.92 78.8277 114.914 77.8245C114.914 77.8245 113.907 73.5758 114.144 72.4545C114.381 71.3333 114.44 69.622 112.664 68.0879C112.664 68.0879 112.682 68.096 112.131 67.0847L112.667 64.5287Z" fill="#2F2D54"/>
<path d="M111.317 56.5136C111.233 56.5138 111.151 56.522 111.069 56.5381C110.922 56.467 110.761 56.4299 110.598 56.4297H110.555C109.729 56.4297 109.059 57.1747 109.059 58.0935H109.336L109.381 57.7544L109.446 58.0935H109.677C109.605 58.3654 109.569 58.6455 109.569 58.9266V60.6207H109.987L110.23 59.9932L110.169 60.6207H112.859L113.08 60.0502L113.024 60.6207H113.327V59.2909C113.327 57.7571 112.427 56.5136 111.317 56.5136Z" fill="#2F2E41"/>
<path d="M108.362 71.3198C108.242 71.3377 108.119 71.3289 108.003 71.294C107.886 71.2591 107.779 71.199 107.689 71.1179C107.609 71.0458 107.543 70.9586 107.497 70.8614C107.45 70.7641 107.424 70.6587 107.418 70.5512C107.413 70.4436 107.428 70.336 107.464 70.2346C107.501 70.1331 107.556 70.0397 107.629 69.9597C107.636 69.9514 107.644 69.9432 107.652 69.9352C107.68 69.9064 107.711 69.8799 107.744 69.8558L109.619 62.68C109.653 62.5092 109.753 62.3586 109.898 62.2615C110.043 62.1644 110.221 62.1287 110.392 62.1622C110.564 62.1957 110.715 62.2957 110.812 62.4403C110.91 62.5848 110.946 62.762 110.912 62.9329L110.912 62.9339L108.945 70.0881C109.015 70.2035 109.055 70.3343 109.061 70.4688C109.068 70.6032 109.041 70.7373 108.984 70.859C108.926 70.9808 108.839 71.0865 108.731 71.1668C108.622 71.2472 108.496 71.2996 108.362 71.3195V71.3198Z" fill="#FEB8B8"/>
<path d="M39.0691 86.9991C39.3567 86.9991 39.5899 86.6949 39.5899 86.3196C39.5899 85.9444 39.3567 85.6401 39.0691 85.6401C38.7815 85.6401 38.5483 85.9444 38.5483 86.3196C38.5483 86.6949 38.7815 86.9991 39.0691 86.9991Z" fill="#F0F0F0"/>
<path d="M41.0194 78.7251C41.3651 78.2867 41.553 77.7453 41.553 77.1877C41.553 76.6301 41.3651 76.0886 41.0194 75.6502L41.0192 75.6495C41.0903 75.559 41.1551 75.4638 41.2134 75.3646L39.8437 75.1395L41.3248 75.1507C41.4666 74.8426 41.5439 74.509 41.5521 74.1701C41.5602 73.8312 41.499 73.4942 41.3721 73.1797L39.3868 74.2072L41.2185 72.8648C41.0469 72.569 40.8161 72.3116 40.5403 72.1086C40.2645 71.9057 39.9498 71.7615 39.6156 71.6851C39.2815 71.6087 38.9351 71.6017 38.5982 71.6645C38.2612 71.7274 37.9408 71.8587 37.657 72.0503C37.3732 72.242 37.1321 72.4898 36.9486 72.7785C36.7651 73.0671 36.6433 73.3902 36.5906 73.7278C36.538 74.0654 36.5557 74.4102 36.6426 74.7407C36.7296 75.0711 36.8839 75.3802 37.0959 75.6487C36.9856 75.7883 36.8903 75.9392 36.8115 76.0987L38.5891 77.0189L36.6936 76.3897C36.5606 76.7816 36.5277 77.2004 36.5978 77.6081C36.668 78.0159 36.8391 78.3998 37.0955 78.7251C36.8303 79.0613 36.6565 79.46 36.591 79.8826C36.5255 80.3053 36.5705 80.7376 36.7217 81.1379C36.8728 81.5382 37.1249 81.8928 37.4537 82.1676C37.7826 82.4424 38.1769 82.6281 38.5988 82.7066C38.5653 82.7996 38.5483 82.8976 38.5485 82.9963C38.5472 83.1421 38.5849 83.2855 38.6578 83.4119C38.5862 83.5387 38.5485 83.6819 38.5485 83.8274C38.5485 83.973 38.5862 84.1161 38.6579 84.243C38.5862 84.3697 38.5486 84.5128 38.5485 84.6582C38.5485 84.8037 38.586 84.9468 38.6575 85.0736C38.5848 85.1998 38.5472 85.343 38.5485 85.4886C38.5485 85.8639 38.7817 86.1681 39.0693 86.1681C39.3569 86.1681 39.59 85.8639 39.59 85.4886C39.5185 85.3619 39.481 85.2189 39.481 85.0736C39.481 84.9282 39.5185 84.7853 39.59 84.6586C39.5914 84.5128 39.5536 84.3693 39.4806 84.243C39.5523 84.1161 39.59 83.973 39.59 83.8274C39.59 83.6819 39.5524 83.5387 39.4807 83.4119C39.5536 83.2855 39.5914 83.1421 39.59 82.9963C39.5902 82.8959 39.5726 82.7962 39.538 82.7019C39.9573 82.6201 40.3485 82.4323 40.674 82.1566C40.9996 81.8809 41.2486 81.5265 41.3973 81.1273C41.546 80.7282 41.5893 80.2977 41.5232 79.8771C41.457 79.4564 41.2835 79.0598 41.0194 78.7251Z" fill="#F0F0F0"/>
<path opacity="0.05" d="M36.5625 77.187C36.5614 77.7448 36.7495 78.2866 37.0961 78.7245C36.8067 79.0914 36.6268 79.532 36.5768 79.996C36.5268 80.46 36.6088 80.9287 36.8134 81.3484C37.0181 81.7681 37.3371 82.122 37.734 82.3696C38.131 82.6172 38.5898 82.7485 39.0581 82.7485C39.5263 82.7485 39.9852 82.6172 40.3821 82.3696C40.779 82.122 41.0981 81.7681 41.3027 81.3484C41.5073 80.9287 41.5894 80.46 41.5394 79.996C41.4894 79.532 41.3094 79.0914 41.02 78.7245C41.3542 78.3015 36.5625 76.9079 36.5625 77.187Z" fill="black"/>
<path d="M34.8257 80.5358L34.8251 80.535C34.8646 80.4845 34.9008 80.4315 34.9332 80.3762L34.1701 80.2508L34.9954 80.2571C35.0744 80.0854 35.1175 79.8996 35.122 79.7108C35.1265 79.522 35.0924 79.3342 35.0217 79.159L33.9157 79.7315L34.9362 78.9839C34.8406 78.8191 34.712 78.6757 34.5583 78.5626C34.4047 78.4495 34.2293 78.3692 34.0432 78.3266C33.857 78.284 33.664 78.2801 33.4763 78.3152C33.2885 78.3502 33.1101 78.4233 32.9519 78.5301C32.7938 78.6369 32.6595 78.775 32.5572 78.9358C32.455 79.0966 32.3871 79.2766 32.3578 79.4647C32.3285 79.6528 32.3383 79.8449 32.3868 80.029C32.4352 80.2131 32.5212 80.3853 32.6393 80.5349C32.5778 80.6127 32.5247 80.6967 32.4808 80.7856L33.4712 81.2983L32.4155 80.9477C32.3413 81.1661 32.323 81.3994 32.3621 81.6266C32.4011 81.8538 32.4964 82.0677 32.6393 82.2489C32.4914 82.4362 32.3946 82.6583 32.358 82.8938C32.3215 83.1293 32.3466 83.3702 32.4309 83.5932C32.5151 83.8162 32.6557 84.0138 32.8391 84.1668C33.0224 84.3198 33.2422 84.4231 33.4773 84.4666C33.4583 84.5184 33.4486 84.5731 33.4485 84.6283C33.4892 84.6987 33.5106 84.7786 33.5106 84.8598C33.5106 84.9411 33.4892 85.021 33.4485 85.0914C33.4892 85.1618 33.5106 85.2416 33.5106 85.3229C33.5106 85.4041 33.4892 85.4839 33.4485 85.5543C33.4891 85.6247 33.5104 85.7044 33.5104 85.7855C33.5104 85.8667 33.4891 85.9464 33.4485 86.0168C33.4892 86.0872 33.5106 86.167 33.5106 86.2482C33.5106 86.3295 33.4892 86.4093 33.4485 86.4797C33.4485 86.6887 33.5784 86.8582 33.7387 86.8582C33.8988 86.8582 34.0288 86.6887 34.0288 86.4797C33.9881 86.4093 33.9667 86.3295 33.9667 86.2482C33.9667 86.167 33.9881 86.0872 34.0288 86.0168C33.9882 85.9464 33.9668 85.8667 33.9668 85.7855C33.9668 85.7044 33.9882 85.6247 34.0288 85.5543C33.9881 85.4839 33.9667 85.4041 33.9667 85.3229C33.9667 85.2416 33.9881 85.1618 34.0288 85.0914C33.988 85.021 33.9666 84.9411 33.9666 84.8598C33.9666 84.7786 33.988 84.6987 34.0288 84.6283C34.0287 84.5722 34.0186 84.5165 33.9989 84.4639C34.2327 84.4187 34.4508 84.3144 34.6325 84.161C34.8141 84.0075 34.9531 83.8101 35.0362 83.5877C35.1192 83.3653 35.1434 83.1254 35.1066 82.8909C35.0697 82.6565 34.973 82.4354 34.8257 82.2489C35.0183 82.0047 35.123 81.703 35.123 81.3924C35.123 81.0817 35.0183 80.78 34.8257 80.5358Z" fill="#F0F0F0"/>
<path d="M44.904 82.3823L44.9034 82.3815C44.9339 82.3427 44.9617 82.3019 44.9867 82.2593L44.3994 82.1632L45.0345 82.168C45.0953 82.0359 45.1285 81.8928 45.132 81.7475C45.1355 81.6022 45.1092 81.4577 45.0549 81.3229L44.2035 81.7634L44.989 81.1877C44.9155 81.0607 44.8166 80.9502 44.6983 80.863C44.58 80.7758 44.445 80.7138 44.3016 80.681C44.1583 80.6481 44.0096 80.645 43.865 80.672C43.7204 80.6989 43.5829 80.7552 43.4611 80.8375C43.3394 80.9197 43.2359 81.0261 43.1572 81.15C43.0785 81.2739 43.0263 81.4126 43.0038 81.5575C42.9813 81.7024 42.989 81.8503 43.0265 81.9921C43.0639 82.1339 43.1303 82.2665 43.2214 82.3815C43.1741 82.4414 43.1332 82.5061 43.0994 82.5745L43.8616 82.9692L43.049 82.6994C42.992 82.8675 42.9779 83.047 43.008 83.2219C43.0381 83.3968 43.1114 83.5614 43.2214 83.7009C43.1076 83.845 43.033 84.016 43.0049 84.1973C42.9767 84.3786 42.996 84.564 43.0609 84.7356C43.1257 84.9073 43.234 85.0594 43.3751 85.1771C43.5162 85.2949 43.6854 85.3744 43.8664 85.4079C43.8517 85.4478 43.8442 85.49 43.8442 85.5324C43.8755 85.5867 43.8921 85.6481 43.8921 85.7107C43.8921 85.7733 43.8755 85.8348 43.8442 85.889C43.8755 85.9431 43.892 86.0046 43.892 86.0671C43.892 86.1297 43.8755 86.1911 43.8442 86.2453C43.8754 86.2994 43.8918 86.3608 43.8918 86.4232C43.8918 86.4857 43.8754 86.547 43.8442 86.6012C43.8442 86.7621 43.9442 86.8925 44.0675 86.8925C44.1909 86.8925 44.2909 86.7621 44.2909 86.6012C44.2597 86.547 44.2433 86.4857 44.2433 86.4232C44.2433 86.3608 44.2597 86.2994 44.2909 86.2453C44.2596 86.1911 44.2431 86.1296 44.2431 86.0671C44.2431 86.0046 44.2596 85.9432 44.2909 85.889C44.2595 85.8347 44.243 85.7733 44.243 85.7107C44.243 85.6481 44.2595 85.5867 44.2909 85.5324C44.2908 85.4892 44.283 85.4463 44.2679 85.4058C44.4478 85.371 44.6157 85.2907 44.7555 85.1726C44.8953 85.0545 45.0023 84.9025 45.0661 84.7313C45.13 84.5601 45.1487 84.3754 45.1203 84.195C45.0919 84.0146 45.0174 83.8444 44.904 83.7009C45.0523 83.5129 45.1329 83.2807 45.1329 83.0416C45.1329 82.8025 45.0523 82.5703 44.904 82.3823Z" fill="#F0F0F0"/>
<path d="M74.4526 28.546C74.2588 28.5451 74.0713 28.4773 73.922 28.354C73.7727 28.2308 73.671 28.0598 73.634 27.8702C73.5971 27.6806 73.6272 27.484 73.7194 27.3141C73.8115 27.1441 73.9599 27.0113 74.1393 26.9381C74.3187 26.865 74.518 26.8561 74.7033 26.913C74.8885 26.9699 75.0482 27.089 75.1552 27.2501C75.2622 27.4111 75.3099 27.6042 75.2901 27.7963C75.2703 27.9885 75.1842 28.1679 75.0466 28.3039C74.9684 28.3812 74.8757 28.4423 74.7738 28.4839C74.6719 28.5254 74.5627 28.5465 74.4526 28.546Z" fill="white"/>
<path d="M118.88 86.9994H30.1196C30.1045 87.0011 30.0893 86.9995 30.0749 86.9949C30.0604 86.9903 30.0471 86.9827 30.0359 86.9726C30.0246 86.9625 30.0156 86.9502 30.0094 86.9364C30.0032 86.9226 30 86.9077 30 86.8926C30 86.8775 30.0032 86.8626 30.0094 86.8488C30.0156 86.835 30.0246 86.8227 30.0359 86.8126C30.0471 86.8025 30.0604 86.7949 30.0749 86.7903C30.0893 86.7857 30.1045 86.7842 30.1196 86.7858H118.88C118.895 86.7842 118.911 86.7857 118.925 86.7903C118.94 86.7949 118.953 86.8025 118.964 86.8126C118.975 86.8227 118.984 86.835 118.991 86.8488C118.997 86.8626 119 86.8775 119 86.8926C119 86.9077 118.997 86.9226 118.991 86.9364C118.984 86.9502 118.975 86.9625 118.964 86.9726C118.953 86.9827 118.94 86.9903 118.925 86.9949C118.911 86.9995 118.895 87.0011 118.88 86.9994Z" fill="#E6E6E6"/>
<path d="M61.417 53.8076C61.6537 53.8076 61.8457 53.6163 61.8457 53.3804C61.8457 53.1444 61.6537 52.9531 61.417 52.9531C61.1802 52.9531 60.9883 53.1444 60.9883 53.3804C60.9883 53.6163 61.1802 53.8076 61.417 53.8076Z" fill="white"/>
<path d="M62.4392 59.7885C62.4463 59.9121 62.428 60.0358 62.3854 60.1521C62.3428 60.2684 62.2769 60.3748 62.1916 60.4648C62.1063 60.5548 62.0035 60.6265 61.8894 60.6755C61.7753 60.7245 61.6524 60.7497 61.5282 60.7497C61.404 60.7497 61.2811 60.7245 61.167 60.6755C61.0529 60.6265 60.9501 60.5548 60.8648 60.4648C60.7795 60.3748 60.7136 60.2684 60.671 60.1521C60.6284 60.0358 60.6101 59.9121 60.6172 59.7885C60.6172 59.2576 61.4746 58.7204 61.4746 57.7592C61.4746 57.2578 62.4392 59.2576 62.4392 59.7885Z" fill="#E11D48"/>
<path d="M62.0747 59.7726C62.0789 59.8467 62.068 59.921 62.0424 59.9908C62.0168 60.0605 61.9773 60.1244 61.9261 60.1784C61.8749 60.2324 61.8132 60.2754 61.7448 60.3048C61.6763 60.3342 61.6026 60.3494 61.528 60.3494C61.4535 60.3494 61.3797 60.3342 61.3113 60.3048C61.2428 60.2754 61.1811 60.2324 61.13 60.1784C61.0788 60.1244 61.0392 60.0605 61.0136 59.9908C60.9881 59.921 60.9771 59.8467 60.9814 59.7726C60.9814 59.454 61.4959 59.1316 61.4959 58.5548C61.4959 58.2539 62.0747 59.454 62.0747 59.7726Z" fill="white"/>
<path d="M61.4166 65.9365C60.6824 65.9365 60.0908 66.4866 60.0908 67.1669C60.0923 67.3698 60.145 67.569 60.2438 67.7462C60.3427 67.9235 60.4847 68.0732 60.6567 68.1816V68.58C60.6584 68.6284 60.6793 68.6742 60.7148 68.7072C60.7503 68.7403 60.7976 68.7579 60.8462 68.7562L60.8464 68.7562H61.9867C62.0353 68.758 62.0826 68.7404 62.1182 68.7074C62.1537 68.6744 62.1747 68.6286 62.1764 68.5802L62.1764 68.58V68.1816C62.3488 68.0735 62.4911 67.9239 62.5902 67.7466C62.6893 67.5692 62.7419 67.3699 62.7434 67.1669C62.7434 66.4866 62.1507 65.9365 61.4166 65.9365Z" fill="#E11D48"/>
<path d="M61.4165 66.2603C60.8508 66.2603 60.395 66.6841 60.395 67.2082C60.3962 67.3645 60.4367 67.518 60.5129 67.6546C60.5891 67.7912 60.6985 67.9065 60.831 67.99V68.2969C60.8316 68.3154 60.8359 68.3336 60.8436 68.3504C60.8513 68.3672 60.8622 68.3824 60.8758 68.395C60.8893 68.4076 60.9053 68.4174 60.9226 68.4239C60.94 68.4304 60.9585 68.4334 60.977 68.4327H60.9772H61.8557C61.8932 68.4341 61.9296 68.4205 61.957 68.3951C61.9844 68.3697 62.0006 68.3344 62.0019 68.2971V68.2969V67.99C62.1347 67.9067 62.2443 67.7914 62.3207 67.6548C62.397 67.5182 62.4376 67.3646 62.4387 67.2082C62.4387 66.6841 61.9821 66.2603 61.4165 66.2603Z" fill="white"/>
<path d="M60.885 68.9204C60.8566 68.9204 60.8293 68.9317 60.8092 68.9517C60.7891 68.9717 60.7778 68.9989 60.7778 69.0272C60.7778 69.0555 60.7891 69.0827 60.8092 69.1027C60.8293 69.1228 60.8566 69.134 60.885 69.134H61.9568C61.9852 69.134 62.0124 69.1228 62.0325 69.1027C62.0526 69.0827 62.0639 69.0555 62.0639 69.0272C62.0639 68.9989 62.0526 68.9717 62.0325 68.9517C62.0124 68.9317 61.9852 68.9204 61.9568 68.9204H60.885Z" fill="#E11D48"/>
<path d="M60.885 69.3477C60.8566 69.3477 60.8293 69.3589 60.8092 69.3789C60.7891 69.399 60.7778 69.4261 60.7778 69.4545C60.7778 69.4828 60.7891 69.51 60.8092 69.53C60.8293 69.55 60.8566 69.5613 60.885 69.5613H61.9568C61.9852 69.5613 62.0124 69.55 62.0325 69.53C62.0526 69.51 62.0639 69.4828 62.0639 69.4545C62.0639 69.4261 62.0526 69.399 62.0325 69.3789C62.0124 69.3589 61.9852 69.3477 61.9568 69.3477H60.885Z" fill="#E11D48"/>
<path d="M62.1648 73.5665L62.1965 73.4873C62.2081 73.4586 62.2124 73.4274 62.2091 73.3965C62.2058 73.3657 62.1949 73.3361 62.1775 73.3105C62.16 73.2848 62.1365 73.2637 62.109 73.2492C62.0815 73.2347 62.0509 73.2271 62.0198 73.2271H60.7231C60.6726 73.2271 60.6242 73.247 60.5885 73.2826C60.5528 73.3182 60.5327 73.3665 60.5327 73.4168V73.5665H62.1648Z" fill="#E11D48"/>
<path d="M61.993 74.6949C61.9619 74.6949 61.9312 74.6873 61.9037 74.6727C61.8762 74.6582 61.8527 74.6372 61.8353 74.6115C61.8178 74.5858 61.807 74.5562 61.8036 74.5254C61.8003 74.4945 61.8046 74.4634 61.8162 74.4346L62.0361 73.8872H60.5327V75.0925C60.5327 75.1175 60.5376 75.1421 60.5472 75.1652C60.5568 75.1882 60.5708 75.2091 60.5885 75.2267C60.6062 75.2443 60.6272 75.2583 60.6503 75.2679C60.6734 75.2774 60.6981 75.2823 60.7231 75.2823H60.9317C60.9823 75.2823 61.0307 75.3023 61.0664 75.3379C61.1021 75.3735 61.1222 75.4217 61.1222 75.4721V76.2407C61.1222 76.2835 61.1367 76.325 61.1633 76.3585C61.1899 76.392 61.2271 76.4156 61.2689 76.4254C61.3106 76.4352 61.3545 76.4307 61.3933 76.4126C61.4322 76.3945 61.4637 76.3638 61.4829 76.3256L62.1633 74.9695C62.1778 74.9406 62.1847 74.9084 62.1832 74.8761C62.1818 74.8438 62.172 74.8124 62.155 74.7849C62.1379 74.7574 62.1141 74.7347 62.0857 74.7189C62.0574 74.7031 62.0254 74.6949 61.993 74.6949Z" fill="#E11D48"/>
<path d="M60.7242 60.9102C60.6816 60.9102 60.6407 60.927 60.6106 60.9571C60.5804 60.9871 60.5635 61.0279 60.5635 61.0704C60.5635 61.1129 60.5804 61.1536 60.6106 61.1837C60.6407 61.2137 60.6816 61.2306 60.7242 61.2306H62.2247C62.2673 61.2306 62.3082 61.2137 62.3384 61.1837C62.3685 61.1536 62.3854 61.1129 62.3854 61.0704C62.3854 61.0279 62.3685 60.9871 62.3384 60.9571C62.3082 60.927 62.2673 60.9102 62.2247 60.9102H60.7242Z" fill="#E11D48"/>
<path d="M60.7242 61.5508C60.6816 61.5508 60.6407 61.5677 60.6106 61.5977C60.5804 61.6278 60.5635 61.6685 60.5635 61.711C60.5635 61.7535 60.5804 61.7942 60.6106 61.8243C60.6407 61.8543 60.6816 61.8712 60.7242 61.8712H62.2247C62.2673 61.8712 62.3082 61.8543 62.3384 61.8243C62.3685 61.7942 62.3854 61.7535 62.3854 61.711C62.3854 61.6685 62.3685 61.6278 62.3384 61.5977C62.3082 61.5677 62.2673 61.5508 62.2247 61.5508H60.7242Z" fill="#E11D48"/>
<path d="M74.9783 41.6316C75.0375 41.6316 75.0854 41.5838 75.0854 41.5248C75.0854 41.4658 75.0375 41.418 74.9783 41.418C74.9191 41.418 74.8711 41.4658 74.8711 41.5248C74.8711 41.5838 74.9191 41.6316 74.9783 41.6316Z" fill="#6C63FF"/>
<path d="M77.369 39.5939L74.5779 37.0264C74.5581 37.0082 74.5321 36.998 74.5052 36.998C74.4782 36.998 74.4523 37.0082 74.4325 37.0264L73.1563 38.2007V37.6797C73.1563 37.6514 73.145 37.6242 73.1249 37.6042C73.1048 37.5841 73.0776 37.5729 73.0491 37.5729H72.8348C72.8064 37.5729 72.7791 37.5841 72.759 37.6042C72.7389 37.6242 72.7276 37.6514 72.7276 37.6797V38.5952L71.6424 39.5939C71.6265 39.6085 71.6155 39.6275 71.6106 39.6484C71.6058 39.6694 71.6074 39.6913 71.6153 39.7113C71.6231 39.7313 71.6369 39.7485 71.6547 39.7606C71.6725 39.7727 71.6935 39.7792 71.7151 39.7792H72.2524C72.2808 39.7792 72.308 39.7904 72.3281 39.8105C72.3482 39.8305 72.3595 39.8577 72.3595 39.886V42.491C72.3595 42.5193 72.3708 42.5465 72.3909 42.5665C72.411 42.5866 72.4383 42.5978 72.4667 42.5978H76.5436C76.5721 42.5978 76.5993 42.5866 76.6194 42.5665C76.6395 42.5465 76.6508 42.5193 76.6508 42.491V39.886C76.6508 39.8577 76.6621 39.8305 76.6822 39.8105C76.7023 39.7904 76.7296 39.7792 76.758 39.7792H77.2963C77.3178 39.7792 77.3389 39.7727 77.3567 39.7606C77.3745 39.7485 77.3882 39.7313 77.3961 39.7113C77.4039 39.6913 77.4055 39.6693 77.4007 39.6484C77.3959 39.6275 77.3848 39.6085 77.369 39.5939ZM73.905 40.718H75.1054C75.1338 40.718 75.161 40.7293 75.1811 40.7493C75.2012 40.7693 75.2125 40.7965 75.2125 40.8248V42.3842H73.7978V40.8248C73.7978 40.7965 73.8091 40.7693 73.8292 40.7493C73.8493 40.7293 73.8766 40.718 73.905 40.718Z" fill="#E11D48"/>
</g>
<path d="M67.8936 124H66.0696V115.384H67.8936V124ZM73.5556 124.18C71.0716 124.18 69.1516 122.26 69.1516 119.68C69.1516 117.1 71.0716 115.204 73.5556 115.204C76.0516 115.204 77.9836 117.1 77.9836 119.68C77.9836 122.26 76.0516 124.18 73.5556 124.18ZM73.5556 122.548C75.1396 122.548 76.0996 121.264 76.0996 119.68C76.0996 118.096 75.1396 116.836 73.5556 116.836C71.9836 116.836 71.0236 118.096 71.0236 119.68C71.0236 121.264 71.9836 122.548 73.5556 122.548ZM82.8943 124H81.0703V117.028H78.3583V115.384H85.6183V117.028H82.8943V124Z" fill="#94A3B8"/>
<defs>
<clipPath id="clip0_57_8">
<rect width="89" height="72" fill="white" transform="translate(30 15)"/>
</clipPath>
</defs>
</svg>
