<svg width="658" height="658" viewBox="0 0 658 658" fill="none" xmlns="http://www.w3.org/2000/svg">
<path d="M560.66 560.665H463.158V407.975C463.158 371.562 462.51 324.708 412.446 324.708C361.668 324.708 353.886 364.364 353.886 405.349V560.665H256.417V246.661H350.028V289.559H351.325C370.423 256.94 405.896 237.453 443.671 238.847C542.502 238.847 560.693 303.859 560.693 388.391L560.66 560.665ZM146.399 203.731C115.141 203.731 89.8172 178.407 89.8172 147.149C89.8172 115.891 115.141 90.5674 146.399 90.5674C177.656 90.5674 202.98 115.891 202.98 147.149C202.98 178.407 177.656 203.731 146.399 203.731ZM195.134 560.665H97.5343V246.661H195.134V560.665ZM609.265 0.036854H48.5402C22.049 -0.254971 0.32425 20.9834 0 47.4746V610.502C0.32425 637.026 22.049 658.264 48.5402 657.972H609.265C635.821 658.296 657.643 637.058 658 610.502V47.4422C657.611 20.8861 635.789 -0.352247 609.265 0.00442748" fill="#E11D48"/>
</svg>
