<svg width="360" height="272" viewBox="0 0 360 272" fill="none" xmlns="http://www.w3.org/2000/svg">
<g filter="url(#filter0_d_43_23)">
<path fill-rule="evenodd" clip-rule="evenodd" d="M94 138L160 1H238.5V7C229.605 10.4674 226.969 13.5823 225 20.5L330.5 242.5C336.575 250.634 340.572 253.824 349 256.5L354 262.5L247.5 263.5V258.5C257.71 255.316 261.533 252.623 263.5 245.5L188 87.5L164 137.5H187L227.5 222.5C225.814 225.059 224.237 225.59 220 224.5C215.033 215.298 211.22 211.514 202 208L131 207C118.6 239.672 107.869 253.851 74 263H8.5C5.86257 262.878 5.02459 261.886 5 258V196.5C8.18378 171.988 15.243 160.901 38.5 146.5C48.3563 141.026 54.2362 139.505 65 138H94ZM156 41.0003C160.586 34.822 162.708 35.3643 166 41.0003L177.5 65.5003C179.49 68.6707 179.883 71.9119 178.5 75.5003L148.5 137.5L117.5 139C114.4 137.291 113.152 135.943 113.5 131.5L156 41.0003ZM197 193H50.5001C43.7857 194.665 41.1419 197.266 37.5 203.5C35.7183 209.26 35.5165 211.901 36 216C40.0995 225.05 43.1968 227.034 49.0001 229.5H61.5001C71.6065 224.042 73.5737 218.516 76.6612 209.841C76.9303 209.085 77.2078 208.306 77.5 207.5H107C109.505 208.076 110.446 208.809 110.5 211.5V216C102.109 236.215 94.2552 242.003 77.5 247.5H20.5V193C21.0942 186.32 22.0194 182.675 25.5 176.5C34.7295 163.482 41.6188 159.349 55.0001 154H179L197 193ZM61.5001 207.5H50.5001C48.2366 209.74 48.3936 211.581 49.0001 215C51.3192 217.703 52.6395 217.982 55.0001 218C58.5642 216.296 59.8724 214.252 61.5001 209.5V207.5ZM171.5 16H211.5V23.5L318.5 248.5H277V239L171.5 16Z" fill="#E11D48"/>
<path d="M160 1V0.5H159.686L159.55 0.782993L160 1ZM94 138V138.5H94.3141L94.4504 138.217L94 138ZM238.5 1H239V0.5H238.5V1ZM238.5 7L238.682 7.46585L239 7.34174V7H238.5ZM225 20.5L224.519 20.3631L224.468 20.5444L224.548 20.7146L225 20.5ZM330.5 242.5L330.048 242.715L330.07 242.759L330.099 242.799L330.5 242.5ZM349 256.5L349.384 256.18L349.291 256.068L349.151 256.023L349 256.5ZM354 262.5L354.005 263L355.059 262.99L354.384 262.18L354 262.5ZM247.5 263.5H247V264.005L247.505 264L247.5 263.5ZM247.5 258.5L247.351 258.023L247 258.132V258.5H247.5ZM263.5 245.5L263.982 245.633L264.032 245.453L263.951 245.284L263.5 245.5ZM188 87.5L188.451 87.2844L188.001 86.3424L187.549 87.2836L188 87.5ZM164 137.5L163.549 137.284L163.205 138H164V137.5ZM187 137.5L187.451 137.285L187.316 137H187V137.5ZM227.5 222.5L227.918 222.775L228.073 222.54L227.951 222.285L227.5 222.5ZM220 224.5L219.56 224.738L219.664 224.93L219.875 224.984L220 224.5ZM202 208L202.178 207.533L202.095 207.501L202.007 207.5L202 208ZM131 207L131.007 206.5L130.657 206.495L130.533 206.823L131 207ZM74 263V263.5H74.0663L74.1304 263.483L74 263ZM8.5 263L8.47683 263.499L8.48841 263.5H8.5V263ZM5 258H4.49999L4.50001 258.003L5 258ZM5 196.5L4.50416 196.436L4.5 196.468V196.5H5ZM38.5 146.5L38.2573 146.063L38.2469 146.069L38.2368 146.075L38.5 146.5ZM65 138V137.5H64.9652L64.9308 137.505L65 138ZM166 41.0003L166.453 40.7878L166.443 40.7675L166.432 40.7481L166 41.0003ZM156 41.0003L155.598 40.7023L155.569 40.7425L155.547 40.7878L156 41.0003ZM177.5 65.5003L177.047 65.7128L177.06 65.7403L177.076 65.7661L177.5 65.5003ZM178.5 75.5003L178.95 75.7181L178.959 75.6994L178.967 75.6801L178.5 75.5003ZM148.5 137.5L148.524 138L148.821 137.985L148.95 137.718L148.5 137.5ZM117.5 139L117.258 139.438L117.383 139.507L117.524 139.5L117.5 139ZM113.5 131.5L113.047 131.288L113.009 131.37L113.001 131.461L113.5 131.5ZM50.5001 193V192.5H50.4391L50.3798 192.515L50.5001 193ZM197 193V193.5H197.781L197.454 192.79L197 193ZM37.5 203.5L37.0683 203.248L37.0393 203.297L37.0223 203.352L37.5 203.5ZM36 216L35.5034 216.059L35.5125 216.136L35.5446 216.206L36 216ZM49.0001 229.5L48.8046 229.96L48.8983 230H49.0001V229.5ZM61.5001 229.5V230H61.6265L61.7377 229.94L61.5001 229.5ZM76.6612 209.841L77.1323 210.009L76.6612 209.841ZM77.5 207.5V207H77.1495L77.03 207.33L77.5 207.5ZM107 207.5L107.112 207.013L107.057 207H107V207.5ZM110.5 211.5H111L111 211.49L110.5 211.5ZM110.5 216L110.962 216.192L111 216.1V216H110.5ZM77.5 247.5V248H77.5799L77.6559 247.975L77.5 247.5ZM20.5 247.5H20V248H20.5V247.5ZM20.5 193L20.002 192.956L20 192.978V193H20.5ZM25.5 176.5L25.0921 176.211L25.0771 176.232L25.0644 176.254L25.5 176.5ZM55.0001 154V153.5H54.9039L54.8145 153.536L55.0001 154ZM179 154L179.454 153.79L179.32 153.5H179V154ZM50.5001 207.5V207H50.2946L50.1485 207.145L50.5001 207.5ZM61.5001 207.5H62.0001V207H61.5001V207.5ZM49.0001 215L48.5078 215.087L48.5317 215.222L48.6206 215.326L49.0001 215ZM55.0001 218L54.9964 218.5L55.1117 218.501L55.2157 218.451L55.0001 218ZM61.5001 209.5L61.9731 209.662L62.0001 209.583V209.5H61.5001ZM211.5 16H212V15.5H211.5V16ZM171.5 16V15.5H170.71L171.048 16.2138L171.5 16ZM211.5 23.5H211V23.6128L211.048 23.7147L211.5 23.5ZM318.5 248.5V249H319.291L318.952 248.285L318.5 248.5ZM277 248.5H276.5V249H277V248.5ZM277 239H277.5V238.888L277.452 238.786L277 239ZM159.55 0.782993L93.5495 137.783L94.4504 138.217L160.45 1.21701L159.55 0.782993ZM238.5 0.5H160V1.5H238.5V0.5ZM239 7V1H238V7H239ZM225.481 20.6369C226.455 17.2146 227.577 14.7967 229.512 12.8045C231.454 10.8042 234.258 9.19034 238.682 7.46585L238.318 6.53415C233.848 8.27702 230.886 9.95429 228.794 12.1078C226.695 14.2693 225.514 16.8677 224.519 20.3631L225.481 20.6369ZM330.952 242.285L225.452 20.2854L224.548 20.7146L330.048 242.715L330.952 242.285ZM349.151 256.023C344.972 254.697 341.924 253.252 339.171 251.149C336.414 249.042 333.928 246.254 330.901 242.201L330.099 242.799C333.147 246.88 335.698 249.754 338.564 251.944C341.436 254.139 344.6 255.627 348.849 256.977L349.151 256.023ZM354.384 262.18L349.384 256.18L348.616 256.82L353.616 262.82L354.384 262.18ZM247.505 264L354.005 263L353.995 262L247.495 263L247.505 264ZM247 258.5V263.5H248V258.5H247ZM263.018 245.367C262.055 248.853 260.656 251.205 258.281 253.085C255.881 254.985 252.449 256.433 247.351 258.023L247.649 258.977C252.761 257.383 256.346 255.892 258.902 253.869C261.482 251.826 262.978 249.27 263.982 245.633L263.018 245.367ZM187.549 87.7156L263.049 245.716L263.951 245.284L188.451 87.2844L187.549 87.7156ZM164.451 137.716L188.451 87.7164L187.549 87.2836L163.549 137.284L164.451 137.716ZM187 137H164V138H187V137ZM227.951 222.285L187.451 137.285L186.549 137.715L227.049 222.715L227.951 222.285ZM219.875 224.984C222.007 225.532 223.571 225.704 224.841 225.35C226.144 224.987 227.046 224.099 227.918 222.775L227.082 222.225C226.269 223.461 225.539 224.117 224.573 224.387C223.573 224.665 222.23 224.557 220.125 224.016L219.875 224.984ZM201.822 208.467C206.397 210.211 209.591 212.007 212.254 214.483C214.922 216.964 217.086 220.154 219.56 224.738L220.44 224.262C217.947 219.644 215.721 216.341 212.935 213.751C210.145 211.157 206.823 209.303 202.178 207.533L201.822 208.467ZM130.993 207.5L201.993 208.5L202.007 207.5L131.007 206.5L130.993 207.5ZM74.1304 263.483C91.1154 258.894 102.359 253.028 110.911 244.168C119.451 235.319 125.263 223.525 131.467 207.177L130.533 206.823C124.337 223.147 118.583 234.778 110.191 243.474C101.81 252.158 90.7537 257.956 73.8696 262.517L74.1304 263.483ZM8.5 263.5H74V262.5H8.5V263.5ZM4.50001 258.003C4.5123 259.944 4.72022 261.314 5.36519 262.205C6.04603 263.145 7.11691 263.436 8.47683 263.499L8.52317 262.501C7.24566 262.441 6.57883 262.176 6.17518 261.618C5.73566 261.011 5.5123 259.942 5.49999 257.997L4.50001 258.003ZM4.5 196.5V258H5.5V196.5H4.5ZM38.2368 146.075C26.5837 153.291 18.9341 159.708 13.806 167.432C8.67553 175.159 6.10053 184.145 4.50416 196.436L5.49584 196.564C7.08326 184.343 9.62974 175.529 14.6391 167.985C19.6507 160.437 27.1593 154.11 38.7632 146.925L38.2368 146.075ZM64.9308 137.505C54.1222 139.016 48.18 140.552 38.2573 146.063L38.7428 146.937C48.5326 141.501 54.3501 139.994 65.0692 138.495L64.9308 137.505ZM94 137.5H65V138.5H94V137.5ZM166.432 40.7481C165.603 39.3293 164.828 38.1955 164.05 37.4035C163.271 36.6098 162.441 36.1122 161.508 36.0705C160.577 36.0288 159.661 36.4453 158.718 37.2138C157.775 37.9827 156.754 39.1462 155.598 40.7023L156.401 41.2983C157.539 39.7653 158.503 38.6797 159.35 37.9888C160.198 37.2975 160.878 37.0433 161.463 37.0695C162.044 37.0955 162.649 37.404 163.337 38.1042C164.026 38.8059 164.751 39.8533 165.568 41.2525L166.432 40.7481ZM177.953 65.2878L166.453 40.7878L165.547 41.2127L177.047 65.7128L177.953 65.2878ZM178.967 75.6801C180.408 71.9389 179.994 68.5329 177.923 65.2345L177.076 65.7661C178.986 68.8084 179.357 71.8849 178.033 75.3205L178.967 75.6801ZM148.95 137.718L178.95 75.7181L178.05 75.2825L148.05 137.283L148.95 137.718ZM117.524 139.5L148.524 138L148.476 137.001L117.476 138.501L117.524 139.5ZM113.001 131.461C112.824 133.723 113.044 135.294 113.777 136.53C114.507 137.76 115.7 138.578 117.258 139.438L117.741 138.562C116.201 137.713 115.22 137.002 114.637 136.02C114.059 135.045 113.828 133.72 113.998 131.539L113.001 131.461ZM155.547 40.7878L113.047 131.288L113.953 131.713L156.453 41.2128L155.547 40.7878ZM50.5001 193.5H197V192.5H50.5001V193.5ZM37.9317 203.752C39.7453 200.648 41.2816 198.501 43.1689 196.92C45.0477 195.346 47.3094 194.306 50.6204 193.485L50.3798 192.515C46.9764 193.358 44.5591 194.451 42.5268 196.153C40.5032 197.848 38.8966 200.118 37.0683 203.248L37.9317 203.752ZM36.4966 215.941C36.0228 211.925 36.2123 209.355 37.9777 203.648L37.0223 203.352C35.2244 209.165 35.0102 211.877 35.5034 216.059L36.4966 215.941ZM49.1957 229.04C46.3054 227.812 44.1511 226.728 42.2077 224.858C40.2611 222.986 38.4935 220.293 36.4554 215.794L35.5446 216.206C37.606 220.757 39.4368 223.581 41.5145 225.579C43.5955 227.581 45.8915 228.722 48.8046 229.96L49.1957 229.04ZM61.5001 229H49.0001V230H61.5001V229ZM76.1902 209.674C74.6417 214.024 73.3977 217.51 71.2993 220.596C69.2123 223.664 66.2607 226.361 61.2625 229.06L61.7377 229.94C66.8458 227.181 69.9311 224.386 72.1262 221.158C74.3099 217.947 75.5932 214.333 77.1323 210.009L76.1902 209.674ZM77.03 207.33C76.7372 208.137 76.4592 208.918 76.1902 209.674L77.1323 210.009C77.4014 209.253 77.6785 208.475 77.97 207.67L77.03 207.33ZM107 207H77.5V208H107V207ZM111 211.49C110.972 210.101 110.715 209.092 110.034 208.365C109.367 207.654 108.372 207.302 107.112 207.013L106.888 207.987C108.133 208.273 108.861 208.576 109.304 209.049C109.733 209.506 109.974 210.208 110 211.51L111 211.49ZM111 216V211.5H110V216H111ZM77.6559 247.975C86.0565 245.219 92.2887 242.371 97.4736 237.639C102.657 232.907 106.753 226.33 110.962 216.192L110.038 215.808C105.856 225.885 101.829 232.31 96.7994 236.9C91.7709 241.49 85.6987 244.284 77.3441 247.025L77.6559 247.975ZM20.5 248H77.5V247H20.5V248ZM20 193V247.5H21V193H20ZM25.0644 176.254C23.3124 179.363 22.1926 181.854 21.4379 184.419C20.6837 186.983 20.3002 189.602 20.002 192.956L20.998 193.044C21.2939 189.718 21.6701 187.174 22.3973 184.702C23.1239 182.231 24.2069 179.812 25.9356 176.746L25.0644 176.254ZM54.8145 153.536C48.114 156.214 42.9987 158.603 38.3978 161.971C33.7928 165.341 29.7271 169.673 25.0921 176.211L25.9079 176.789C30.5024 170.309 34.4962 166.066 38.9884 162.778C43.4849 159.487 48.5049 157.135 55.1857 154.464L54.8145 153.536ZM179 153.5H55.0001V154.5H179V153.5ZM197.454 192.79L179.454 153.79L178.546 154.21L196.546 193.21L197.454 192.79ZM50.5001 208H61.5001V207H50.5001V208ZM49.4924 214.913C49.1872 213.192 49.0141 211.955 49.1688 210.879C49.3182 209.84 49.7812 208.915 50.8518 207.855L50.1485 207.145C48.9556 208.325 48.3653 209.44 48.1789 210.737C47.9979 211.996 48.2065 213.389 48.5078 215.087L49.4924 214.913ZM55.0038 217.5C53.8361 217.491 53.0041 217.416 52.189 217.051C51.371 216.684 50.5183 216.002 49.3796 214.674L48.6206 215.326C49.801 216.701 50.768 217.51 51.7801 217.963C52.795 218.418 53.8036 218.491 54.9964 218.5L55.0038 217.5ZM61.0271 209.338C60.2163 211.705 59.5022 213.343 58.5744 214.596C57.6579 215.833 56.5113 216.724 54.7845 217.549L55.2157 218.451C57.053 217.573 58.3426 216.589 59.3781 215.191C60.4023 213.808 61.1562 212.047 61.9731 209.662L61.0271 209.338ZM61.0001 207.5V209.5H62.0001V207.5H61.0001ZM211.5 15.5H171.5V16.5H211.5V15.5ZM212 23.5V16H211V23.5H212ZM318.952 248.285L211.952 23.2853L211.048 23.7147L318.048 248.715L318.952 248.285ZM277 249H318.5V248H277V249ZM276.5 239V248.5H277.5V239H276.5ZM171.048 16.2138L276.548 239.214L277.452 238.786L171.952 15.7862L171.048 16.2138Z" fill="#E11D48"/>
</g>
<defs>
<filter id="filter0_d_43_23" x="0.5" y="0.5" width="358.56" height="271.505" filterUnits="userSpaceOnUse" color-interpolation-filters="sRGB">
<feFlood flood-opacity="0" result="BackgroundImageFix"/>
<feColorMatrix in="SourceAlpha" type="matrix" values="0 0 0 0 0 0 0 0 0 0 0 0 0 0 0 0 0 0 127 0" result="hardAlpha"/>
<feOffset dy="4"/>
<feGaussianBlur stdDeviation="2"/>
<feComposite in2="hardAlpha" operator="out"/>
<feColorMatrix type="matrix" values="0 0 0 0 0.882353 0 0 0 0 0.113725 0 0 0 0 0.282353 0 0 0 0.25 0"/>
<feBlend mode="normal" in2="BackgroundImageFix" result="effect1_dropShadow_43_23"/>
<feBlend mode="normal" in="SourceGraphic" in2="effect1_dropShadow_43_23" result="shape"/>
</filter>
</defs>
</svg>
