<svg width="1492" height="957" viewBox="0 0 1492 957" fill="none" xmlns="http://www.w3.org/2000/svg">
<g clip-path="url(#clip0_34_2)">
<rect width="1491.48" height="956.71" fill="#111111"/>
<rect width="1495" height="42" transform="translate(0 50)" fill="#34333A"/>
<circle cx="36.5" cy="73.5" r="6.5" fill="#FF5F57"/>
<circle cx="57.5" cy="73.5" r="6.5" fill="#FEBC2E"/>
<circle cx="78.5" cy="73.5" r="6.5" fill="#28C840"/>
<rect x="383" y="57" width="726" height="28" rx="8" fill="#414047"/>
<path d="M692.532 76.144C691.272 76.144 690.528 75.436 690.528 74.368C690.528 73.288 691.332 72.616 692.712 72.508L694.56 72.364V72.196C694.56 71.212 693.972 70.864 693.18 70.864C692.232 70.864 691.692 71.284 691.692 71.992H690.708C690.708 70.768 691.716 69.964 693.228 69.964C694.68 69.964 695.664 70.732 695.664 72.316V76H694.704L694.584 75.052C694.284 75.724 693.48 76.144 692.532 76.144ZM692.856 75.268C693.924 75.268 694.572 74.572 694.572 73.468V73.156L693.072 73.276C692.076 73.372 691.668 73.756 691.668 74.332C691.668 74.956 692.124 75.268 692.856 75.268ZM698.246 76H697.226V67.168H698.354V71.14C698.738 70.372 699.53 69.964 700.49 69.964C702.17 69.964 703.178 71.284 703.178 73.096C703.178 74.872 702.122 76.144 700.418 76.144C699.494 76.144 698.714 75.736 698.33 74.932L698.246 76ZM698.366 73.048C698.366 74.272 699.062 75.124 700.214 75.124C701.366 75.124 702.05 74.26 702.05 73.048C702.05 71.848 701.366 70.984 700.214 70.984C699.062 70.984 698.366 71.848 698.366 73.048ZM704.973 68.74C704.565 68.74 704.229 68.404 704.229 67.996C704.229 67.576 704.565 67.252 704.973 67.252C705.381 67.252 705.717 67.576 705.717 67.996C705.717 68.404 705.381 68.74 704.973 68.74ZM704.421 76V70.132H705.549V76H704.421ZM708.315 76H707.187V70.132H708.207L708.327 71.032C708.699 70.36 709.443 69.964 710.271 69.964C711.819 69.964 712.527 70.912 712.527 72.412V76H711.399V72.664C711.399 71.476 710.847 70.996 709.983 70.996C708.927 70.996 708.315 71.752 708.315 72.892V76ZM715.745 76H714.617V71.08H713.465V70.132H714.617V68.296H715.745V70.132H716.897V71.08H715.745V76ZM719.038 75.988H717.91V67.168H719.038V71.032C719.41 70.396 720.118 69.964 721.03 69.964C722.53 69.964 723.25 70.912 723.25 72.412V76H722.122V72.664C722.122 71.476 721.558 70.996 720.718 70.996C719.626 70.996 719.038 71.788 719.038 72.796V75.988ZM724.428 73.06C724.428 71.248 725.724 69.976 727.488 69.976C729.24 69.976 730.536 71.248 730.536 73.06C730.536 74.872 729.24 76.144 727.488 76.144C725.724 76.144 724.428 74.872 724.428 73.06ZM725.568 73.06C725.568 74.284 726.348 75.136 727.488 75.136C728.616 75.136 729.408 74.284 729.408 73.06C729.408 71.836 728.616 70.984 727.488 70.984C726.348 70.984 725.568 71.836 725.568 73.06ZM732.913 76H731.785V70.132H732.793L732.901 70.9C733.201 70.348 733.825 69.964 734.653 69.964C735.565 69.964 736.213 70.42 736.513 71.152C736.789 70.42 737.497 69.964 738.409 69.964C739.753 69.964 740.569 70.804 740.569 72.16V76H739.465V72.436C739.465 71.512 738.949 70.984 738.157 70.984C737.305 70.984 736.741 71.584 736.741 72.52V76H735.625V72.424C735.625 71.5 735.121 70.996 734.329 70.996C733.477 70.996 732.913 71.584 732.913 72.52V76ZM743.848 76.144C742.588 76.144 741.844 75.436 741.844 74.368C741.844 73.288 742.648 72.616 744.028 72.508L745.876 72.364V72.196C745.876 71.212 745.288 70.864 744.496 70.864C743.548 70.864 743.008 71.284 743.008 71.992H742.024C742.024 70.768 743.032 69.964 744.544 69.964C745.996 69.964 746.98 70.732 746.98 72.316V76H746.02L745.9 75.052C745.6 75.724 744.796 76.144 743.848 76.144ZM744.172 75.268C745.24 75.268 745.888 74.572 745.888 73.468V73.156L744.388 73.276C743.392 73.372 742.984 73.756 742.984 74.332C742.984 74.956 743.44 75.268 744.172 75.268ZM748.063 74.296H749.143C749.143 74.896 749.599 75.256 750.343 75.256C751.135 75.256 751.591 74.932 751.591 74.392C751.591 73.996 751.399 73.756 750.787 73.6L749.755 73.36C748.711 73.108 748.219 72.592 748.219 71.728C748.219 70.648 749.131 69.964 750.427 69.964C751.711 69.964 752.551 70.684 752.575 71.8H751.495C751.471 71.212 751.075 70.84 750.391 70.84C749.683 70.84 749.287 71.152 749.287 71.692C749.287 72.088 749.575 72.352 750.151 72.496L751.183 72.748C752.179 72.988 752.671 73.444 752.671 74.32C752.671 75.436 751.711 76.144 750.319 76.144C748.939 76.144 748.063 75.412 748.063 74.296ZM754.691 76.144C754.223 76.144 753.827 75.76 753.827 75.304C753.827 74.836 754.223 74.452 754.691 74.452C755.147 74.452 755.543 74.836 755.543 75.304C755.543 75.76 755.147 76.144 754.691 76.144ZM759.156 76.144C757.452 76.144 756.42 74.872 756.42 73.084C756.42 71.284 757.464 69.964 759.204 69.964C760.104 69.964 760.86 70.36 761.256 71.08V67.168H762.372V76H761.364L761.268 74.932C760.884 75.736 760.092 76.144 759.156 76.144ZM759.384 75.124C760.536 75.124 761.244 74.272 761.244 73.048C761.244 71.848 760.536 70.984 759.384 70.984C758.232 70.984 757.56 71.848 757.56 73.048C757.56 74.26 758.232 75.124 759.384 75.124ZM766.532 76.144C764.804 76.144 763.616 74.896 763.616 73.072C763.616 71.236 764.78 69.964 766.484 69.964C768.152 69.964 769.244 71.116 769.244 72.856V73.276L764.708 73.288C764.792 74.524 765.44 75.208 766.556 75.208C767.432 75.208 768.008 74.848 768.2 74.176H769.256C768.968 75.436 767.984 76.144 766.532 76.144ZM766.484 70.912C765.5 70.912 764.876 71.5 764.732 72.532H768.116C768.116 71.56 767.48 70.912 766.484 70.912ZM771.948 76L769.584 70.132H770.784L772.068 73.408C772.272 73.96 772.44 74.452 772.536 74.812C772.632 74.428 772.824 73.924 773.028 73.408L774.336 70.132H775.512L773.064 76H771.948Z" fill="white"/>
<path d="M569.852 63.625C568.132 63.625 566.725 65.0481 566.725 66.7874V68.3686H565.161V74.6934H574.542V68.3686H572.979V66.7874C572.979 65.0481 571.571 63.625 569.852 63.625ZM569.852 65.2062C570.727 65.2062 571.415 65.9019 571.415 66.7874V68.3686H568.288V66.7874C568.288 65.9019 568.976 65.2062 569.852 65.2062Z" fill="#E3E3E4"/>
<path d="M51 245.996H154.711V289.941H93.1875V346.719H151.371V389.082H93.1875V500H51V245.996ZM306.234 495.078L311.156 500H262.289L261.586 498.594C257.719 490.156 255.785 480.547 255.785 469.766V416.68C255.785 406.719 255.082 400.273 253.676 397.344C251.449 392.773 246.41 390.488 238.559 390.488H222.914V500H181.078V245.645H258.07C275.062 245.645 286.43 252.148 292.172 265.156C295.336 272.539 296.918 284.551 296.918 301.191V327.91C296.918 341.27 295.336 351.113 292.172 357.441C289.242 363.184 284.086 367.52 276.703 370.449C291.117 377.48 298.324 391.719 298.324 413.164V463.789C298.324 479.492 300.961 489.922 306.234 495.078ZM255.258 328.262V304.707C255.258 296.738 253.793 291.582 250.863 289.238C249.105 287.832 245.59 287.129 240.316 287.129H222.914V349.531H240.316C246.996 349.531 251.332 347.539 253.324 343.555C254.613 340.977 255.258 335.879 255.258 328.262ZM396.41 242.48C414.809 242.48 429.398 247.871 440.18 258.652C449.789 268.262 454.594 284.668 454.594 307.871V445.859C454.594 464.961 450.727 479.199 442.992 488.574C433.383 500.879 417.973 507.031 396.762 507.031C357.27 507.031 337.523 486.641 337.523 445.859V306.816C337.523 286.895 341.273 272.07 348.773 262.344C358.852 249.102 374.73 242.48 396.41 242.48ZM412.23 439.18V311.035C412.23 301.426 411.469 294.746 409.945 290.996C407.602 285.605 403.09 282.91 396.41 282.91C389.262 282.91 384.457 285.781 381.996 291.523C380.238 295.508 379.359 302.598 379.359 312.793V438.125C379.359 447.383 380.238 453.887 381.996 457.637C384.34 462.91 389.086 465.547 396.234 465.547C403.031 465.547 407.543 463.027 409.77 457.988C411.41 454.355 412.23 448.086 412.23 439.18ZM561.645 245.996H600.492V500H549.34C533.051 416.797 522.445 362.539 517.523 337.227C517.992 363.008 518.988 417.266 520.512 500H480.961V245.996H532.992C549.281 327.441 559.945 380.586 564.984 405.43C564.398 380.117 563.285 326.973 561.645 245.996ZM626.859 245.996H743.93V287.48H706.488V500H664.301V287.48H626.859V245.996ZM1038.19 245.645H1141.02V289.238H1080.02V341.973H1137.33V385.215H1080.02V456.055H1143.66V500H1038.19V245.645ZM1250.71 245.996H1289.55V500H1238.4C1222.11 416.797 1211.51 362.539 1206.59 337.227C1207.05 363.008 1208.05 417.266 1209.57 500H1170.02V245.996H1222.05C1238.34 327.441 1249.01 380.586 1254.05 405.43C1253.46 380.117 1252.35 326.973 1250.71 245.996ZM1378.68 245.996C1397.07 245.996 1410.61 251.445 1419.28 262.344C1427.84 273.008 1432.11 290.293 1432.11 314.199V430.391C1432.11 451.953 1429.36 467.773 1423.85 477.852C1415.65 492.617 1400.47 500 1378.32 500H1315.92V245.996H1378.68ZM1390.45 434.258V310.332C1390.45 300.723 1389.05 294.512 1386.23 291.699C1383.77 289.121 1378.44 287.832 1370.24 287.832H1357.93V458.164C1369.89 458.164 1376.86 457.93 1378.85 457.461C1383.66 456.641 1386.94 454.004 1388.7 449.551C1389.87 446.387 1390.45 441.289 1390.45 434.258Z" fill="#777777"/>
<path d="M51 245.996H154.711V289.941H93.1875V346.719H151.371V389.082H93.1875V500H51V245.996ZM306.234 495.078L311.156 500H262.289L261.586 498.594C257.719 490.156 255.785 480.547 255.785 469.766V416.68C255.785 406.719 255.082 400.273 253.676 397.344C251.449 392.773 246.41 390.488 238.559 390.488H222.914V500H181.078V245.645H258.07C275.062 245.645 286.43 252.148 292.172 265.156C295.336 272.539 296.918 284.551 296.918 301.191V327.91C296.918 341.27 295.336 351.113 292.172 357.441C289.242 363.184 284.086 367.52 276.703 370.449C291.117 377.48 298.324 391.719 298.324 413.164V463.789C298.324 479.492 300.961 489.922 306.234 495.078ZM255.258 328.262V304.707C255.258 296.738 253.793 291.582 250.863 289.238C249.105 287.832 245.59 287.129 240.316 287.129H222.914V349.531H240.316C246.996 349.531 251.332 347.539 253.324 343.555C254.613 340.977 255.258 335.879 255.258 328.262ZM396.41 242.48C414.809 242.48 429.398 247.871 440.18 258.652C449.789 268.262 454.594 284.668 454.594 307.871V445.859C454.594 464.961 450.727 479.199 442.992 488.574C433.383 500.879 417.973 507.031 396.762 507.031C357.27 507.031 337.523 486.641 337.523 445.859V306.816C337.523 286.895 341.273 272.07 348.773 262.344C358.852 249.102 374.73 242.48 396.41 242.48ZM412.23 439.18V311.035C412.23 301.426 411.469 294.746 409.945 290.996C407.602 285.605 403.09 282.91 396.41 282.91C389.262 282.91 384.457 285.781 381.996 291.523C380.238 295.508 379.359 302.598 379.359 312.793V438.125C379.359 447.383 380.238 453.887 381.996 457.637C384.34 462.91 389.086 465.547 396.234 465.547C403.031 465.547 407.543 463.027 409.77 457.988C411.41 454.355 412.23 448.086 412.23 439.18ZM561.645 245.996H600.492V500H549.34C533.051 416.797 522.445 362.539 517.523 337.227C517.992 363.008 518.988 417.266 520.512 500H480.961V245.996H532.992C549.281 327.441 559.945 380.586 564.984 405.43C564.398 380.117 563.285 326.973 561.645 245.996ZM626.859 245.996H743.93V287.48H706.488V500H664.301V287.48H626.859V245.996ZM1038.19 245.645H1141.02V289.238H1080.02V341.973H1137.33V385.215H1080.02V456.055H1143.66V500H1038.19V245.645ZM1250.71 245.996H1289.55V500H1238.4C1222.11 416.797 1211.51 362.539 1206.59 337.227C1207.05 363.008 1208.05 417.266 1209.57 500H1170.02V245.996H1222.05C1238.34 327.441 1249.01 380.586 1254.05 405.43C1253.46 380.117 1252.35 326.973 1250.71 245.996ZM1378.68 245.996C1397.07 245.996 1410.61 251.445 1419.28 262.344C1427.84 273.008 1432.11 290.293 1432.11 314.199V430.391C1432.11 451.953 1429.36 467.773 1423.85 477.852C1415.65 492.617 1400.47 500 1378.32 500H1315.92V245.996H1378.68ZM1390.45 434.258V310.332C1390.45 300.723 1389.05 294.512 1386.23 291.699C1383.77 289.121 1378.44 287.832 1370.24 287.832H1357.93V458.164C1369.89 458.164 1376.86 457.93 1378.85 457.461C1383.66 456.641 1386.94 454.004 1388.7 449.551C1389.87 446.387 1390.45 441.289 1390.45 434.258Z" fill="#777777"/>
<path d="M51 245.996H154.711V289.941H93.1875V346.719H151.371V389.082H93.1875V500H51V245.996ZM306.234 495.078L311.156 500H262.289L261.586 498.594C257.719 490.156 255.785 480.547 255.785 469.766V416.68C255.785 406.719 255.082 400.273 253.676 397.344C251.449 392.773 246.41 390.488 238.559 390.488H222.914V500H181.078V245.645H258.07C275.062 245.645 286.43 252.148 292.172 265.156C295.336 272.539 296.918 284.551 296.918 301.191V327.91C296.918 341.27 295.336 351.113 292.172 357.441C289.242 363.184 284.086 367.52 276.703 370.449C291.117 377.48 298.324 391.719 298.324 413.164V463.789C298.324 479.492 300.961 489.922 306.234 495.078ZM255.258 328.262V304.707C255.258 296.738 253.793 291.582 250.863 289.238C249.105 287.832 245.59 287.129 240.316 287.129H222.914V349.531H240.316C246.996 349.531 251.332 347.539 253.324 343.555C254.613 340.977 255.258 335.879 255.258 328.262ZM396.41 242.48C414.809 242.48 429.398 247.871 440.18 258.652C449.789 268.262 454.594 284.668 454.594 307.871V445.859C454.594 464.961 450.727 479.199 442.992 488.574C433.383 500.879 417.973 507.031 396.762 507.031C357.27 507.031 337.523 486.641 337.523 445.859V306.816C337.523 286.895 341.273 272.07 348.773 262.344C358.852 249.102 374.73 242.48 396.41 242.48ZM412.23 439.18V311.035C412.23 301.426 411.469 294.746 409.945 290.996C407.602 285.605 403.09 282.91 396.41 282.91C389.262 282.91 384.457 285.781 381.996 291.523C380.238 295.508 379.359 302.598 379.359 312.793V438.125C379.359 447.383 380.238 453.887 381.996 457.637C384.34 462.91 389.086 465.547 396.234 465.547C403.031 465.547 407.543 463.027 409.77 457.988C411.41 454.355 412.23 448.086 412.23 439.18ZM561.645 245.996H600.492V500H549.34C533.051 416.797 522.445 362.539 517.523 337.227C517.992 363.008 518.988 417.266 520.512 500H480.961V245.996H532.992C549.281 327.441 559.945 380.586 564.984 405.43C564.398 380.117 563.285 326.973 561.645 245.996ZM626.859 245.996H743.93V287.48H706.488V500H664.301V287.48H626.859V245.996ZM1038.19 245.645H1141.02V289.238H1080.02V341.973H1137.33V385.215H1080.02V456.055H1143.66V500H1038.19V245.645ZM1250.71 245.996H1289.55V500H1238.4C1222.11 416.797 1211.51 362.539 1206.59 337.227C1207.05 363.008 1208.05 417.266 1209.57 500H1170.02V245.996H1222.05C1238.34 327.441 1249.01 380.586 1254.05 405.43C1253.46 380.117 1252.35 326.973 1250.71 245.996ZM1378.68 245.996C1397.07 245.996 1410.61 251.445 1419.28 262.344C1427.84 273.008 1432.11 290.293 1432.11 314.199V430.391C1432.11 451.953 1429.36 467.773 1423.85 477.852C1415.65 492.617 1400.47 500 1378.32 500H1315.92V245.996H1378.68ZM1390.45 434.258V310.332C1390.45 300.723 1389.05 294.512 1386.23 291.699C1383.77 289.121 1378.44 287.832 1370.24 287.832H1357.93V458.164C1369.89 458.164 1376.86 457.93 1378.85 457.461C1383.66 456.641 1386.94 454.004 1388.7 449.551C1389.87 446.387 1390.45 441.289 1390.45 434.258Z" fill="#777777"/>
<path d="M98.7539 544.996C117.152 544.996 130.688 550.445 139.359 561.344C147.914 572.008 152.191 589.293 152.191 613.199V729.391C152.191 750.953 149.438 766.773 143.93 776.852C135.727 791.617 120.551 799 98.4023 799H36V544.996H98.7539ZM110.531 733.258V609.332C110.531 599.723 109.125 593.512 106.312 590.699C103.852 588.121 98.5195 586.832 90.3164 586.832H78.0117V757.164C89.9648 757.164 96.9375 756.93 98.9297 756.461C103.734 755.641 107.016 753.004 108.773 748.551C109.945 745.387 110.531 740.289 110.531 733.258ZM178.734 544.645H281.566V588.238H220.57V640.973H277.875V684.215H220.57V755.055H284.203V799H178.734V544.645ZM389.32 544.996H432.211L393.188 799H351.703L310.57 544.996H355.043C364.418 623.16 370.336 672.262 372.797 692.301C375.023 672.262 380.531 623.16 389.32 544.996ZM458.578 544.645H561.41V588.238H500.414V640.973H557.719V684.215H500.414V755.055H564.047V799H458.578V544.645ZM590.414 544.996H632.074V755.758H687.27V799H590.414V544.996ZM772.699 541.48C791.098 541.48 805.688 546.871 816.469 557.652C826.078 567.262 830.883 583.668 830.883 606.871V744.859C830.883 763.961 827.016 778.199 819.281 787.574C809.672 799.879 794.262 806.031 773.051 806.031C733.559 806.031 713.812 785.641 713.812 744.859V605.816C713.812 585.895 717.562 571.07 725.062 561.344C735.141 548.102 751.02 541.48 772.699 541.48ZM788.52 738.18V610.035C788.52 600.426 787.758 593.746 786.234 589.996C783.891 584.605 779.379 581.91 772.699 581.91C765.551 581.91 760.746 584.781 758.285 590.523C756.527 594.508 755.648 601.598 755.648 611.793V737.125C755.648 746.383 756.527 752.887 758.285 756.637C760.629 761.91 765.375 764.547 772.523 764.547C779.32 764.547 783.832 762.027 786.059 756.988C787.699 753.355 788.52 747.086 788.52 738.18ZM857.25 544.645H934.945C950.883 544.645 961.488 551.559 966.762 565.387C969.809 573.238 971.332 586.012 971.332 603.707V636.051C971.332 658.668 969.047 673.785 964.477 681.402C958.852 690.777 946.957 695.465 928.793 695.465H899.438V799H857.25V544.645ZM930.023 634.996V609.684C930.023 600.309 929.438 594.449 928.266 592.105C926.508 588.824 922.289 587.184 915.609 587.184H899.438V654.332H915.258C921.703 654.332 925.746 653.395 927.387 651.52C929.145 649.293 930.023 643.785 930.023 634.996ZM997.875 544.645H1100.71V588.238H1039.71V640.973H1097.02V684.215H1039.71V755.055H1103.34V799H997.875V544.645ZM1254.87 794.078L1259.79 799H1210.92L1210.22 797.594C1206.35 789.156 1204.42 779.547 1204.42 768.766V715.68C1204.42 705.719 1203.71 699.273 1202.31 696.344C1200.08 691.773 1195.04 689.488 1187.19 689.488H1171.55V799H1129.71V544.645H1206.7C1223.7 544.645 1235.06 551.148 1240.8 564.156C1243.97 571.539 1245.55 583.551 1245.55 600.191V626.91C1245.55 640.27 1243.97 650.113 1240.8 656.441C1237.88 662.184 1232.72 666.52 1225.34 669.449C1239.75 676.48 1246.96 690.719 1246.96 712.164V762.789C1246.96 778.492 1249.59 788.922 1254.87 794.078ZM1203.89 627.262V603.707C1203.89 595.738 1202.43 590.582 1199.5 588.238C1197.74 586.832 1194.22 586.129 1188.95 586.129H1171.55V648.531H1188.95C1195.63 648.531 1199.96 646.539 1201.96 642.555C1203.25 639.977 1203.89 634.879 1203.89 627.262Z" fill="#777777"/>
<path d="M98.7539 544.996C117.152 544.996 130.688 550.445 139.359 561.344C147.914 572.008 152.191 589.293 152.191 613.199V729.391C152.191 750.953 149.438 766.773 143.93 776.852C135.727 791.617 120.551 799 98.4023 799H36V544.996H98.7539ZM110.531 733.258V609.332C110.531 599.723 109.125 593.512 106.312 590.699C103.852 588.121 98.5195 586.832 90.3164 586.832H78.0117V757.164C89.9648 757.164 96.9375 756.93 98.9297 756.461C103.734 755.641 107.016 753.004 108.773 748.551C109.945 745.387 110.531 740.289 110.531 733.258ZM178.734 544.645H281.566V588.238H220.57V640.973H277.875V684.215H220.57V755.055H284.203V799H178.734V544.645ZM389.32 544.996H432.211L393.188 799H351.703L310.57 544.996H355.043C364.418 623.16 370.336 672.262 372.797 692.301C375.023 672.262 380.531 623.16 389.32 544.996ZM458.578 544.645H561.41V588.238H500.414V640.973H557.719V684.215H500.414V755.055H564.047V799H458.578V544.645ZM590.414 544.996H632.074V755.758H687.27V799H590.414V544.996ZM772.699 541.48C791.098 541.48 805.688 546.871 816.469 557.652C826.078 567.262 830.883 583.668 830.883 606.871V744.859C830.883 763.961 827.016 778.199 819.281 787.574C809.672 799.879 794.262 806.031 773.051 806.031C733.559 806.031 713.812 785.641 713.812 744.859V605.816C713.812 585.895 717.562 571.07 725.062 561.344C735.141 548.102 751.02 541.48 772.699 541.48ZM788.52 738.18V610.035C788.52 600.426 787.758 593.746 786.234 589.996C783.891 584.605 779.379 581.91 772.699 581.91C765.551 581.91 760.746 584.781 758.285 590.523C756.527 594.508 755.648 601.598 755.648 611.793V737.125C755.648 746.383 756.527 752.887 758.285 756.637C760.629 761.91 765.375 764.547 772.523 764.547C779.32 764.547 783.832 762.027 786.059 756.988C787.699 753.355 788.52 747.086 788.52 738.18ZM857.25 544.645H934.945C950.883 544.645 961.488 551.559 966.762 565.387C969.809 573.238 971.332 586.012 971.332 603.707V636.051C971.332 658.668 969.047 673.785 964.477 681.402C958.852 690.777 946.957 695.465 928.793 695.465H899.438V799H857.25V544.645ZM930.023 634.996V609.684C930.023 600.309 929.438 594.449 928.266 592.105C926.508 588.824 922.289 587.184 915.609 587.184H899.438V654.332H915.258C921.703 654.332 925.746 653.395 927.387 651.52C929.145 649.293 930.023 643.785 930.023 634.996ZM997.875 544.645H1100.71V588.238H1039.71V640.973H1097.02V684.215H1039.71V755.055H1103.34V799H997.875V544.645ZM1254.87 794.078L1259.79 799H1210.92L1210.22 797.594C1206.35 789.156 1204.42 779.547 1204.42 768.766V715.68C1204.42 705.719 1203.71 699.273 1202.31 696.344C1200.08 691.773 1195.04 689.488 1187.19 689.488H1171.55V799H1129.71V544.645H1206.7C1223.7 544.645 1235.06 551.148 1240.8 564.156C1243.97 571.539 1245.55 583.551 1245.55 600.191V626.91C1245.55 640.27 1243.97 650.113 1240.8 656.441C1237.88 662.184 1232.72 666.52 1225.34 669.449C1239.75 676.48 1246.96 690.719 1246.96 712.164V762.789C1246.96 778.492 1249.59 788.922 1254.87 794.078ZM1203.89 627.262V603.707C1203.89 595.738 1202.43 590.582 1199.5 588.238C1197.74 586.832 1194.22 586.129 1188.95 586.129H1171.55V648.531H1188.95C1195.63 648.531 1199.96 646.539 1201.96 642.555C1203.25 639.977 1203.89 634.879 1203.89 627.262Z" fill="#777777"/>
<path d="M98.7539 544.996C117.152 544.996 130.688 550.445 139.359 561.344C147.914 572.008 152.191 589.293 152.191 613.199V729.391C152.191 750.953 149.438 766.773 143.93 776.852C135.727 791.617 120.551 799 98.4023 799H36V544.996H98.7539ZM110.531 733.258V609.332C110.531 599.723 109.125 593.512 106.312 590.699C103.852 588.121 98.5195 586.832 90.3164 586.832H78.0117V757.164C89.9648 757.164 96.9375 756.93 98.9297 756.461C103.734 755.641 107.016 753.004 108.773 748.551C109.945 745.387 110.531 740.289 110.531 733.258ZM178.734 544.645H281.566V588.238H220.57V640.973H277.875V684.215H220.57V755.055H284.203V799H178.734V544.645ZM389.32 544.996H432.211L393.188 799H351.703L310.57 544.996H355.043C364.418 623.16 370.336 672.262 372.797 692.301C375.023 672.262 380.531 623.16 389.32 544.996ZM458.578 544.645H561.41V588.238H500.414V640.973H557.719V684.215H500.414V755.055H564.047V799H458.578V544.645ZM590.414 544.996H632.074V755.758H687.27V799H590.414V544.996ZM772.699 541.48C791.098 541.48 805.688 546.871 816.469 557.652C826.078 567.262 830.883 583.668 830.883 606.871V744.859C830.883 763.961 827.016 778.199 819.281 787.574C809.672 799.879 794.262 806.031 773.051 806.031C733.559 806.031 713.812 785.641 713.812 744.859V605.816C713.812 585.895 717.562 571.07 725.062 561.344C735.141 548.102 751.02 541.48 772.699 541.48ZM788.52 738.18V610.035C788.52 600.426 787.758 593.746 786.234 589.996C783.891 584.605 779.379 581.91 772.699 581.91C765.551 581.91 760.746 584.781 758.285 590.523C756.527 594.508 755.648 601.598 755.648 611.793V737.125C755.648 746.383 756.527 752.887 758.285 756.637C760.629 761.91 765.375 764.547 772.523 764.547C779.32 764.547 783.832 762.027 786.059 756.988C787.699 753.355 788.52 747.086 788.52 738.18ZM857.25 544.645H934.945C950.883 544.645 961.488 551.559 966.762 565.387C969.809 573.238 971.332 586.012 971.332 603.707V636.051C971.332 658.668 969.047 673.785 964.477 681.402C958.852 690.777 946.957 695.465 928.793 695.465H899.438V799H857.25V544.645ZM930.023 634.996V609.684C930.023 600.309 929.438 594.449 928.266 592.105C926.508 588.824 922.289 587.184 915.609 587.184H899.438V654.332H915.258C921.703 654.332 925.746 653.395 927.387 651.52C929.145 649.293 930.023 643.785 930.023 634.996ZM997.875 544.645H1100.71V588.238H1039.71V640.973H1097.02V684.215H1039.71V755.055H1103.34V799H997.875V544.645ZM1254.87 794.078L1259.79 799H1210.92L1210.22 797.594C1206.35 789.156 1204.42 779.547 1204.42 768.766V715.68C1204.42 705.719 1203.71 699.273 1202.31 696.344C1200.08 691.773 1195.04 689.488 1187.19 689.488H1171.55V799H1129.71V544.645H1206.7C1223.7 544.645 1235.06 551.148 1240.8 564.156C1243.97 571.539 1245.55 583.551 1245.55 600.191V626.91C1245.55 640.27 1243.97 650.113 1240.8 656.441C1237.88 662.184 1232.72 666.52 1225.34 669.449C1239.75 676.48 1246.96 690.719 1246.96 712.164V762.789C1246.96 778.492 1249.59 788.922 1254.87 794.078ZM1203.89 627.262V603.707C1203.89 595.738 1202.43 590.582 1199.5 588.238C1197.74 586.832 1194.22 586.129 1188.95 586.129H1171.55V648.531H1188.95C1195.63 648.531 1199.96 646.539 1201.96 642.555C1203.25 639.977 1203.89 634.879 1203.89 627.262Z" fill="#777777"/>
<rect x="748" y="367" width="247" height="35" fill="#777777"/>
<path d="M62.7891 134.066L65.3789 151H62.5312C62.3438 149.391 62.2383 148.492 62.2148 148.305H60.1641C60.1406 148.484 60.0195 149.383 59.8008 151H57L59.6836 134.066H62.7891ZM60.5273 145.375H61.8984C61.8906 145.328 61.6719 143.441 61.2422 139.715C61.1562 140.363 61.0156 141.469 60.8203 143.031C60.6172 144.617 60.5195 145.398 60.5273 145.375ZM74.6953 139.105C74.6953 140.613 74.3125 141.543 73.5469 141.895C74.1016 142.121 74.4688 142.5 74.6484 143.031C74.7734 143.398 74.8359 144.031 74.8359 144.93V147.273C74.8359 148.859 74.5039 149.918 73.8398 150.449C73.3945 150.816 72.6406 151 71.5781 151H67.1484V134.066H71.4961C72.4883 134.066 73.207 134.238 73.6523 134.582C74.3477 135.137 74.6953 136.152 74.6953 137.629V139.105ZM69.9492 136.809V140.617C70.7695 140.609 71.2422 140.594 71.3672 140.57C71.7344 140.461 71.918 140.027 71.918 139.27C71.918 138.168 71.8906 137.535 71.8359 137.371V137.359C71.7266 136.992 71.3789 136.809 70.793 136.809H69.9492ZM72.0938 146.758V144.812C72.0938 144.203 72.0117 143.805 71.8477 143.617C71.6914 143.453 71.3633 143.371 70.8633 143.371H69.9492V148.234H70.8281C71.3516 148.234 71.6836 148.164 71.8242 148.023C72.0039 147.844 72.0938 147.422 72.0938 146.758ZM76.5938 151V134.066H79.3711V151H76.5938ZM86.5195 134.066H89.1094V151H85.6992C84.6133 145.453 83.9062 141.836 83.5781 140.148C83.6094 141.867 83.6758 145.484 83.7773 151H81.1406V134.066H84.6094C85.6953 139.496 86.4062 143.039 86.7422 144.695C86.7031 143.008 86.6289 139.465 86.5195 134.066ZM57 162.066H64.8047V164.832H62.3086V179H59.4961V164.832H57V162.066ZM71.332 162.066H74.1328V179H71.332V171.418H69.3516V179H66.5625V162.066H69.3516V168.582H71.332V162.066ZM79.8164 161.832C81.043 161.832 82.0156 162.191 82.7344 162.91C83.375 163.551 83.6953 164.645 83.6953 166.191V175.391C83.6953 176.664 83.4375 177.613 82.9219 178.238C82.2812 179.059 81.2539 179.469 79.8398 179.469C77.207 179.469 75.8906 178.109 75.8906 175.391V166.121C75.8906 164.793 76.1406 163.805 76.6406 163.156C77.3125 162.273 78.3711 161.832 79.8164 161.832ZM80.8711 174.945V166.402C80.8711 165.762 80.8203 165.316 80.7188 165.066C80.5625 164.707 80.2617 164.527 79.8164 164.527C79.3398 164.527 79.0195 164.719 78.8555 165.102C78.7383 165.367 78.6797 165.84 78.6797 166.52V174.875C78.6797 175.492 78.7383 175.926 78.8555 176.176C79.0117 176.527 79.3281 176.703 79.8047 176.703C80.2578 176.703 80.5586 176.535 80.707 176.199C80.8164 175.957 80.8711 175.539 80.8711 174.945ZM92.7188 162.066H97.0078V179H94.2305C94.332 172.938 94.3984 168.836 94.4297 166.695C94.1094 168.812 93.4844 172.914 92.5547 179H89.9648C89.0039 172.805 88.3633 168.676 88.043 166.613C88.0742 168.699 88.1328 172.828 88.2188 179H85.4531V162.066H89.7773C90.6055 167.988 91.1016 171.543 91.2656 172.73C91.4219 171.543 91.9062 167.988 92.7188 162.066ZM104.555 162.066L107.145 179H104.297C104.109 177.391 104.004 176.492 103.98 176.305H101.93C101.906 176.484 101.785 177.383 101.566 179H98.7656L101.449 162.066H104.555ZM102.293 173.375H103.664C103.656 173.328 103.438 171.441 103.008 167.715C102.922 168.363 102.781 169.469 102.586 171.031C102.383 172.617 102.285 173.398 102.293 173.375ZM114.926 170C115.535 170.539 115.977 171.098 116.25 171.676C116.508 172.207 116.637 173.109 116.637 174.383C116.637 176.008 116.48 177.125 116.168 177.734C115.59 178.891 114.477 179.469 112.828 179.469C110.219 179.469 108.914 178.148 108.914 175.508V172.906H111.715V175.016C111.715 175.625 111.758 176.035 111.844 176.246C111.984 176.582 112.293 176.75 112.77 176.75C113.246 176.75 113.555 176.566 113.695 176.199C113.789 175.934 113.836 175.359 113.836 174.477C113.836 173.531 113.578 172.848 113.062 172.426C111.477 171.129 110.684 170.477 110.684 170.469C109.566 169.539 109.008 168.191 109.008 166.426C109.008 164.746 109.352 163.559 110.039 162.863C110.703 162.176 111.645 161.832 112.863 161.832C113.855 161.832 114.672 162.109 115.312 162.664C116.078 163.328 116.461 164.301 116.461 165.582V167.41H113.684V166.027C113.684 165.504 113.645 165.152 113.566 164.973C113.441 164.676 113.168 164.527 112.746 164.527C112.418 164.527 112.176 164.617 112.02 164.797C111.84 165.023 111.75 165.418 111.75 165.98C111.75 166.598 111.809 167.043 111.926 167.316C112.004 167.512 112.184 167.727 112.465 167.961C114.105 169.32 114.926 170 114.926 170Z" fill="#777777"/>
<line x1="50.9933" y1="892" x2="1393.01" y2="892" stroke="#777777" stroke-width="4"/>
</g>
<defs>
<clipPath id="clip0_34_2">
<rect width="1491.48" height="956.71" fill="white"/>
</clipPath>
</defs>
</svg>
