<svg width="150" height="154" viewBox="0 0 150 154" fill="none" xmlns="http://www.w3.org/2000/svg">
<rect width="150" height="153.783" fill="#1A202C"/>
<g clip-path="url(#clip0_57_142)">
<path d="M119 58.252V86.6156C118.999 87.3848 118.692 88.1223 118.145 88.6662C117.599 89.2101 116.859 89.5161 116.086 89.517H94.2354L94.4383 89.2613L118.743 58.5768L119 58.252Z" fill="#F2F2F2"/>
<path d="M64.7794 48.2612H39.6888C39.4832 48.2612 39.286 48.3425 39.1406 48.4873C38.9952 48.632 38.9136 48.8284 38.9136 49.0331C38.9136 49.2378 38.9952 49.4341 39.1406 49.5788C39.286 49.7236 39.4832 49.8049 39.6888 49.8049H64.7794C64.985 49.8049 65.1822 49.7236 65.3276 49.5788C65.4729 49.4341 65.5546 49.2378 65.5546 49.0331C65.5546 48.8284 65.4729 48.632 65.3276 48.4873C65.1822 48.3425 64.985 48.2612 64.7794 48.2612Z" fill="#E6E6E6"/>
<path d="M47.4682 43.9331H39.6888C39.4832 43.9331 39.286 44.0144 39.1406 44.1592C38.9952 44.3039 38.9136 44.5002 38.9136 44.705C38.9136 44.9097 38.9952 45.106 39.1406 45.2507C39.286 45.3955 39.4832 45.4768 39.6888 45.4768H47.4682C47.6738 45.4768 47.8709 45.3955 48.0163 45.2507C48.1617 45.106 48.2434 44.9097 48.2434 44.705C48.2434 44.5002 48.1617 44.3039 48.0163 44.1592C47.8709 44.0144 47.6738 43.9331 47.4682 43.9331Z" fill="#E6E6E6"/>
<path d="M116.086 22H32.914C32.1415 22.0009 31.4008 22.3069 30.8545 22.8508C30.3082 23.3948 30.0009 24.1322 30 24.9015V86.6158C30.0009 87.385 30.3082 88.1225 30.8545 88.6664C31.4008 89.2103 32.1415 89.5163 32.914 89.5172H116.086C116.859 89.5163 117.599 89.2103 118.145 88.6664C118.692 88.1225 118.999 87.385 119 86.6158V24.9015C118.999 24.1322 118.692 23.3948 118.145 22.8508C117.599 22.3069 116.859 22.0009 116.086 22ZM118.743 86.6158C118.743 86.9632 118.674 87.3073 118.541 87.6283C118.407 87.9492 118.212 88.2409 117.965 88.4866C117.718 88.7323 117.425 88.9271 117.103 89.0601C116.78 89.1931 116.435 89.2615 116.086 89.2615H32.914C32.2093 89.2615 31.5334 88.9828 31.0351 88.4866C30.5368 87.9904 30.2569 87.3175 30.2569 86.6158V42.1625C30.2569 36.8829 32.3633 31.8196 36.1127 28.0863C39.8621 24.3531 44.9474 22.2557 50.2498 22.2557H116.086C116.435 22.2557 116.78 22.3242 117.103 22.4571C117.425 22.5901 117.718 22.785 117.965 23.0307C118.212 23.2763 118.407 23.568 118.541 23.889C118.674 24.21 118.743 24.554 118.743 24.9015V86.6158Z" fill="#E6E6E6"/>
<path d="M110.895 33.1596H38.1113C38.0773 33.1596 38.0446 33.1461 38.0205 33.1221C37.9964 33.0981 37.9829 33.0656 37.9829 33.0317C37.9829 32.9978 37.9964 32.9652 38.0205 32.9413C38.0446 32.9173 38.0773 32.9038 38.1113 32.9038H110.895C110.929 32.9038 110.962 32.9173 110.986 32.9413C111.01 32.9652 111.023 32.9978 111.023 33.0317C111.023 33.0656 111.01 33.0981 110.986 33.1221C110.962 33.1461 110.929 33.1596 110.895 33.1596Z" fill="#E6E6E6"/>
<path d="M41.7531 29.3203C42.3529 29.3203 42.8391 28.8254 42.8391 28.2149C42.8391 27.6043 42.3529 27.1094 41.7531 27.1094C41.1532 27.1094 40.667 27.6043 40.667 28.2149C40.667 28.8254 41.1532 29.3203 41.7531 29.3203Z" fill="#E11D48"/>
<path d="M45.505 29.3203C46.1048 29.3203 46.5911 28.8254 46.5911 28.2149C46.5911 27.6043 46.1048 27.1094 45.505 27.1094C44.9052 27.1094 44.4189 27.6043 44.4189 28.2149C44.4189 28.8254 44.9052 29.3203 45.505 29.3203Z" fill="#E6E6E6"/>
<path d="M49.2565 29.3203C49.8563 29.3203 50.3425 28.8254 50.3425 28.2149C50.3425 27.6043 49.8563 27.1094 49.2565 27.1094C48.6567 27.1094 48.1704 27.6043 48.1704 28.2149C48.1704 28.8254 48.6567 29.3203 49.2565 29.3203Z" fill="#E6E6E6"/>
<path d="M53.5346 29.0887C53.5175 29.0887 53.5005 29.0853 53.4848 29.0787C53.469 29.0721 53.4547 29.0624 53.4428 29.0502L52.71 28.3043C52.6865 28.2804 52.6733 28.2483 52.6733 28.2149C52.6733 28.1815 52.6865 28.1494 52.71 28.1255L53.4428 27.3797C53.4545 27.3675 53.4686 27.3577 53.4842 27.351C53.4997 27.3442 53.5165 27.3406 53.5334 27.3403C53.5504 27.3401 53.5672 27.3432 53.583 27.3494C53.5988 27.3557 53.6131 27.365 53.6253 27.3768C53.6374 27.3886 53.6471 27.4027 53.6537 27.4183C53.6603 27.4338 53.6638 27.4505 53.6639 27.4674C53.664 27.4843 53.6607 27.5011 53.6543 27.5167C53.6479 27.5323 53.6384 27.5465 53.6264 27.5585L52.9814 28.2149L53.6264 28.8714C53.6441 28.8894 53.656 28.9122 53.6607 28.9369C53.6655 28.9616 53.6628 28.9872 53.653 29.0104C53.6432 29.0336 53.6267 29.0534 53.6056 29.0673C53.5846 29.0813 53.5599 29.0887 53.5346 29.0887Z" fill="#E6E6E6"/>
<path d="M54.7661 29.0889C54.7408 29.0889 54.7161 29.0814 54.6951 29.0675C54.674 29.0536 54.6575 29.0338 54.6477 29.0106C54.6379 28.9874 54.6352 28.9618 54.64 28.9371C54.6447 28.9123 54.6566 28.8896 54.6743 28.8716L55.3192 28.2151L54.6743 27.5587C54.6509 27.5344 54.638 27.5018 54.6386 27.4681C54.6391 27.4344 54.653 27.4023 54.6772 27.3787C54.7014 27.3552 54.7339 27.3421 54.7678 27.3423C54.8016 27.3425 54.834 27.356 54.8579 27.3799L55.5907 28.1257C55.6142 28.1496 55.6273 28.1817 55.6273 28.2151C55.6273 28.2485 55.6142 28.2806 55.5907 28.3045L54.8579 29.0504C54.846 29.0626 54.8317 29.0723 54.8159 29.0789C54.8002 29.0855 54.7832 29.0889 54.7661 29.0889Z" fill="#E6E6E6"/>
<path d="M104.405 27.2378H103.042C103.005 27.2378 102.968 27.245 102.934 27.2591C102.9 27.2732 102.869 27.2938 102.843 27.3198C102.817 27.3458 102.796 27.3767 102.782 27.4107C102.768 27.4446 102.761 27.4811 102.761 27.5178V28.8759C102.761 28.9126 102.768 28.9491 102.782 28.983C102.796 29.017 102.817 29.0479 102.843 29.0739C102.869 29.0999 102.9 29.1205 102.934 29.1346C102.968 29.1487 103.005 29.1559 103.042 29.1559H104.405C104.479 29.156 104.551 29.1265 104.604 29.074C104.657 29.0215 104.687 28.9503 104.687 28.8759V27.5178C104.687 27.4434 104.657 27.3722 104.604 27.3197C104.551 27.2672 104.479 27.2377 104.405 27.2378Z" fill="#E6E6E6"/>
<path d="M101.065 27.2378H99.7026C99.6657 27.2378 99.6291 27.245 99.595 27.2591C99.5609 27.2732 99.5299 27.2938 99.5037 27.3198C99.4776 27.3458 99.4569 27.3767 99.4428 27.4107C99.4286 27.4446 99.4214 27.4811 99.4214 27.5178V28.8759C99.4214 28.9126 99.4286 28.9491 99.4428 28.983C99.4569 29.017 99.4776 29.0479 99.5037 29.0739C99.5299 29.0999 99.5609 29.1205 99.595 29.1346C99.6291 29.1487 99.6657 29.1559 99.7026 29.1559H101.065C101.14 29.156 101.212 29.1265 101.265 29.074C101.318 29.0215 101.348 28.9503 101.348 28.8759V27.5178C101.348 27.4434 101.318 27.3722 101.265 27.3197C101.212 27.2672 101.14 27.2377 101.065 27.2378Z" fill="#E6E6E6"/>
<path d="M107.551 27.3013H106.188C106.152 27.3013 106.115 27.3085 106.081 27.3226C106.047 27.3366 106.016 27.3573 105.99 27.3833C105.963 27.4093 105.943 27.4402 105.929 27.4741C105.914 27.5081 105.907 27.5445 105.907 27.5813V28.9393C105.907 28.9761 105.914 29.0125 105.929 29.0465C105.943 29.0805 105.963 29.1114 105.99 29.1374C106.016 29.1634 106.047 29.184 106.081 29.1981C106.115 29.2121 106.152 29.2194 106.188 29.2194H107.551C107.626 29.2194 107.698 29.19 107.751 29.1375C107.803 29.085 107.833 29.0137 107.834 28.9393V27.5813C107.833 27.5069 107.803 27.4356 107.751 27.3831C107.698 27.3306 107.626 27.3012 107.551 27.3013Z" fill="#E6E6E6"/>
<path d="M79.9492 27.8179H69.0573C68.9663 27.8179 68.8791 27.8538 68.8148 27.9179C68.7505 27.9819 68.7144 28.0687 68.7144 28.1593C68.7144 28.2498 68.7505 28.3367 68.8148 28.4007C68.8791 28.4647 68.9663 28.5007 69.0573 28.5007H79.9492C80.0401 28.5007 80.1273 28.4647 80.1916 28.4007C80.2559 28.3367 80.2921 28.2498 80.2921 28.1593C80.2921 28.0687 80.2559 27.9819 80.1916 27.9179C80.1273 27.8538 80.0401 27.8179 79.9492 27.8179Z" fill="#E6E6E6"/>
<path d="M50.7548 74.4853L44.2414 74.2803C43.338 74.2519 42.3221 74.2533 41.6777 74.7182C40.9464 75.2458 41.0572 76.1805 41.6644 76.7867C42.2715 77.393 43.2411 77.7393 44.1926 78.021C49.248 79.5171 54.8429 79.8208 60.2754 79.4823C65.7079 79.1437 71.0286 78.1867 76.3231 77.2329C76.8252 77.1425 77.3944 77.0123 77.5991 76.6644C77.7972 76.3278 77.538 75.9219 77.1354 75.7043C76.7328 75.4868 76.2224 75.4135 75.73 75.3487C66.8111 74.1817 57.7957 73.9257 48.8244 74.5846" fill="#E11D48"/>
<path d="M62.4576 69.4973V67.9628C61.3392 67.9786 57.3371 67.9514 56.2931 67.9628C56.2154 73.326 55.7391 72.2754 60.1521 72.2963C60.3549 72.2971 60.5492 72.3777 60.6924 72.5207C60.8356 72.6637 60.9162 72.8573 60.9165 73.0593V73.0823C60.9165 73.2846 60.8358 73.4786 60.6921 73.6216C60.5484 73.7646 60.3536 73.845 60.1504 73.845H56.2931V75.3795H62.4576C62.4662 75.3743 62.4514 73.8978 62.4576 73.845C62.7183 69.3995 62.2025 70.9983 58.4551 70.8201C58.2874 70.8115 58.1295 70.7391 58.0139 70.6179C57.8983 70.4966 57.834 70.3358 57.8342 70.1686V70.1494C57.8342 69.9765 57.9032 69.8106 58.026 69.6883C58.1489 69.566 58.3154 69.4973 58.4891 69.4973H62.4576Z" fill="#3F3D56"/>
<path d="M70.0347 69.4973V67.9628C68.9164 67.9786 64.9143 67.9514 63.8702 67.9628C63.7919 73.3726 63.308 72.2567 67.8453 72.2971C68.0179 72.2988 68.1828 72.3683 68.3042 72.4904C68.4255 72.6125 68.4936 72.7774 68.4937 72.9492C68.4936 73.0298 68.4936 73.1123 68.4936 73.1931C68.4936 73.2787 68.4767 73.3635 68.4438 73.4426C68.4108 73.5217 68.3626 73.5936 68.3018 73.6541C68.241 73.7146 68.1687 73.7627 68.0893 73.7954C68.0098 73.8282 67.9247 73.845 67.8387 73.845H63.8702V75.3795H70.0347C70.0434 75.3743 70.0285 73.8978 70.0348 73.845C70.2954 69.3995 69.7797 70.9983 66.0322 70.8201C65.8646 70.8115 65.7066 70.7391 65.591 70.6179C65.4755 70.4966 65.4111 70.3358 65.4113 70.1686V70.1494C65.4114 69.9765 65.4804 69.8106 65.6032 69.6883C65.726 69.566 65.8926 69.4973 66.0663 69.4973H70.0347Z" fill="#3F3D56"/>
<path d="M54.4949 69.4974V67.9629H48.3304C48.326 69.3316 48.3335 72.954 48.3304 74.3566C47.122 76.3934 53.9866 74.9832 54.4952 75.3801C54.4949 75.3796 54.4949 73.8451 54.4949 73.8451C49.8046 73.8207 49.6867 74.6949 49.8376 70.4654C49.8467 70.2057 49.9566 69.9596 50.1443 69.7791C50.332 69.5985 50.5827 69.4975 50.8437 69.4973C52.1997 69.4974 54.4949 69.4974 54.4949 69.4974Z" fill="#3F3D56"/>
<path d="M66.6796 56.1566L60.1662 55.9857C59.2628 55.962 58.2469 55.9632 57.6026 56.3507C56.8712 56.7904 56.982 57.5696 57.5892 58.075C58.1963 58.5803 59.1659 58.869 60.1174 59.1038C65.1728 60.3509 70.7677 60.6041 76.2002 60.3219C81.6327 60.0397 86.9534 59.242 92.2479 58.4469C92.75 58.3715 93.3192 58.263 93.5239 57.973C93.722 57.6924 93.4628 57.354 93.0602 57.1727C92.6576 56.9914 92.1472 56.9302 91.6548 56.8763C82.7207 55.9031 73.7196 55.69 64.7492 56.2393" fill="#E11D48"/>
<path d="M65.5396 49.4214C65.4346 51.7904 66.3091 52.5361 63.292 52.2343C63.0881 50.8211 64.1219 48.8598 61.751 49.3577C62.226 50.383 60.4279 58.1611 63.2916 56.7737C63.4525 54.4368 62.3924 53.4119 65.5397 53.7694C65.7921 55.214 64.614 57.3398 67.0806 56.8378C66.6057 55.8121 68.4038 48.0347 65.5396 49.4214Z" fill="#3F3D56"/>
<path d="M81.336 49.4211C81.5476 49.5511 79.398 51.8154 79.3516 52.0009C79.2871 51.8426 77.2355 49.6273 77.4832 49.4212C74.6283 48.0165 76.4076 55.8398 75.9416 56.8381C75.9421 56.8378 77.4832 56.8378 77.4832 56.8378V51.9788C79.6494 54.8879 79.2471 54.3984 81.3361 51.836L81.336 56.8378C84.1908 58.2429 82.4117 50.4187 82.8777 49.4208C82.8771 49.4211 81.336 49.4211 81.336 49.4211Z" fill="#3F3D56"/>
<path d="M74.5296 49.4214H68.3651C68.0028 51.5725 69.2005 50.851 70.6769 50.9558L70.6767 56.8381H72.2179V50.9559C73.6875 50.8564 74.8963 51.563 74.5296 49.4214Z" fill="#3F3D56"/>
<path d="M85.7027 55.3036C85.3467 53.3589 85.3467 51.3661 85.7027 49.4214H84.1616C84.1704 50.3936 84.1588 54.3167 84.1597 56.1107C84.1596 56.3043 84.2368 56.49 84.3742 56.627C84.5116 56.764 84.698 56.841 84.8925 56.8412C86.4452 56.8432 89.4093 56.8318 90.3261 56.8381L90.3261 55.3036H85.7027Z" fill="#3F3D56"/>
<path d="M46.3333 55.5591H40.0694C39.7629 55.5591 39.4689 55.6803 39.2521 55.8962C39.0353 56.112 38.9136 56.4047 38.9136 56.7099C38.9136 57.0152 39.0353 57.3079 39.2521 57.5237C39.4689 57.7396 39.7629 57.8608 40.0694 57.8608H46.3333C46.6399 57.8608 46.9339 57.7396 47.1507 57.5237C47.3674 57.3079 47.4892 57.0152 47.4892 56.7099C47.4892 56.4047 47.3674 56.112 47.1507 55.8962C46.9339 55.6803 46.6399 55.5591 46.3333 55.5591Z" fill="#E6E6E6"/>
<path d="M103.125 88.1834L101.854 88.1833L101.249 83.2998L103.126 83.2999L103.125 88.1834Z" fill="#FFB6B6"/>
<path d="M103.17 89.5042L99.2598 89.504V89.4548C99.2598 89.0529 99.4202 88.6675 99.7056 88.3833C99.991 88.0991 100.378 87.9395 100.782 87.9394L101.496 87.3999L102.829 87.9395L103.17 87.9395L103.17 89.5042Z" fill="#2F2E41"/>
<path d="M107.62 88.1834L106.349 88.1833L105.744 83.2998L107.62 83.2999L107.62 88.1834Z" fill="#FFB6B6"/>
<path d="M107.665 89.5042L103.755 89.504V89.4548C103.755 89.0529 103.915 88.6675 104.201 88.3833C104.486 88.0991 104.873 87.9395 105.277 87.9394L105.991 87.3999L107.324 87.9395L107.665 87.9395L107.665 89.5042Z" fill="#2F2E41"/>
<path d="M99.9594 61.5742C99.9594 61.5742 98.736 65.3156 98.9618 65.808C99.1877 66.3004 99.5729 65.9168 99.1877 66.3004C98.8024 66.684 98.466 66.2762 98.8269 66.9277C99.1877 67.5791 99.7343 72.9421 99.9747 73.2017C100.215 73.4613 100.546 73.4683 100.252 73.7205C99.9582 73.9728 99.5729 73.4613 99.9582 73.9728C100.343 74.4843 101.366 86.2839 101.366 86.2839H103.363C103.363 86.2839 103.86 85.713 103.579 85.3415C103.297 84.9699 103.604 84.8267 103.579 84.5786C103.554 84.3306 103.648 83.7957 103.665 83.5516C103.683 83.3076 104.02 77.4933 103.209 74.1346L104.688 67.7394L105.427 75.4689C105.427 75.4689 104.603 81.9523 105.427 84.0366C105.427 84.0366 104.763 84.5873 105.058 84.9065C105.352 85.2257 105.609 84.9699 105.352 85.2257C105.095 85.4814 105.737 86.3766 105.737 86.3766L107.921 86.2487L109.156 74.1346C109.156 74.1346 109.365 72.8713 109.156 72.6548C108.948 72.4383 108.948 73.2056 108.948 72.4383V71.4153C108.948 71.4153 109.879 65.1234 109.863 64.7528C109.847 64.3823 108.306 61.697 108.306 61.697L99.9594 61.5742Z" fill="#2F2E41"/>
<path d="M106.417 46.4429L103.229 46.2246L102.275 47.7223L99.9775 48.6523V56.0299C100.217 56.7442 100.34 57.4918 100.344 58.2447C100.335 59.7146 99.9554 61.446 100.087 61.8252C101.371 65.5335 108.434 61.8252 108.434 61.8252L108.306 57.8611L108.48 48.9024L107.037 47.7561L106.417 46.4429Z" fill="#E6E6E6"/>
<path d="M99.83 63.1757L99.6102 60.8431L98.2544 60.7822L98.5749 63.2401C98.4927 63.3609 98.4459 63.5021 98.4399 63.6479C98.4339 63.7937 98.4688 63.9382 98.5407 64.0653C98.6127 64.1924 98.7188 64.297 98.8472 64.3673C98.9756 64.4377 99.1211 64.4709 99.2675 64.4634C99.4138 64.4559 99.5551 64.4079 99.6756 64.3248C99.796 64.2417 99.8908 64.1268 99.9492 63.993C100.008 63.8592 100.027 63.7118 100.006 63.5674C99.9853 63.4231 99.9243 63.2874 99.83 63.1757Z" fill="#FFB6B6"/>
<path d="M100.497 48.4551L100.46 48.4614C100.11 48.5204 99.7802 48.6634 99.4986 48.8779C99.2169 49.0924 98.9921 49.3721 98.8435 49.6926C98.4552 50.5287 97.1945 56.0245 97.7471 56.8533C98.1758 57.4961 98.0716 57.3707 97.8701 57.8556C97.6686 58.3405 97.3441 57.8231 97.6101 58.5926C97.8761 59.3621 98.1683 59.2523 97.9215 59.5497C97.6746 59.847 97.4213 59.7887 97.6614 60.2867C97.9015 60.7847 97.8625 60.9528 97.9079 61.1403C97.9532 61.3278 97.9138 62.6469 97.9138 62.6469C97.9138 62.6469 99.362 62.5375 100.083 62.8804C100.083 62.8804 99.6805 61.5483 99.9079 61.335C100.135 61.1217 100.408 61.096 100.213 60.7855C100.019 60.4751 99.577 60.462 100.058 60.307C100.538 60.152 100.383 57.3716 100.383 57.3716C101.175 55.3076 100.862 51.9128 100.497 48.4551Z" fill="#E6E6E6"/>
<path d="M109.23 63.3421L109.331 61.0015L110.682 60.8726L110.486 63.3434C110.575 63.4599 110.628 63.5986 110.642 63.7439C110.655 63.8892 110.628 64.0353 110.562 64.1659C110.497 64.2964 110.396 64.4062 110.272 64.4829C110.147 64.5596 110.003 64.6001 109.857 64.6C109.71 64.5998 109.567 64.559 109.442 64.482C109.318 64.4051 109.217 64.2951 109.152 64.1644C109.087 64.0337 109.06 63.8875 109.073 63.7422C109.087 63.597 109.141 63.4584 109.23 63.3421Z" fill="#FFB6B6"/>
<path d="M107.817 48.6738L107.855 48.6783C108.207 48.7196 108.544 48.8458 108.836 49.0459C109.128 49.2461 109.367 49.5141 109.532 49.8267C109.962 50.6422 111.323 56.1653 110.989 56.9232C110.679 57.6301 110.692 57.4563 110.917 57.9304C111.143 58.4045 111.441 57.8715 111.214 58.6534C110.988 59.4353 110.69 59.3403 110.952 59.6249C111.214 59.9095 111.464 59.8385 111.249 60.3479C111.035 60.8573 111.082 61.0232 111.046 61.2128C111.01 61.4024 111.117 62.7178 111.117 62.7178C111.117 62.7178 109.665 62.6813 108.962 63.06C108.962 63.06 109.296 61.7094 109.059 61.5078C108.821 61.3062 108.547 61.2941 108.726 60.9743C108.904 60.6545 109.345 60.6192 108.857 60.4886C108.369 60.3579 108.383 57.5732 108.383 57.5732L107.817 48.6738Z" fill="#E6E6E6"/>
<path d="M104.901 45.7555C106.274 45.7555 107.387 44.647 107.387 43.2796C107.387 41.9122 106.274 40.8037 104.901 40.8037C103.527 40.8037 102.414 41.9122 102.414 43.2796C102.414 44.647 103.527 45.7555 104.901 45.7555Z" fill="#FFB6B6"/>
<path d="M106.631 45.3987C106.977 45.1292 107.011 44.6156 107.306 44.2918C107.799 43.7504 108.031 43.1679 107.773 42.5264C107.544 41.9591 107.593 41.2616 107.1 40.8964C107.342 40.8092 107.399 40.6282 107.185 40.6249C107.042 40.6226 106.505 40.8964 106.763 40.5553C107.021 40.2142 106.533 40.3489 106.565 40.2092C106.597 40.0696 106.805 39.9923 106.896 40.1029C106.819 40.0245 106.725 39.9646 106.621 39.9279C106.517 39.8911 106.406 39.8785 106.296 39.891C106.187 39.9035 106.081 39.9407 105.988 39.9999C105.896 40.059 105.817 40.1385 105.76 40.2323C105.469 39.7983 105.16 39.4997 104.715 39.7751C104.278 40.0456 104.284 40.38 103.814 40.2996C103.593 40.2619 103.572 40.6775 103.421 40.8426C103.351 40.9303 103.261 40.9993 103.157 41.0432C103.054 41.0871 102.941 41.1045 102.829 41.0939C102.609 41.0525 102.441 40.7791 102.564 40.5928L102.045 41.7722L101.836 41.5166C101.503 41.7324 101.612 42.2954 101.947 42.5078C102.282 42.7202 102.717 42.6748 103.102 42.5806C103.566 42.4673 104.045 42.4277 104.521 42.4634C105.249 42.5658 105.756 43.432 105.486 44.1128C105.766 43.8395 106.283 44.0663 106.428 44.4288C106.573 44.7914 106.467 45.1998 106.359 45.575" fill="#2F2E41"/>
</g>
<path d="M46.7773 121.324C46.7773 122.968 45.4573 124.12 43.2973 124.12C41.1253 124.12 39.7693 122.956 39.6373 121.132H41.4853C41.5333 122.08 42.1453 122.692 43.2613 122.692C44.1853 122.692 44.8453 122.284 44.8453 121.588C44.8453 121.048 44.4253 120.724 43.6933 120.58L42.2773 120.304C40.9693 120.052 39.9613 119.344 39.9613 117.916C39.9613 116.38 41.3173 115.276 43.1773 115.276C45.1093 115.276 46.5253 116.404 46.6453 118.204H44.7973C44.7373 117.304 44.1133 116.692 43.2013 116.692C42.3133 116.692 41.8093 117.196 41.8093 117.796C41.8093 118.384 42.3493 118.636 42.9733 118.756L44.4493 119.056C45.9613 119.356 46.7773 120.052 46.7773 121.324ZM51.7048 124H49.8808V117.028H47.1688V115.384H54.4288V117.028H51.7048V124ZM60.5386 124L59.8906 122.152H56.5426L55.8826 124H54.0466L57.2866 115.384H59.2786L62.4946 124H60.5386ZM58.2346 117.376L57.0586 120.7H59.3866L58.2346 117.376ZM66.658 124H64.834V117.028H62.122V115.384H69.382V117.028H66.658V124ZM72.294 124H70.47V115.384H72.294V124ZM77.872 124.18C75.448 124.18 73.552 122.212 73.552 119.68C73.552 117.16 75.448 115.204 77.872 115.204C80.14 115.204 81.916 116.716 82.216 118.924H80.284C80.08 117.688 79.12 116.836 77.896 116.836C76.42 116.836 75.424 118 75.424 119.68C75.424 121.372 76.42 122.548 77.896 122.548C79.12 122.548 80.068 121.684 80.284 120.448H82.216C81.916 122.68 80.14 124.18 77.872 124.18ZM92.5374 124L90.9294 117.976L89.3214 124H87.4734L85.2654 115.384H87.0414L88.4334 121.228L90.0174 115.384H91.8774L93.4134 121.252L94.8174 115.384H96.6054L94.3854 124H92.5374ZM103.43 122.416V124H97.6341V115.384H103.346V116.968H99.4581V118.78H102.986V120.352H99.4581V122.416H103.43ZM111.285 121.468C111.285 123.064 110.109 124 108.213 124H104.841V115.384H108.081C109.893 115.384 111.009 116.2 111.009 117.676C111.009 118.468 110.565 119.104 109.797 119.5C110.757 119.836 111.285 120.52 111.285 121.468ZM107.937 116.824H106.497V118.828H107.937C108.825 118.828 109.281 118.444 109.281 117.82C109.281 117.208 108.825 116.824 107.937 116.824ZM108.069 120.28H106.497V122.56H108.069C109.053 122.56 109.569 122.128 109.569 121.396C109.569 120.712 109.053 120.28 108.069 120.28ZM34.3308 140H31.2708V131.384H34.3308C37.0668 131.384 38.7228 133.136 38.7228 135.644C38.7228 138.152 37.0068 140 34.3308 140ZM33.0948 132.956V138.428H34.2348C35.9508 138.428 36.8508 137.432 36.8508 135.644C36.8508 133.928 35.9508 132.956 34.2348 132.956H33.0948ZM45.7856 138.416V140H39.9896V131.384H45.7016V132.968H41.8136V134.78H45.3416V136.352H41.8136V138.416H45.7856ZM54.6126 131.384L51.4926 140H49.5006L46.4046 131.384H48.3726L50.5566 137.876L52.7886 131.384H54.6126ZM61.3949 138.416V140H55.5989V131.384H61.3109V132.968H57.4229V134.78H60.9509V136.352H57.4229V138.416H61.3949ZM68.374 140H62.806V131.384H64.63V138.356H68.374V140ZM72.8114 140.18C70.3274 140.18 68.4074 138.26 68.4074 135.68C68.4074 133.1 70.3274 131.204 72.8114 131.204C75.3074 131.204 77.2394 133.1 77.2394 135.68C77.2394 138.26 75.3074 140.18 72.8114 140.18ZM72.8114 138.548C74.3954 138.548 75.3554 137.264 75.3554 135.68C75.3554 134.096 74.3954 132.836 72.8114 132.836C71.2394 132.836 70.2794 134.096 70.2794 135.68C70.2794 137.264 71.2394 138.548 72.8114 138.548ZM81.6774 137.192H80.3214V140H78.4974V131.384H81.6774C83.7774 131.384 85.0854 132.38 85.0854 134.252C85.0854 136.124 83.7774 137.192 81.6774 137.192ZM81.6654 132.92H80.3214V135.656H81.6654C82.6974 135.656 83.2734 135.116 83.2734 134.264C83.2734 133.412 82.6974 132.92 81.6654 132.92ZM90.2375 140L87.9815 134.276V140H86.3255V131.384H88.5095L91.0055 137.768L93.5135 131.384H95.6975V140H94.0415V134.228L91.7615 140H90.2375ZM103.254 138.416V140H97.4583V131.384H103.17V132.968H99.2823V134.78H102.81V136.352H99.2823V138.416H103.254ZM110.281 140L106.333 133.988V140H104.665V131.384H106.633L110.389 137.096V131.384H112.069V140H110.281ZM117.693 140H115.869V133.028H113.157V131.384H120.417V133.028H117.693V140Z" fill="#94A3B8"/>
<defs>
<clipPath id="clip0_57_142">
<rect width="89" height="67.5172" fill="white" transform="translate(30 22)"/>
</clipPath>
</defs>
</svg>
