<svg width="352" height="264" viewBox="0 0 352 264" fill="none" xmlns="http://www.w3.org/2000/svg">
<path fill-rule="evenodd" clip-rule="evenodd" d="M90 138L156 1H234.5V7C225.605 10.4674 222.969 13.5823 221 20.5L326.5 242.5C332.575 250.634 336.572 253.824 345 256.5L350 262.5L243.5 263.5V258.5C253.71 255.316 257.533 252.623 259.5 245.5L184 87.5L160 137.5H183L223.5 222.5C221.814 225.059 220.237 225.59 216 224.5C211.033 215.298 207.22 211.514 198 208L127 207C114.6 239.672 103.869 253.851 70 263H4.5C1.86257 262.878 1.02459 261.886 1 258V196.5C4.18378 171.988 11.243 160.901 34.5 146.5C44.3563 141.026 50.2362 139.505 61 138H90ZM152 41.0003C156.586 34.822 158.708 35.3643 162 41.0003L173.5 65.5003C175.49 68.6707 175.883 71.9119 174.5 75.5003L144.5 137.5L113.5 139C110.4 137.291 109.152 135.943 109.5 131.5L152 41.0003ZM193 193H46.5001C39.7857 194.665 37.1419 197.266 33.5 203.5C31.7183 209.26 31.5165 211.901 32 216C36.0995 225.05 39.1968 227.034 45.0001 229.5H57.5001C67.6065 224.042 69.5737 218.516 72.6612 209.841C72.9303 209.085 73.2078 208.306 73.5 207.5H103C105.505 208.076 106.446 208.809 106.5 211.5V216C98.1088 236.215 90.2552 242.003 73.5 247.5H16.5V193C17.0942 186.32 18.0194 182.675 21.5 176.5C30.7295 163.482 37.6188 159.349 51.0001 154H175L193 193ZM57.5001 207.5H46.5001C44.2366 209.74 44.3936 211.581 45.0001 215C47.3192 217.703 48.6395 217.982 51.0001 218C54.5642 216.296 55.8724 214.252 57.5001 209.5V207.5ZM167.5 16H207.5V23.5L314.5 248.5H273V239L167.5 16Z" fill="#D9D9D9"/>
<path d="M156 1V0.5H155.686L155.55 0.782993L156 1ZM90 138V138.5H90.3141L90.4504 138.217L90 138ZM234.5 1H235V0.5H234.5V1ZM234.5 7L234.682 7.46585L235 7.34174V7H234.5ZM221 20.5L220.519 20.3631L220.468 20.5444L220.548 20.7146L221 20.5ZM326.5 242.5L326.048 242.715L326.07 242.759L326.099 242.799L326.5 242.5ZM345 256.5L345.384 256.18L345.291 256.068L345.151 256.023L345 256.5ZM350 262.5L350.005 263L351.059 262.99L350.384 262.18L350 262.5ZM243.5 263.5H243V264.005L243.505 264L243.5 263.5ZM243.5 258.5L243.351 258.023L243 258.132V258.5H243.5ZM259.5 245.5L259.982 245.633L260.032 245.453L259.951 245.284L259.5 245.5ZM184 87.5L184.451 87.2844L184.001 86.3424L183.549 87.2836L184 87.5ZM160 137.5L159.549 137.284L159.205 138H160V137.5ZM183 137.5L183.451 137.285L183.316 137H183V137.5ZM223.5 222.5L223.918 222.775L224.073 222.54L223.951 222.285L223.5 222.5ZM216 224.5L215.56 224.738L215.664 224.93L215.875 224.984L216 224.5ZM198 208L198.178 207.533L198.095 207.501L198.007 207.5L198 208ZM127 207L127.007 206.5L126.657 206.495L126.533 206.823L127 207ZM70 263V263.5H70.0663L70.1304 263.483L70 263ZM4.5 263L4.47683 263.499L4.48841 263.5H4.5V263ZM1 258H0.49999L0.50001 258.003L1 258ZM1 196.5L0.504165 196.436L0.5 196.468V196.5H1ZM34.5 146.5L34.2573 146.063L34.2469 146.069L34.2368 146.075L34.5 146.5ZM61 138V137.5H60.9652L60.9308 137.505L61 138ZM162 41.0003L162.453 40.7878L162.443 40.7675L162.432 40.7481L162 41.0003ZM152 41.0003L151.598 40.7023L151.569 40.7425L151.547 40.7878L152 41.0003ZM173.5 65.5003L173.047 65.7128L173.06 65.7403L173.076 65.7661L173.5 65.5003ZM174.5 75.5003L174.95 75.7181L174.959 75.6994L174.967 75.6801L174.5 75.5003ZM144.5 137.5L144.524 138L144.821 137.985L144.95 137.718L144.5 137.5ZM113.5 139L113.258 139.438L113.383 139.507L113.524 139.5L113.5 139ZM109.5 131.5L109.047 131.288L109.009 131.37L109.001 131.461L109.5 131.5ZM46.5001 193V192.5H46.4391L46.3798 192.515L46.5001 193ZM193 193V193.5H193.781L193.454 192.79L193 193ZM33.5 203.5L33.0683 203.248L33.0393 203.297L33.0223 203.352L33.5 203.5ZM32 216L31.5034 216.059L31.5125 216.136L31.5446 216.206L32 216ZM45.0001 229.5L44.8046 229.96L44.8983 230H45.0001V229.5ZM57.5001 229.5V230H57.6265L57.7377 229.94L57.5001 229.5ZM72.6612 209.841L73.1323 210.009L73.1323 210.009L72.6612 209.841ZM73.5 207.5V207H73.1495L73.03 207.33L73.5 207.5ZM103 207.5L103.112 207.013L103.057 207H103V207.5ZM106.5 211.5H107L107 211.49L106.5 211.5ZM106.5 216L106.962 216.192L107 216.1V216H106.5ZM73.5 247.5V248H73.5799L73.6559 247.975L73.5 247.5ZM16.5 247.5H16V248H16.5V247.5ZM16.5 193L16.002 192.956L16 192.978V193H16.5ZM21.5 176.5L21.0921 176.211L21.0771 176.232L21.0644 176.254L21.5 176.5ZM51.0001 154V153.5H50.9039L50.8145 153.536L51.0001 154ZM175 154L175.454 153.79L175.32 153.5H175V154ZM46.5001 207.5V207H46.2946L46.1485 207.145L46.5001 207.5ZM57.5001 207.5H58.0001V207H57.5001V207.5ZM45.0001 215L44.5078 215.087L44.5317 215.222L44.6206 215.326L45.0001 215ZM51.0001 218L50.9964 218.5L51.1117 218.501L51.2157 218.451L51.0001 218ZM57.5001 209.5L57.9731 209.662L58.0001 209.583V209.5H57.5001ZM207.5 16H208V15.5H207.5V16ZM167.5 16V15.5H166.71L167.048 16.2138L167.5 16ZM207.5 23.5H207V23.6128L207.048 23.7147L207.5 23.5ZM314.5 248.5V249H315.291L314.952 248.285L314.5 248.5ZM273 248.5H272.5V249H273V248.5ZM273 239H273.5V238.888L273.452 238.786L273 239ZM155.55 0.782993L89.5495 137.783L90.4504 138.217L156.45 1.21701L155.55 0.782993ZM234.5 0.5H156V1.5H234.5V0.5ZM235 7V1H234V7H235ZM221.481 20.6369C222.455 17.2146 223.577 14.7967 225.512 12.8045C227.454 10.8042 230.258 9.19034 234.682 7.46585L234.318 6.53415C229.848 8.27702 226.886 9.95429 224.794 12.1078C222.695 14.2693 221.514 16.8677 220.519 20.3631L221.481 20.6369ZM326.952 242.285L221.452 20.2854L220.548 20.7146L326.048 242.715L326.952 242.285ZM345.151 256.023C340.972 254.697 337.924 253.252 335.171 251.149C332.414 249.042 329.928 246.254 326.901 242.201L326.099 242.799C329.147 246.88 331.698 249.754 334.564 251.944C337.436 254.139 340.6 255.627 344.849 256.977L345.151 256.023ZM350.384 262.18L345.384 256.18L344.616 256.82L349.616 262.82L350.384 262.18ZM243.505 264L350.005 263L349.995 262L243.495 263L243.505 264ZM243 258.5V263.5H244V258.5H243ZM259.018 245.367C258.055 248.853 256.656 251.205 254.281 253.085C251.881 254.985 248.449 256.433 243.351 258.023L243.649 258.977C248.761 257.383 252.346 255.892 254.902 253.869C257.482 251.826 258.978 249.27 259.982 245.633L259.018 245.367ZM183.549 87.7156L259.049 245.716L259.951 245.284L184.451 87.2844L183.549 87.7156ZM160.451 137.716L184.451 87.7164L183.549 87.2836L159.549 137.284L160.451 137.716ZM183 137H160V138H183V137ZM223.951 222.285L183.451 137.285L182.549 137.715L223.049 222.715L223.951 222.285ZM215.875 224.984C218.007 225.532 219.571 225.704 220.841 225.35C222.144 224.987 223.046 224.099 223.918 222.775L223.082 222.225C222.269 223.461 221.539 224.117 220.573 224.387C219.573 224.665 218.23 224.557 216.125 224.016L215.875 224.984ZM197.822 208.467C202.397 210.211 205.591 212.007 208.254 214.483C210.922 216.964 213.086 220.154 215.56 224.738L216.44 224.262C213.947 219.644 211.721 216.341 208.935 213.751C206.145 211.157 202.823 209.303 198.178 207.533L197.822 208.467ZM126.993 207.5L197.993 208.5L198.007 207.5L127.007 206.5L126.993 207.5ZM70.1304 263.483C87.1154 258.894 98.3595 253.028 106.911 244.168C115.451 235.319 121.263 223.525 127.467 207.177L126.533 206.823C120.337 223.147 114.583 234.778 106.191 243.474C97.8097 252.158 86.7537 257.956 69.8696 262.517L70.1304 263.483ZM4.5 263.5H70V262.5H4.5V263.5ZM0.50001 258.003C0.512295 259.945 0.720217 261.314 1.36519 262.205C2.04603 263.145 3.11691 263.436 4.47683 263.499L4.52317 262.501C3.24566 262.441 2.57883 262.176 2.17518 261.618C1.73566 261.011 1.5123 259.942 1.49999 257.997L0.50001 258.003ZM0.5 196.5V258H1.5V196.5H0.5ZM34.2368 146.075C22.5837 153.291 14.9341 159.708 9.80599 167.432C4.67553 175.159 2.10053 184.145 0.504165 196.436L1.49584 196.564C3.08326 184.343 5.62974 175.529 10.6391 167.985C15.6507 160.437 23.1593 154.11 34.7632 146.925L34.2368 146.075ZM60.9308 137.505C50.1222 139.016 44.18 140.552 34.2573 146.063L34.7428 146.937C44.5326 141.501 50.3501 139.994 61.0692 138.495L60.9308 137.505ZM90 137.5H61V138.5H90V137.5ZM162.432 40.7481C161.603 39.3293 160.828 38.1955 160.05 37.4035C159.271 36.6098 158.441 36.1122 157.508 36.0705C156.577 36.0288 155.661 36.4453 154.718 37.2138C153.775 37.9827 152.754 39.1462 151.598 40.7023L152.401 41.2983C153.539 39.7653 154.503 38.6797 155.35 37.9888C156.198 37.2975 156.878 37.0433 157.463 37.0695C158.044 37.0955 158.649 37.404 159.337 38.1042C160.026 38.8059 160.751 39.8533 161.568 41.2525L162.432 40.7481ZM173.953 65.2878L162.453 40.7878L161.547 41.2128L173.047 65.7128L173.953 65.2878ZM174.967 75.6801C176.408 71.9389 175.994 68.5329 173.923 65.2345L173.076 65.7661C174.986 68.8084 175.357 71.8849 174.033 75.3205L174.967 75.6801ZM144.95 137.718L174.95 75.7181L174.05 75.2825L144.05 137.282L144.95 137.718ZM113.524 139.5L144.524 138L144.476 137.001L113.476 138.501L113.524 139.5ZM109.001 131.461C108.824 133.723 109.044 135.294 109.777 136.53C110.507 137.76 111.7 138.578 113.258 139.438L113.741 138.562C112.201 137.713 111.22 137.002 110.637 136.02C110.059 135.045 109.828 133.72 109.998 131.539L109.001 131.461ZM151.547 40.7878L109.047 131.288L109.953 131.713L152.453 41.2128L151.547 40.7878ZM46.5001 193.5H193V192.5H46.5001V193.5ZM33.9317 203.752C35.7453 200.648 37.2816 198.501 39.1689 196.92C41.0477 195.346 43.3094 194.306 46.6204 193.485L46.3798 192.515C42.9764 193.358 40.5591 194.451 38.5268 196.153C36.5032 197.848 34.8966 200.118 33.0683 203.248L33.9317 203.752ZM32.4966 215.941C32.0228 211.925 32.2123 209.356 33.9777 203.648L33.0223 203.352C31.2244 209.165 31.0102 211.877 31.5034 216.059L32.4966 215.941ZM45.1957 229.04C42.3054 227.812 40.1511 226.728 38.2077 224.858C36.2611 222.986 34.4935 220.293 32.4554 215.794L31.5446 216.206C33.606 220.757 35.4368 223.581 37.5145 225.579C39.5955 227.581 41.8915 228.722 44.8046 229.96L45.1957 229.04ZM57.5001 229H45.0001V230H57.5001V229ZM72.1902 209.674C70.6417 214.024 69.3977 217.51 67.2993 220.596C65.2123 223.664 62.2607 226.361 57.2625 229.06L57.7377 229.94C62.8458 227.181 65.9311 224.386 68.1262 221.158C70.3099 217.947 71.5932 214.333 73.1323 210.009L72.1902 209.674ZM73.03 207.33C72.7372 208.137 72.4592 208.918 72.1902 209.674L73.1323 210.009C73.4014 209.253 73.6785 208.475 73.97 207.67L73.03 207.33ZM103 207H73.5V208H103V207ZM107 211.49C106.972 210.101 106.715 209.092 106.034 208.365C105.367 207.654 104.372 207.302 103.112 207.013L102.888 207.987C104.133 208.273 104.861 208.576 105.304 209.049C105.733 209.506 105.974 210.208 106 211.51L107 211.49ZM107 216V211.5H106V216H107ZM73.6559 247.975C82.0565 245.219 88.2887 242.371 93.4736 237.639C98.6575 232.907 102.753 226.33 106.962 216.192L106.038 215.808C101.856 225.885 97.829 232.31 92.7994 236.9C87.7709 241.49 81.6987 244.284 73.3441 247.025L73.6559 247.975ZM16.5 248H73.5V247H16.5V248ZM16 193V247.5H17V193H16ZM21.0644 176.254C19.3124 179.363 18.1926 181.854 17.4379 184.419C16.6837 186.983 16.3002 189.602 16.002 192.956L16.998 193.044C17.2939 189.718 17.6701 187.174 18.3973 184.702C19.1239 182.231 20.2069 179.812 21.9356 176.746L21.0644 176.254ZM50.8145 153.536C44.114 156.214 38.9987 158.603 34.3978 161.971C29.7928 165.341 25.7271 169.673 21.0921 176.211L21.9079 176.789C26.5024 170.309 30.4962 166.066 34.9884 162.778C39.4849 159.487 44.5049 157.135 51.1857 154.464L50.8145 153.536ZM175 153.5H51.0001V154.5H175V153.5ZM193.454 192.79L175.454 153.79L174.546 154.21L192.546 193.21L193.454 192.79ZM46.5001 208H57.5001V207H46.5001V208ZM45.4924 214.913C45.1872 213.192 45.0141 211.955 45.1688 210.879C45.3182 209.84 45.7812 208.915 46.8518 207.855L46.1485 207.145C44.9556 208.325 44.3653 209.44 44.1789 210.737C43.9979 211.996 44.2065 213.389 44.5078 215.087L45.4924 214.913ZM51.0038 217.5C49.8361 217.491 49.0041 217.416 48.189 217.051C47.371 216.684 46.5183 216.002 45.3796 214.674L44.6206 215.326C45.801 216.701 46.768 217.51 47.7801 217.963C48.795 218.418 49.8036 218.491 50.9964 218.5L51.0038 217.5ZM57.0271 209.338C56.2163 211.705 55.5022 213.343 54.5744 214.596C53.6579 215.834 52.5113 216.724 50.7845 217.549L51.2157 218.451C53.053 217.573 54.3426 216.589 55.3781 215.191C56.4023 213.808 57.1562 212.047 57.9731 209.662L57.0271 209.338ZM57.0001 207.5V209.5H58.0001V207.5H57.0001ZM207.5 15.5H167.5V16.5H207.5V15.5ZM208 23.5V16H207V23.5H208ZM314.952 248.285L207.952 23.2853L207.048 23.7147L314.048 248.715L314.952 248.285ZM273 249H314.5V248H273V249ZM272.5 239V248.5H273.5V239H272.5ZM167.048 16.2138L272.548 239.214L273.452 238.786L167.952 15.7862L167.048 16.2138Z" fill="black"/>
</svg>
